<svg width="251" height="243" viewBox="0 0 251 243" fill="none" xmlns="http://www.w3.org/2000/svg">
<path d="M96.3111 210.176C96.2124 210.618 96.0337 211.011 95.7748 211.354L93.9598 210.527C93.0367 211.26 92.1918 211.99 91.425 212.718C90.6274 213.457 89.8308 214.222 89.035 215.013L80.7352 223.113C80.2717 223.569 79.7425 224.084 79.1476 224.659C78.5431 225.255 77.9347 225.888 77.3225 226.558C76.7102 227.227 76.1867 227.899 75.7521 228.572C75.5204 228.518 75.2985 228.443 75.0862 228.346C74.8643 228.27 74.652 228.174 74.4493 228.056C74.2371 227.959 74.0344 227.841 73.8415 227.702L78.4071 223.245L87.5384 214.331C88.3341 213.54 89.0459 212.736 89.6737 211.92C90.2918 211.125 90.8607 210.269 91.3804 209.352L88.8011 208.177C88.8902 207.756 89.0689 207.363 89.3374 206.998C90.1885 207.437 90.9643 207.816 91.6648 208.136C92.3442 208.445 92.8643 208.682 93.2252 208.847C93.6073 209.021 94.0319 209.214 94.4989 209.427C94.9447 209.63 95.5488 209.88 96.3111 210.176ZM75.8091 202.257L74.0895 201.473C74.1786 201.052 74.3573 200.659 74.6258 200.295C75.1044 200.538 75.5512 200.768 75.9661 200.982C76.3694 201.166 76.7728 201.35 77.1761 201.534C77.5795 201.717 78.0253 201.921 78.5136 202.143C79.2353 202.472 79.989 202.815 80.7744 203.173C81.5387 203.521 82.2913 203.839 83.0325 204.125C82.9338 204.567 82.755 204.96 82.4962 205.304L80.299 204.303C80.034 205.335 79.826 206.356 79.6749 207.364C79.5141 208.393 79.3968 209.467 79.3228 210.587L78.4071 223.245L73.8415 227.702C74.1644 226.541 74.3822 225.359 74.4948 224.154C74.5765 222.961 74.6892 221.474 74.833 219.693L75.629 208.904C75.703 207.784 75.7566 206.681 75.79 205.593C75.8137 204.528 75.8201 203.415 75.8091 202.257ZM78.8013 211.311L87.0805 215.084L86.5008 216.358L78.2215 212.585L78.8013 211.311Z" fill="#F5F5F5"/>
<path d="M65.3372 191.002C64.9004 191.733 64.4792 192.554 64.0736 193.464C63.6351 194.377 63.2389 195.403 62.8849 196.541L57.5002 212.998C57.7293 212.764 58.1334 212.342 58.7124 211.732C59.2736 211.107 59.8411 210.456 60.4147 209.78L66.755 202.31C67.4344 201.51 68.0719 200.705 68.6677 199.894C69.2307 199.087 69.7807 198.223 70.3178 197.301L68.2646 195.556C68.4652 195.176 68.7445 194.847 69.1024 194.569C69.6766 195.119 70.2482 195.635 70.817 196.118C71.3681 196.587 71.8125 196.964 72.1502 197.251C72.4702 197.523 72.8613 197.856 73.3235 198.249C73.7857 198.641 74.3429 199.084 74.9953 199.578C74.7796 199.976 74.5003 200.305 74.1575 200.565L72.3709 199.046C71.5494 199.726 70.795 200.416 70.1076 201.118C69.3874 201.823 68.6876 202.575 68.0083 203.375L61.668 210.845C61.0943 211.521 60.526 212.263 59.9631 213.07C59.3673 213.881 58.748 214.809 58.1052 215.854L59.8918 217.373C59.676 217.771 59.3968 218.1 59.0539 218.36C58.4468 217.813 57.9198 217.335 57.4727 216.924C57.0105 216.531 56.6194 216.199 56.2994 215.927L52.9397 213.072C53.341 212.31 53.7155 211.527 54.0635 210.72C54.4114 209.914 54.7113 209.128 54.9633 208.362L59.5281 194.331L47.1582 200.902C46.1438 201.448 45.252 201.976 44.4829 202.486C43.6959 202.981 42.9685 203.495 42.3006 204.03L39.7674 201.877C39.1453 201.348 38.532 200.827 37.9276 200.313C37.3081 199.817 36.6886 199.322 36.0691 198.826C36.2697 198.445 36.549 198.116 36.9069 197.839L38.8268 199.47C39.595 198.745 40.3303 198.023 41.0328 197.304C41.7024 196.587 42.3768 195.828 43.0561 195.028L49.3964 187.558C50.0758 186.757 50.7222 185.96 51.3358 185.165C51.9165 184.372 52.5021 183.538 53.0925 182.662L51.1727 181.031C51.3733 180.65 51.6526 180.321 52.0105 180.043C52.5847 180.593 53.174 181.124 53.7784 181.638C54.3828 182.151 54.9961 182.673 55.6182 183.201C56.2226 183.715 56.827 184.229 57.4314 184.742C58.0358 185.256 58.6642 185.759 59.3166 186.253C59.1008 186.651 58.8216 186.98 58.4787 187.24L56.5589 185.608C55.7907 186.333 55.0718 187.054 54.4022 187.771C53.6998 188.49 53.0089 189.25 52.3295 190.05L45.9892 197.521C45.4156 198.196 44.8837 198.877 44.3936 199.563C43.8857 200.233 43.5438 200.708 43.368 200.987L59.5806 192.539C60.1989 192.207 60.8837 191.779 61.6351 191.254C62.3865 190.729 63.0873 190.192 63.7374 189.642C64.3461 190.007 64.8794 190.46 65.3372 191.002Z" fill="#F5F5F5"/>
<path d="M55.9767 181.973C55.6603 182.297 55.3018 182.537 54.901 182.693L53.7919 181.036C52.6214 181.174 51.5188 181.351 50.4843 181.567C49.4173 181.776 48.3375 182.008 47.2448 182.262L35.9263 184.79C35.2927 184.934 34.5717 185.094 33.7635 185.27C32.9359 185.46 32.0857 185.678 31.2129 185.926C30.3401 186.174 29.5418 186.47 28.8179 186.814C28.6494 186.646 28.5003 186.465 28.3706 186.271C28.2215 186.09 28.0918 185.897 27.9814 185.69C27.8517 185.496 27.7414 185.289 27.6504 185.069L33.8771 183.678L46.3303 180.895C47.423 180.641 48.451 180.331 49.4141 179.967C50.3579 179.615 51.2918 179.186 52.2159 178.68L50.6398 176.324C50.9368 176.013 51.2953 175.772 51.7155 175.603C52.2086 176.424 52.6691 177.155 53.0972 177.794C53.5123 178.415 53.8301 178.89 54.0506 179.22C54.2841 179.569 54.5436 179.956 54.8289 180.383C55.1014 180.79 55.4839 181.32 55.9767 181.973ZM42.7011 164.457L41.6503 162.887C41.9473 162.575 42.3059 162.335 42.726 162.166C43.005 162.625 43.2645 163.055 43.5046 163.456C43.751 163.824 43.9975 164.192 44.244 164.561C44.4904 164.929 44.7628 165.336 45.0612 165.782C45.5022 166.442 45.9627 167.13 46.4427 167.847C46.9097 168.545 47.3831 169.211 47.8629 169.844C47.5465 170.169 47.1879 170.409 46.7872 170.565L45.4446 168.558C44.6762 169.298 43.9628 170.056 43.3044 170.834C42.6266 171.625 41.9619 172.478 41.3102 173.391L33.8771 183.678L27.6504 185.069C28.5352 184.252 29.3421 183.36 30.0713 182.394C30.7681 181.422 31.6457 180.217 32.7039 178.778L39.0531 170.018C39.7048 169.104 40.3306 168.193 40.9305 167.286C41.5111 166.392 42.1013 165.449 42.7011 164.457ZM40.4861 173.733L45.5451 181.295L44.3822 182.074L39.3232 174.512L40.4861 173.733Z" fill="#F5F5F5"/>
<path d="M37.025 142.879C36.5127 143.327 36.041 143.785 35.6101 144.254C35.1791 144.723 34.7778 145.206 34.4061 145.704C34.0047 146.187 33.622 146.689 33.2579 147.209L21.0189 164.147L19.0548 165.969C18.8881 165.484 18.7176 164.988 18.5434 164.48C18.3691 163.973 18.2024 163.487 18.0433 163.024C17.8545 162.546 17.6809 162.112 17.5225 161.723C17.9907 161.29 18.4437 160.814 18.8816 160.293C19.3194 159.773 19.8408 159.1 20.4455 158.275L30.2589 144.725L36.343 140.893C36.5235 141.275 36.6593 141.599 36.7502 141.864C36.8411 142.128 36.9327 142.467 37.025 142.879ZM43.4785 161.457C43.0896 161.689 42.6815 161.829 42.2541 161.878L41.4926 159.66C40.4393 159.825 39.4379 160.034 38.4886 160.286C37.5097 160.524 36.5239 160.814 35.5311 161.155L26.2655 164.341C25.4271 164.629 24.5598 164.977 23.6636 165.384C22.7377 165.776 21.7315 166.258 20.6449 166.829L21.4064 169.046C21.0175 169.279 20.6094 169.419 20.182 169.467C19.9389 168.687 19.7298 168.007 19.5549 167.426C19.3579 166.852 19.1912 166.367 19.0548 165.969L21.0189 164.147C21.7035 163.985 22.4504 163.79 23.2598 163.561C24.0691 163.332 24.893 163.074 25.7313 162.786L34.9969 159.599C35.9897 159.258 36.949 158.891 37.8749 158.499C38.7712 158.092 39.6854 157.63 40.6175 157.112L39.7423 154.563C40.1091 154.339 40.5173 154.198 40.9667 154.142C41.1802 154.908 41.4082 155.643 41.6507 156.349C41.8856 157.033 42.075 157.585 42.2189 158.004C42.3553 158.401 42.522 158.887 42.719 159.46C42.916 160.034 43.1692 160.699 43.4785 161.457ZM36.343 140.893L30.2589 144.725L20.6623 148.025C19.6696 148.366 18.7582 148.729 17.9281 149.113C17.0904 149.475 16.1283 149.941 15.0418 150.512L15.9169 153.061C15.528 153.293 15.1199 153.433 14.6925 153.482C14.4494 152.702 14.2214 151.966 14.0086 151.275C13.7661 150.569 13.5729 150.006 13.4289 149.587C13.3001 149.212 13.1372 148.737 12.9402 148.164C12.7136 147.575 12.4604 146.91 12.1808 146.167C12.5475 145.943 12.9557 145.802 13.4051 145.746L14.1666 147.964C15.3744 147.746 16.4237 147.533 17.3144 147.326C18.1975 147.096 19.1354 146.81 20.1281 146.469L36.343 140.893Z" fill="#F5F5F5"/>
<path d="M11.9588 135.139L11.5285 128.329C11.3697 125.815 11.6862 123.609 12.478 121.712C13.245 119.794 14.4693 118.267 16.1508 117.132C17.8089 115.999 19.9069 115.352 22.4447 115.191C24.9825 115.031 27.239 115.414 29.2144 116.341C31.1897 117.268 32.7717 118.629 33.9604 120.424C35.149 122.218 35.8206 124.338 35.975 126.783L36.4052 133.593C36.4552 134.385 36.5052 135.176 36.5553 135.968C36.6053 136.759 36.6793 137.561 36.7773 138.373C36.3409 138.494 35.9101 138.521 35.4852 138.455L35.3263 135.94C34.2713 135.89 33.2533 135.873 32.2725 135.888C31.267 135.882 30.2403 135.911 29.1926 135.978L19.4141 136.596C18.3663 136.663 17.3558 136.762 16.3823 136.893C15.3841 137.003 14.3649 137.149 13.3245 137.332L13.4834 139.847C13.0469 139.968 12.6162 139.995 12.1912 139.928C12.163 139.112 12.1355 138.307 12.1088 137.514C12.0588 136.723 12.0088 135.931 11.9588 135.139ZM34.8649 131.411L34.556 126.522C34.4457 124.776 33.8888 123.362 32.8855 122.28C31.8588 121.199 30.513 120.431 28.8479 119.976C27.1828 119.52 25.3142 119.358 23.2421 119.489C21.6822 119.587 20.2599 119.829 18.9752 120.214C17.6672 120.601 16.5456 121.163 15.6104 121.9C14.6738 122.614 13.9715 123.523 13.5037 124.628C13.0359 125.733 12.8505 127.054 12.9475 128.59L13.2123 132.781C14.2674 132.831 15.2627 132.862 16.1985 132.873C17.1327 132.86 18.1237 132.821 19.1714 132.755L28.9499 132.136C29.9976 132.07 30.9857 131.984 31.914 131.878C32.8409 131.75 33.8245 131.594 34.8649 131.411Z" fill="#F5F5F5"/>
<path d="M36.1727 115.906C35.7198 115.912 35.2964 115.828 34.9027 115.654L35.2905 113.698C34.3651 112.967 33.4604 112.312 32.5765 111.732C31.6742 111.125 30.7467 110.525 29.7941 109.931L20.0045 103.707C19.4549 103.36 18.832 102.963 18.1358 102.516C17.4168 102.064 16.6612 101.617 15.8689 101.174C15.0767 100.731 14.3029 100.376 13.5476 100.107C13.5472 99.8688 13.5697 99.6354 13.615 99.4066C13.6375 99.1732 13.6828 98.9444 13.7511 98.7201C13.7964 98.4912 13.8647 98.2669 13.9558 98.0472L19.3418 101.471L30.1139 108.318C31.0665 108.911 32.0121 109.42 32.9507 109.844C33.8664 110.264 34.83 110.621 35.8416 110.917L36.3927 108.137C36.8227 108.127 37.246 108.211 37.6627 108.389C37.4309 109.318 37.2402 110.16 37.0905 110.915C36.9454 111.648 36.8343 112.208 36.7572 112.597C36.6755 113.009 36.5848 113.467 36.485 113.97C36.3898 114.451 36.2857 115.096 36.1727 115.906ZM39.1685 94.1321L39.5359 92.2786C39.9659 92.2688 40.3893 92.3528 40.8059 92.5306C40.6787 93.0524 40.5583 93.5398 40.4447 93.993C40.3585 94.4278 40.2723 94.8626 40.1862 95.2974C40.1 95.7321 40.0047 96.2127 39.9004 96.739C39.7462 97.5171 39.5852 98.3294 39.4174 99.1761C39.2541 100 39.1182 100.805 39.0098 101.593C38.5569 101.598 38.1335 101.514 37.7398 101.341L38.2092 98.972C37.1432 98.9507 36.1025 98.982 35.087 99.0659C34.0486 99.1452 32.976 99.2772 31.8692 99.4619L19.3418 101.471L13.9558 98.0472C15.1591 98.0957 16.3599 98.0367 17.5583 97.8703C18.7383 97.6763 20.211 97.4454 21.9765 97.1774L32.6584 95.4801C33.7652 95.2954 34.8514 95.0948 35.917 94.8782C36.9597 94.657 38.0436 94.4083 39.1685 94.1321ZM31.0451 99.1199L29.2762 108.045L27.9032 107.772L29.6721 98.8474L31.0451 99.1199Z" fill="#F5F5F5"/>
<path d="M43.7321 62.9483C44.3017 62.2627 44.923 61.6257 45.596 61.0373C46.282 60.4294 47.0262 59.9446 47.8284 59.5828C48.6113 59.208 49.4264 59.0371 50.2738 59.0701C51.1211 59.1031 51.9813 59.4112 52.8542 59.9944C54.0957 60.8237 54.9134 61.889 55.3073 63.1902C55.6947 64.459 55.7198 65.8506 55.3827 67.3648C55.0261 68.866 54.3429 70.3735 53.333 71.8872L50.0314 76.8358C49.5912 77.4956 49.151 78.1554 48.7108 78.8152C48.2706 79.475 47.8433 80.1575 47.429 80.8627C47.0086 80.6941 46.6497 80.4543 46.3523 80.1434L47.7507 78.0476C46.9425 77.3674 46.1439 76.7357 45.3551 76.1526C44.5598 75.5372 43.7257 74.9379 42.8528 74.3547L34.7054 68.9119C33.8325 68.3287 32.9693 67.7941 32.1157 67.3081C31.2556 66.7896 30.3568 66.2874 29.4191 65.8012L28.0208 67.8971C27.6005 67.7285 27.2416 67.4888 26.9442 67.1779C27.4168 66.5116 27.8829 65.8551 28.3425 65.2082C28.7827 64.5484 29.2229 63.8886 29.6631 63.2288L32.5762 58.8624C33.4566 57.5427 34.4339 56.4562 35.5082 55.6027C36.5759 54.7168 37.6791 54.1773 38.8176 53.984C39.9691 53.7713 41.1074 54.0407 42.2325 54.7924C43.2219 55.4533 43.8877 56.2628 44.23 57.2209C44.5723 58.1791 44.685 59.1661 44.568 60.1822C44.4316 61.1852 44.153 62.1073 43.7321 62.9483ZM50.1299 74.1661L52.3633 70.8185C53.2437 69.4989 53.4902 68.2047 53.1028 66.9359C52.6959 65.6541 51.8718 64.5985 50.6303 63.7691C49.7961 63.2119 48.9457 62.8682 48.079 62.7381C47.2123 62.608 46.3584 62.753 45.5173 63.173C44.6568 63.5801 43.851 64.3464 43.1001 65.472L39.9927 70.1295L38.8288 69.3519L41.9362 64.6944C42.6224 63.6659 42.8105 62.5852 42.5007 61.4523C42.1843 60.2871 41.4345 59.3093 40.2512 58.5188C39.0873 57.7412 37.9102 57.4458 36.7199 57.6326C35.5232 57.787 34.4652 58.5532 33.5459 59.931L32.0893 62.1142C32.8975 62.7944 33.6508 63.4098 34.3491 63.9605C35.0409 64.4788 35.8233 65.0295 36.6962 65.6127L44.9891 71.1527C45.862 71.7358 46.6994 72.2672 47.5012 72.7467C48.316 73.2069 49.1922 73.68 50.1299 74.1661Z" fill="#F5F5F5"/>
<path d="M59.5025 63.992C59.1369 63.7246 58.8485 63.4035 58.6373 63.0287L60.1204 61.6949C59.8178 60.5551 59.4866 59.4881 59.1268 58.494C58.7687 57.4669 58.3863 56.4302 57.9797 55.384L53.8765 44.5315C53.6446 43.9243 53.3842 43.2329 53.0953 42.4573C52.7907 41.6644 52.4541 40.8533 52.0855 40.0239C51.7169 39.1946 51.3109 38.4458 50.8676 37.7777C51.0099 37.587 51.1678 37.4137 51.3412 37.2577C51.4991 37.0843 51.6725 36.9283 51.8616 36.7897C52.035 36.6337 52.2241 36.495 52.4287 36.3737L54.6867 42.3439L59.2025 54.2842C59.6092 55.3304 60.0609 56.3046 60.5578 57.2069C61.039 58.0919 61.5957 58.9561 62.2279 59.7995L64.3354 57.9041C64.6853 58.1541 64.9737 58.4751 65.2005 58.8673C64.4582 59.4722 63.8008 60.032 63.2284 60.5469C62.6733 61.0461 62.2484 61.4283 61.9535 61.6935C61.6413 61.9743 61.2944 62.2863 60.9128 62.6295C60.5485 62.9571 60.0784 63.4112 59.5025 63.992ZM74.9509 48.3567L76.3559 47.0931C76.7058 47.3431 76.9942 47.6642 77.221 48.0564C76.8065 48.3978 76.418 48.7159 76.0555 49.0105C75.7259 49.3069 75.3963 49.6033 75.0668 49.8997C74.7372 50.1961 74.373 50.5237 73.974 50.8825C73.3843 51.4129 72.7685 51.9667 72.1267 52.5439C71.5023 53.1056 70.9107 53.6689 70.3522 54.234C69.9866 53.9667 69.6982 53.6456 69.487 53.2708L71.2823 51.6562C70.442 51 69.5904 50.401 68.7275 49.8592C67.8491 49.3001 66.9117 48.7627 65.9153 48.2469L54.6867 42.3439L52.4287 36.3737C53.3625 37.1341 54.3588 37.8068 55.4175 38.3921C56.478 38.9444 57.7949 39.6425 59.3683 40.4865L68.9334 45.5325C69.9298 46.0483 70.9193 46.5389 71.9018 47.0044C72.8687 47.4525 73.8851 47.9033 74.9509 48.3567ZM65.4608 47.479L58.696 53.5631L57.7607 52.5218L64.5255 46.4377L65.4608 47.479Z" fill="#F5F5F5"/>
<path d="M78.4409 48.6643C78.1466 48.32 77.9398 47.9412 77.8205 47.5279L80.0312 46.3194C79.6305 45.342 79.2159 44.4121 78.7873 43.5297C78.3681 42.6157 77.9069 41.6979 77.4039 40.7765L72.7088 32.1766C72.2057 31.2551 71.6887 30.3812 71.1578 29.5548C70.6362 28.6967 70.0727 27.8349 69.4673 26.9694L67.2565 28.178C66.9623 27.8337 66.7555 27.4549 66.6361 27.0415C67.3637 26.6704 68.0811 26.3048 68.7883 25.9448C69.4843 25.5643 70.1802 25.1839 70.8762 24.8034C71.5927 24.4117 72.2989 24.0257 72.9949 23.6452C73.6797 23.2443 74.3645 22.8433 75.0493 22.4424C75.3323 22.7662 75.5392 23.145 75.6697 23.5788L73.4589 24.7874C73.8596 25.7647 74.2696 26.7104 74.6889 27.6245C75.1175 28.5069 75.5833 29.4088 76.0863 30.3302L80.7814 38.9302C81.2844 39.8516 81.7968 40.7413 82.3184 41.5994C82.8493 42.4259 83.4175 43.2718 84.0229 44.1373L88.1066 41.9048C89.7033 41.032 90.5637 40.0033 90.6878 38.8188C90.8119 37.6343 90.4342 36.1392 89.5547 34.3335C89.8487 34.093 90.1762 33.914 90.5373 33.7964L93.9748 40.0928L82.6139 46.3033C81.918 46.6838 81.222 47.0642 80.526 47.4447C79.83 47.8252 79.135 48.2317 78.4409 48.6643Z" fill="#F5F5F5"/>
<path d="M96.0129 40.3387C95.7915 39.9436 95.6625 39.5317 95.6261 39.1031L98.0303 38.3494C97.828 37.3127 97.6027 36.3198 97.3545 35.3708C97.1216 34.3925 96.8484 33.4025 96.5347 32.4006L93.6075 23.05C93.2939 22.0481 92.9573 21.0901 92.5978 20.176C92.2536 19.2326 91.869 18.2774 91.4441 17.3105L89.0399 18.0641C88.8185 17.669 88.6895 17.2571 88.6531 16.8285C89.4392 16.6065 90.2142 16.388 90.978 16.173C91.7349 15.9358 92.4918 15.6985 93.2486 15.4613C94.0278 15.2171 94.7958 14.9763 95.5526 14.7391C96.3025 14.4796 97.0524 14.2201 97.8023 13.9605C98.0168 14.3334 98.1458 14.7453 98.1891 15.1962L95.785 15.9498C95.9873 16.9865 96.2049 17.994 96.4378 18.9723C96.686 19.9213 96.9669 20.8968 97.2806 21.8986L100.208 31.2493C100.521 32.2511 100.85 33.2237 101.195 34.1671C101.554 35.0812 101.946 36.0218 102.371 36.9888L104.775 36.2351C104.99 36.608 105.119 37.0199 105.162 37.4708C104.391 37.6635 103.628 37.8785 102.871 38.1157C102.114 38.353 101.346 38.5937 100.567 38.8379C99.8098 39.0752 99.0529 39.3124 98.296 39.5497C97.5392 39.7869 96.7781 40.0499 96.0129 40.3387Z" fill="#F5F5F5"/>
<path d="M109.284 36.4332C109.152 36 109.113 35.5702 109.169 35.1436L111.155 34.9656C111.596 33.8721 111.971 32.8197 112.278 31.8084C112.607 30.7718 112.922 29.713 113.224 28.632L116.443 17.4874C116.621 16.8624 116.827 16.153 117.06 15.3592C117.292 14.5421 117.508 13.6912 117.71 12.8065C117.912 11.9218 118.036 11.0792 118.081 10.2788C118.31 10.2115 118.54 10.1674 118.772 10.1466C119.003 10.1026 119.235 10.0818 119.469 10.0842C119.702 10.0634 119.936 10.0658 120.173 10.0914L118.402 16.2227L114.862 28.4852C114.56 29.5662 114.338 30.6167 114.195 31.6367C114.05 32.6334 113.978 33.6588 113.979 34.7127L116.802 34.4598C116.932 34.8697 116.971 35.2996 116.917 35.7494C115.96 35.7883 115.098 35.8421 114.332 35.9108C113.588 35.9774 113.019 36.0284 112.624 36.0637C112.206 36.1012 111.741 36.1428 111.23 36.1886C110.742 36.2324 110.093 36.3139 109.284 36.4332ZM131.022 33.1859L132.904 33.0173C133.035 33.4272 133.073 33.8571 133.02 34.3069C132.483 34.3316 131.981 34.3531 131.515 34.3715C131.073 34.411 130.632 34.4506 130.19 34.4901C129.749 34.5297 129.261 34.5734 128.726 34.6213C127.936 34.692 127.111 34.7659 126.252 34.8429C125.415 34.9179 124.604 35.014 123.818 35.1312C123.686 34.698 123.647 34.2682 123.703 33.8416L126.108 33.6262C125.828 32.5972 125.505 31.6072 125.139 30.6563C124.771 29.6821 124.343 28.6899 123.854 27.6797L118.402 16.2227L120.173 10.0914C120.465 11.2598 120.859 12.3956 121.356 13.4988C121.874 14.5767 122.51 15.925 123.264 17.5439L127.897 27.3175C128.386 28.3277 128.884 29.3137 129.391 30.2754C129.897 31.2138 130.441 32.184 131.022 33.1859ZM123.95 26.7927L114.889 27.6045L114.764 26.2104L123.826 25.3986L123.95 26.7927Z" fill="#F5F5F5"/>
<path d="M152.671 38.5593C152.524 37.8951 152.349 37.2614 152.144 36.6583C151.94 36.0552 151.708 35.4712 151.45 34.9062C151.219 34.3221 150.962 33.7457 150.681 33.1767L141.698 14.3112L141.042 11.7135C141.547 11.8002 142.065 11.8889 142.594 11.9795C143.123 12.0702 143.628 12.1569 144.111 12.2396C144.621 12.3034 145.085 12.3592 145.503 12.4071C145.657 13.0253 145.858 13.6514 146.104 14.2854C146.351 14.9194 146.691 15.6995 147.124 16.6259L154.3 31.7378L154.74 38.914C154.318 38.889 153.97 38.8529 153.694 38.8056C153.418 38.7583 153.077 38.6762 152.671 38.5593ZM133.275 35.3059C133.258 34.8532 133.331 34.4278 133.494 34.0297L135.805 34.4258C136.166 33.4226 136.463 32.444 136.698 31.49C136.959 30.517 137.178 29.5132 137.355 28.4784L139.008 18.8208C139.158 17.947 139.269 17.0193 139.343 16.0378C139.443 15.0372 139.504 13.9233 139.524 12.6961L137.213 12.3C137.196 11.8473 137.269 11.4219 137.432 11.0238C138.233 11.1847 138.93 11.3279 139.524 11.4534C140.122 11.5559 140.628 11.6426 141.042 11.7135L141.698 14.3112C141.51 14.9892 141.323 15.7381 141.135 16.5581C140.948 17.378 140.779 18.2248 140.63 19.0986L138.976 28.7563C138.799 29.791 138.661 30.8087 138.56 31.8093C138.487 32.7908 138.454 33.8147 138.46 34.881L141.116 35.3362C141.137 35.7659 141.065 36.1913 140.898 36.6124C140.124 36.4324 139.369 36.2793 138.633 36.1532C137.92 36.031 137.346 35.9325 136.909 35.8576C136.495 35.7867 135.989 35.7 135.391 35.5975C134.793 35.4951 134.088 35.3978 133.275 35.3059ZM154.74 38.914L154.3 31.7378L156.012 21.7352C156.189 20.7005 156.309 19.7268 156.37 18.8143C156.455 17.9057 156.507 16.8378 156.528 15.6105L153.872 15.1553C153.855 14.7027 153.928 14.2773 154.091 13.8791C154.892 14.0401 155.646 14.1931 156.355 14.3383C157.091 14.4644 157.677 14.5649 158.114 14.6398C158.505 14.7068 159 14.7915 159.597 14.894C160.222 14.9774 160.927 15.0746 161.713 15.1856C161.734 15.6153 161.661 16.0407 161.495 16.4618L159.184 16.0657C158.795 17.2299 158.478 18.2525 158.233 19.1335C158.01 20.0185 157.81 20.9783 157.633 22.0131L154.74 38.914Z" fill="#F5F5F5"/>
<path d="M155.263 39.9052C155.362 39.4632 155.542 39.0706 155.801 38.7274L157.615 39.5568C158.539 38.8249 159.385 38.0958 160.152 37.3694C160.951 36.6315 161.749 35.8675 162.545 35.0774L170.855 26.9873C171.319 26.5326 171.849 26.0181 172.445 25.4439C173.05 24.8484 173.659 24.2163 174.272 23.5475C174.886 22.8787 175.41 22.2078 175.845 21.5348C176.077 21.5894 176.299 21.6651 176.511 21.7621C176.733 21.8379 176.945 21.9349 177.147 22.0532C177.36 22.1502 177.562 22.2684 177.755 22.4078L173.184 26.859L164.041 35.7613C163.244 36.5513 162.532 37.3541 161.903 38.1697C161.284 38.964 160.714 39.8192 160.193 40.7353L162.771 41.9139C162.681 42.3347 162.502 42.7273 162.233 43.0917C161.382 42.6516 160.607 42.2714 159.907 41.9513C159.228 41.6409 158.708 41.4033 158.347 41.2384C157.965 41.0638 157.541 40.8698 157.074 40.6564C156.629 40.4527 156.025 40.2023 155.263 39.9052ZM175.755 47.8504L177.474 48.6361C177.384 49.0569 177.205 49.4495 176.936 49.8139C176.458 49.5695 176.011 49.3398 175.596 49.1246C175.193 48.9402 174.79 48.7559 174.387 48.5716C173.984 48.3873 173.538 48.1836 173.05 47.9605C172.329 47.6307 171.576 47.2864 170.791 46.9275C170.027 46.5783 169.275 46.26 168.534 45.9726C168.633 45.5306 168.813 45.138 169.072 44.7948L171.268 45.7988C171.534 44.7662 171.743 43.7461 171.896 42.7384C172.058 41.7095 172.176 40.6351 172.252 39.5152L173.184 26.859L177.755 22.4078C177.43 23.5677 177.211 24.75 177.097 25.9548C177.014 27.148 176.899 28.6347 176.753 30.4149L175.944 41.203C175.868 42.3229 175.813 43.4264 175.778 44.5135C175.753 45.5794 175.746 46.6917 175.755 47.8504ZM172.774 38.7922L164.5 35.0091L165.081 33.7358L173.356 37.5189L172.774 38.7922Z" fill="#F5F5F5"/>
<path d="M186.785 59.0943C187.043 58.7216 187.356 58.4247 187.725 58.2036L189.457 60.0334C190.299 59.3959 191.092 58.7571 191.835 58.1169C192.611 57.4777 193.38 56.7969 194.142 56.0748L201.253 49.3344C202.015 48.6122 202.728 47.8887 203.391 47.1638C204.087 46.4399 204.776 45.6744 205.457 44.8675L203.725 43.0378C203.983 42.6651 204.296 42.3682 204.665 42.1471C205.209 42.7561 205.746 43.3567 206.274 43.9487C206.819 44.5248 207.365 45.1008 207.91 45.6769L211.278 49.2347C212.48 50.5054 213.394 51.8095 214.017 53.147C214.658 54.4684 214.903 55.7627 214.753 57.0297C214.62 58.2806 213.978 59.4518 212.827 60.5431C211.659 61.6504 210.388 62.2763 209.015 62.4206C207.659 62.5489 206.296 62.2974 204.928 61.666C203.559 61.0347 202.289 60.1006 201.119 58.8638L197.751 55.3059L198.767 54.343L202.375 58.155C203.337 59.1716 204.455 59.6393 205.727 59.5583C207 59.4772 208.305 58.8027 209.642 57.5349C210.912 56.3313 211.605 55.0955 211.722 53.8276C211.855 52.5766 211.288 51.2819 210.021 49.9435L208.458 48.2916C207.615 48.9291 206.832 49.5434 206.106 50.1345C205.397 50.7426 204.661 51.4077 203.899 52.1299L196.788 58.8702C196.026 59.5924 195.297 60.3155 194.601 61.0395C193.938 61.7643 193.266 62.5302 192.584 63.3371L194.797 65.6751C194.557 66.0318 194.243 66.3287 193.858 66.5658C193.106 65.7035 192.433 64.959 191.84 64.3321C191.262 63.7222 190.693 63.1207 190.132 62.5278C189.586 61.9517 189.041 61.3757 188.496 60.7997C187.95 60.2236 187.38 59.6552 186.785 59.0943Z" fill="#F5F5F5"/>
<path d="M203.868 81.861C203.25 80.8173 202.75 79.6761 202.369 78.4375C202 77.219 201.772 76.0113 201.687 74.8142L207.104 71.6008C207.355 71.8863 207.545 72.2074 207.675 72.5643C206.651 73.3073 205.862 74.1956 205.309 75.2293C204.775 76.251 204.507 77.3321 204.505 78.4727C204.515 79.6333 204.828 80.7354 205.447 81.7792C206.303 83.2243 207.328 84.1761 208.521 84.6345C209.746 85.1011 210.971 84.9714 212.195 84.2454C212.958 83.7932 213.471 83.2176 213.735 82.5186C213.998 81.8196 214.099 81.0278 214.035 80.143C214.004 79.2664 213.891 78.3434 213.697 77.3739C213.534 76.4126 213.385 75.4294 213.251 74.4242C213.128 73.4391 213.106 72.4625 213.183 71.4944C213.292 70.5345 213.589 69.6396 214.074 68.8097C214.578 67.9679 215.382 67.2198 216.486 66.5652C217.73 65.8273 218.944 65.4734 220.127 65.5036C221.343 65.5419 222.491 65.9461 223.571 66.7161C224.651 67.4861 225.618 68.5936 226.475 70.0388C227.235 71.3234 227.747 72.4846 228.009 73.5225C228.272 74.5603 228.388 75.5354 228.359 76.4477L223.634 79.2505C223.384 78.9651 223.193 78.6439 223.063 78.2871C224.405 77.3016 225.287 76.1136 225.711 74.7231C226.155 73.3207 225.96 71.917 225.128 70.512C224.379 69.2475 223.488 68.4065 222.454 67.9889C221.452 67.5795 220.45 67.6723 219.446 68.2674C218.624 68.7553 218.06 69.3607 217.756 70.0835C217.484 70.8144 217.36 71.6342 217.383 72.5427C217.438 73.4595 217.553 74.4085 217.727 75.3899C217.914 76.3914 218.064 77.4006 218.179 78.4177C218.325 79.443 218.35 80.4456 218.252 81.4256C218.187 82.4137 217.902 83.3287 217.397 84.1705C216.905 85.0323 216.097 85.7965 214.973 86.463C213.749 87.1889 212.457 87.4804 211.098 87.3372C209.771 87.2023 208.478 86.6673 207.219 85.7323C205.972 84.8174 204.855 83.5269 203.868 81.861Z" fill="#F5F5F5"/>
<path d="M209.248 92.3345C209.635 92.0991 210.042 91.9556 210.469 91.9041L211.306 94.2807C212.335 94.0417 213.319 93.7814 214.258 93.4997C215.228 93.2323 216.207 92.9241 217.197 92.5751L226.438 89.3181C227.429 88.9691 228.374 88.5988 229.275 88.2071C230.205 87.8296 231.146 87.4114 232.098 86.9524L231.261 84.5758C231.648 84.3404 232.055 84.197 232.482 84.1454C232.732 84.9233 232.977 85.6903 233.218 86.4462C233.481 87.1944 233.745 87.9426 234.008 88.6908C234.279 89.461 234.546 90.2202 234.81 90.9683C235.095 91.7088 235.381 92.4492 235.666 93.1896C235.301 93.4172 234.894 93.5607 234.445 93.62L233.608 91.2434C232.579 91.4824 231.58 91.7356 230.611 92.003C229.671 92.2847 228.707 92.6 227.716 92.949L218.476 96.206C217.485 96.555 216.525 96.9182 215.594 97.2957C214.694 97.6874 213.767 98.1127 212.816 98.5717L213.653 100.948C213.288 101.176 212.881 101.319 212.432 101.379C212.212 100.615 211.971 99.8591 211.707 99.1109C211.444 98.3627 211.177 97.6035 210.906 96.8333C210.642 96.0851 210.379 95.3369 210.116 94.5888C209.852 93.8406 209.563 93.0891 209.248 92.3345Z" fill="#F5F5F5"/>
<path d="M223.629 125.832C223.745 126.194 223.791 126.564 223.768 126.943L217.657 127.708C217.116 126.953 216.587 125.914 216.069 124.592C215.554 123.292 215.185 121.752 214.962 119.969C214.638 117.376 214.892 115.076 215.722 113.068C216.553 111.059 217.855 109.439 219.629 108.206C221.403 106.973 223.551 106.199 226.074 105.883C228.598 105.568 230.872 105.8 232.897 106.581C234.926 107.386 236.592 108.682 237.897 110.47C239.202 112.258 240.021 114.483 240.353 117.145C240.553 118.743 240.567 120.175 240.396 121.443C240.226 122.71 239.993 123.762 239.697 124.598L233.621 125.358C233.505 124.997 233.459 124.626 233.482 124.247C235.638 123.625 237.124 122.722 237.94 121.538C238.782 120.375 239.092 118.902 238.869 117.12C238.681 115.615 238.231 114.366 237.519 113.374C236.81 112.405 235.905 111.648 234.802 111.104C233.726 110.58 232.509 110.251 231.152 110.115C229.818 109.976 228.422 109.998 226.964 110.18C225.505 110.363 224.099 110.68 222.745 111.131C221.417 111.603 220.236 112.221 219.203 112.985C218.193 113.746 217.429 114.688 216.911 115.811C216.393 116.934 216.23 118.259 216.421 119.787C216.562 120.921 216.914 121.947 217.475 122.864C218.06 123.778 218.855 124.502 219.862 125.034C220.895 125.587 222.151 125.853 223.629 125.832Z" fill="#F5F5F5"/>
<path d="M227.507 135.725C226.05 135.528 224.611 135.462 223.19 135.528C221.788 135.621 220.492 135.893 219.301 136.344C218.13 136.821 217.152 137.524 216.367 138.453C215.582 139.383 215.087 140.611 214.88 142.136L213.471 141.592C213.806 139.119 214.627 137.052 215.934 135.393C217.238 133.757 218.904 132.582 220.931 131.868C222.955 131.177 225.227 131.002 227.746 131.343C230.266 131.685 232.408 132.469 234.173 133.697C235.934 134.948 237.226 136.535 238.048 138.459C238.868 140.407 239.113 142.594 238.785 145.021L237.375 144.477C237.61 142.744 237.292 141.264 236.422 140.04C235.572 138.842 234.359 137.889 232.783 137.181C231.207 136.473 229.449 135.988 227.507 135.725ZM224.749 150.889C226.205 151.086 227.634 151.139 229.036 151.046C230.457 150.979 231.753 150.708 232.924 150.231C234.115 149.78 235.103 149.09 235.888 148.16C236.673 147.231 237.169 146.003 237.375 144.477L238.785 145.021C238.447 147.518 237.626 149.585 236.322 151.221C235.017 152.857 233.353 154.02 231.33 154.711C229.303 155.426 227.029 155.612 224.509 155.271C221.989 154.929 219.849 154.133 218.088 152.882C216.323 151.654 215.032 150.067 214.212 148.12C213.39 146.195 213.142 144.02 213.471 141.592L214.88 142.136C214.646 143.87 214.954 145.336 215.804 146.534C216.651 147.755 217.862 148.72 219.438 149.428C221.037 150.139 222.807 150.626 224.749 150.889ZM245.288 151.764C244.538 151.216 243.915 150.519 243.417 149.675C242.942 148.833 242.502 147.997 242.097 147.165C241.688 146.356 241.228 145.67 240.715 145.106C240.696 144.727 240.746 144.357 240.866 143.997C241.656 144.763 242.428 145.409 243.181 145.935C243.954 146.487 244.852 146.985 245.875 147.43L245.288 151.764Z" fill="#F5F5F5"/>
<path d="M210.913 153.341C211.36 153.417 211.761 153.576 212.118 153.817L211.194 156.161C212.128 156.655 213.042 157.103 213.936 157.506C214.843 157.939 215.785 158.349 216.762 158.734L225.876 162.331C226.853 162.716 227.809 163.056 228.747 163.351C229.697 163.675 230.682 163.976 231.701 164.253L232.625 161.909C233.071 161.985 233.473 162.143 233.829 162.384C233.508 163.135 233.191 163.876 232.879 164.605C232.588 165.343 232.297 166.081 232.006 166.819C231.707 167.578 231.412 168.327 231.121 169.065C230.852 169.812 230.583 170.558 230.313 171.305C229.889 171.237 229.487 171.079 229.109 170.829L230.033 168.485C229.099 167.992 228.179 167.528 227.271 167.095C226.377 166.692 225.441 166.297 224.465 165.912L215.351 162.315C214.374 161.93 213.411 161.575 212.461 161.25C211.523 160.956 210.545 160.67 209.526 160.393L207.82 164.723C207.152 166.416 207.15 167.757 207.814 168.746C208.477 169.735 209.725 170.641 211.557 171.465C211.485 171.838 211.348 172.185 211.146 172.506L204.473 169.873L209.221 157.827C209.512 157.089 209.802 156.351 210.093 155.613C210.384 154.876 210.657 154.118 210.913 153.341Z" fill="#F5F5F5"/>
<path d="M210.948 181.73C209.749 180.879 208.505 180.154 207.215 179.553C205.93 178.986 204.656 178.625 203.392 178.472C202.134 178.352 200.941 178.521 199.815 178.981C198.689 179.44 197.681 180.298 196.791 181.555L195.795 180.419C197.238 178.382 198.923 176.932 200.85 176.068C202.764 175.223 204.784 174.954 206.91 175.262C209.024 175.588 211.117 176.487 213.191 177.958C215.265 179.429 216.799 181.118 217.793 183.025C218.773 184.95 219.182 186.956 219.018 189.043C218.842 191.148 218.045 193.201 216.629 195.199L215.633 194.063C216.644 192.636 217.048 191.178 216.845 189.689C216.647 188.233 216.015 186.826 214.947 185.468C213.879 184.11 212.546 182.864 210.948 181.73ZM201.476 193.888C202.675 194.739 203.916 195.448 205.201 196.016C206.491 196.616 207.765 196.977 209.023 197.097C210.287 197.25 211.482 197.097 212.609 196.637C213.735 196.178 214.743 195.32 215.633 194.063L216.629 195.199C215.173 197.255 213.488 198.706 211.574 199.55C209.66 200.395 207.647 200.654 205.534 200.328C203.407 200.021 201.307 199.131 199.233 197.66C197.159 196.189 195.632 194.49 194.651 192.565C193.658 190.659 193.249 188.653 193.426 186.547C193.589 184.46 194.378 182.418 195.795 180.419L196.791 181.555C195.779 182.982 195.373 184.424 195.57 185.88C195.755 187.355 196.381 188.772 197.448 190.13C198.535 191.502 199.878 192.755 201.476 193.888Z" fill="#F5F5F5"/>
<path d="M176.74 212.91C176.402 212.644 176.129 212.31 175.92 211.908L177.328 210.754C176.753 209.868 176.094 208.915 175.35 207.896C174.603 206.91 173.69 205.757 172.611 204.44C172.916 203.707 173.316 202.943 173.809 202.146C174.299 201.382 174.89 200.612 175.58 199.835C176.271 199.058 177.076 198.292 177.996 197.538C180.017 195.882 182.125 194.848 184.321 194.436C186.498 194.039 188.607 194.241 190.649 195.041C192.673 195.856 194.49 197.247 196.1 199.215C197.711 201.182 198.698 203.254 199.061 205.429C199.425 207.605 199.18 209.736 198.326 211.823C197.454 213.926 195.98 215.827 193.905 217.528C192.516 218.666 191.231 219.508 190.05 220.054C188.868 220.6 187.845 220.971 186.981 221.167L183.324 216.699C183.568 216.408 183.857 216.171 184.19 215.989C185.761 217.356 187.266 218.053 188.705 218.08C190.126 218.122 191.603 217.514 193.137 216.257C194.707 214.971 195.663 213.524 196.005 211.916C196.362 210.326 196.25 208.698 195.67 207.032C195.09 205.366 194.18 203.775 192.939 202.258C192.008 201.121 190.973 200.114 189.834 199.238C188.709 198.38 187.531 197.732 186.298 197.294C185.081 196.875 183.85 196.752 182.606 196.927C181.344 197.117 180.118 197.699 178.927 198.675C178.296 199.193 177.684 199.845 177.092 200.632C176.515 201.437 176.123 202.21 175.916 202.953C176.7 203.909 177.488 204.817 178.28 205.675C179.055 206.548 179.82 207.354 180.576 208.092L182.795 206.274C183.148 206.557 183.421 206.891 183.615 207.276C182.969 207.775 182.304 208.289 181.622 208.818C180.936 209.38 180.35 209.861 179.863 210.26C179.231 210.778 178.699 211.214 178.266 211.569C177.848 211.942 177.339 212.389 176.74 212.91Z" fill="#F5F5F5"/>
<path d="M170.608 203.134C170.877 203.499 171.056 203.892 171.145 204.312L169.33 205.14C169.276 206.318 169.272 207.435 169.317 208.491C169.35 209.578 169.404 210.682 169.478 211.802L170.135 223.385C170.174 224.033 170.215 224.771 170.258 225.597C170.311 226.445 170.388 227.32 170.491 228.222C170.594 229.123 170.756 229.959 170.979 230.73C170.786 230.869 170.583 230.987 170.371 231.084C170.168 231.202 169.956 231.298 169.734 231.374C169.522 231.47 169.3 231.546 169.068 231.6L168.706 225.228L167.981 212.484C167.907 211.364 167.769 210.299 167.565 209.289C167.372 208.3 167.1 207.309 166.75 206.315L164.171 207.49C163.912 207.147 163.733 206.754 163.635 206.312C164.524 205.958 165.32 205.621 166.02 205.302C166.699 204.992 167.22 204.755 167.58 204.591C167.963 204.417 168.387 204.223 168.854 204.01C169.3 203.807 169.885 203.515 170.608 203.134ZM151.179 213.41L149.459 214.194C149.201 213.85 149.022 213.457 148.923 213.015C149.421 212.814 149.887 212.627 150.321 212.455C150.725 212.271 151.128 212.087 151.531 211.904C151.935 211.72 152.381 211.517 152.869 211.294C153.591 210.965 154.344 210.622 155.13 210.264C155.894 209.916 156.627 209.556 157.33 209.185C157.598 209.549 157.777 209.942 157.866 210.363L155.669 211.364C156.273 212.242 156.906 213.069 157.567 213.845C158.237 214.642 158.97 215.436 159.766 216.227L168.706 225.228L169.068 231.6C168.406 230.595 167.657 229.654 166.823 228.778C165.977 227.933 164.93 226.872 163.682 225.594L156.072 217.91C155.276 217.119 154.479 216.354 153.682 215.615C152.894 214.898 152.06 214.163 151.179 213.41ZM159.969 217.096L168.248 213.323L168.828 214.597L160.549 218.37L159.969 217.096Z" fill="#F5F5F5"/>
<path d="M93.9994 114.744C93.9765 114.592 93.9708 114.434 94.0065 114.256C93.9708 114.43 93.9894 114.585 93.9994 114.744Z" fill="#F5F5F5"/>
<path d="M156.851 148.303C156.588 148.357 156.3 148.397 155.969 148.407C156.121 148.481 156.452 148.42 156.851 148.303Z" fill="#F5F5F5"/>
<path d="M162.729 180.405C162.725 180.411 162.715 180.418 162.711 180.424C162.716 180.417 162.722 180.41 162.729 180.405Z" fill="#F5F5F5"/>
<path d="M151.529 159.68C151.533 159.674 151.534 159.666 151.539 159.66C151.507 159.7 151.474 159.741 151.443 159.783C151.47 159.747 151.502 159.714 151.529 159.68Z" fill="#F5F5F5"/>
<path d="M141.72 122.273C141.726 122.27 141.733 122.268 141.739 122.263C141.752 122.222 141.763 122.179 141.776 122.137C141.749 122.151 141.722 122.162 141.696 122.179C141.71 122.194 141.716 122.232 141.72 122.273Z" fill="#F5F5F5"/>
<path d="M98.3475 129.677C98.0862 129.759 97.782 129.832 97.5235 129.779C95.8186 129.43 94.6919 130.398 93.858 131.595C92.9926 132.837 92.3615 134.253 91.7075 135.629C91.2862 136.516 90.9378 137.115 90.7208 138.245C90.5823 138.805 90.7765 139.369 90.9278 139.786C91.072 140.182 91.3248 140.682 91.6646 140.832C92.153 141.047 92.777 140.932 93.1554 140.452C94.2964 139.005 95.4173 137.54 96.5368 136.076C96.6568 135.919 96.7753 135.763 96.8952 135.608C97.4978 134.821 98.1061 134.037 98.6673 133.22C99.1428 132.527 99.5684 131.797 99.9796 131.064C100.077 130.89 100.121 130.509 100.027 130.439C99.5298 130.069 99.1414 129.426 98.3475 129.677ZM98.3889 130.991C98.3974 131.593 95.473 135.201 94.462 136.684C94.0736 137.253 92.9912 139.295 92.4986 139.234C92.0059 139.173 92.173 137.932 92.8556 135.972C93.5381 134.013 95.6615 129.519 98.3889 130.991Z" fill="#F5F5F5"/>
<path d="M101.933 131.378C101.175 131.268 100.335 132.249 100.335 132.249L96.404 137.898C96.404 137.898 94.9203 139.829 94.2263 140.83C93.748 141.52 93.8722 142.118 94.4705 142.459C95.8756 143.259 97.3193 142.997 98.7072 142.479C99.5098 142.179 100.271 141.708 100.962 141.194C101.726 140.626 102.384 139.917 103.098 139.281C103.429 138.985 103.717 138.669 103.962 138.335C104.702 137.33 105.077 136.155 105.196 134.858C105.27 133.852 104.845 133.038 104.205 132.449C103.568 131.857 102.714 131.49 101.933 131.378ZM102.306 136.791C101.515 139.695 99.4612 140.763 97.8333 141.14C97.2879 141.308 96.2312 141.373 95.5572 141.407C95.5115 141.315 95.2887 141.274 95.4115 141.049C95.6743 140.687 95.9327 140.324 96.1983 139.966C96.7581 139.214 97.3036 138.453 97.8905 137.723C98.2646 137.258 98.723 136.861 99.1099 136.405C99.8396 135.549 100.529 134.658 101.273 133.815C101.439 133.628 101.625 133.379 102 133.499C102.466 133.649 102.817 134.02 102.8 134.268C102.741 135.117 102.54 135.967 102.306 136.791Z" fill="#F5F5F5"/>
<path d="M86.1043 103.676C86.08 103.774 86.0657 103.872 86.0171 103.969C86.0485 103.97 86.0728 103.987 86.1014 103.996C86.0742 103.987 86.08 103.774 86.1043 103.676Z" fill="#F5F5F5"/>
<path d="M70.9735 86.0027C70.9807 86.0382 70.9864 86.0695 70.9935 86.1051C71.2707 87.5766 71.5308 88.8801 71.7523 90.1836C71.5494 88.9811 71.115 86.5619 71.045 86.0795C71.0364 86.0254 71.0321 85.9771 71.0321 85.9771C71.0092 85.9842 70.9935 85.997 70.9735 86.0027Z" fill="#F5F5F5"/>
<path d="M72.4382 82.4132C72.2624 81.4839 71.858 80.5888 71.3236 79.8033C71.245 79.688 71.1736 79.5656 71.0893 79.4561C71.658 80.5162 72.0995 81.649 72.5125 82.7817C72.4982 82.6579 72.461 82.537 72.4382 82.4132Z" fill="#F5F5F5"/>
<path d="M68.7502 77.146C69.1586 77.5316 69.7854 78.071 70.3052 78.5676C69.7398 78.0013 69.1386 77.5032 68.7502 77.146Z" fill="#F5F5F5"/>
<path d="M161.704 174.725C161.704 174.725 161.68 174.665 161.646 174.578C161.677 174.658 161.699 174.715 161.704 174.725Z" fill="#F5F5F5"/>
<path d="M82.3416 105.75C82.5574 105.803 82.796 105.864 82.9846 105.914C83.0032 105.915 83.0318 105.918 83.0504 105.92C82.8232 105.849 82.5145 105.757 82.2473 105.696C82.2802 105.713 82.3088 105.732 82.3416 105.75Z" fill="#F5F5F5"/>
<path d="M83.4725 106.041C83.7338 106.106 84.2836 106.244 84.9847 106.422C85.0875 106.442 85.1903 106.454 85.2932 106.474C84.4892 106.277 83.7838 106.112 83.4697 106.038L83.4725 106.041Z" fill="#F5F5F5"/>
<path d="M123.916 119.878C123.985 119.832 124.122 119.704 124.236 119.603C124.258 119.579 124.279 119.562 124.301 119.533C124.322 119.505 124.368 119.491 124.409 119.474C124.335 119.491 124.276 119.519 124.243 119.562C124.141 119.701 124.031 119.802 123.916 119.878Z" fill="#F5F5F5"/>
<path d="M135.817 119.868C135.89 119.788 136 119.699 136.111 119.632C135.983 119.699 135.847 119.803 135.761 119.897C134.935 120.796 134.179 121.768 133.31 122.622C133.508 122.428 133.756 122.166 134.021 121.885C134.435 121.429 134.842 120.967 135.25 120.506C134.862 120.945 134.469 121.381 134.081 121.819C134.706 121.149 135.407 120.366 135.804 119.942C135.75 119.983 135.688 120.017 135.647 120.06C135.704 119.996 135.758 119.932 135.817 119.868Z" fill="#F5F5F5"/>
<path d="M102.26 104.614C102.115 104.59 102.012 104.577 101.926 104.568C101.962 104.574 102.012 104.583 102.052 104.59C102.139 104.598 102.216 104.607 102.26 104.614Z" fill="#F5F5F5"/>
<path d="M179.797 121.491C179.373 121.45 178.894 121.642 178.517 121.511C179.053 121.682 179.374 121.45 179.797 121.491Z" fill="#F5F5F5"/>
<path d="M177.737 121.229C178.108 121.364 178.386 121.469 178.519 121.511C178.256 121.42 177.997 121.324 177.737 121.229Z" fill="#F5F5F5"/>
<path d="M98.1776 114.35C97.3022 113.56 96.4155 112.782 95.5001 112.039C95.0846 111.702 94.6834 111.885 94.5177 112.352C94.2992 112.971 94.135 113.613 94.0051 114.256C93.9694 114.434 93.9751 114.594 93.9979 114.744C94.0422 115.533 94.552 116.145 95.1232 116.579C96.514 117.637 97.9719 116.664 98.7502 116.317C98.8987 116.256 99.0015 116.183 99.0715 116.103C99.2714 115.876 99.1814 115.583 98.9701 115.285C98.7359 114.954 98.4803 114.622 98.1776 114.35Z" fill="#F5F5F5"/>
<path d="M170.73 126.107C171.947 125.444 173.278 124.929 173.765 124.929C172.314 123.95 168.03 126.708 167.138 127.308C166.646 127.664 165.791 128.489 165.575 128.798C164.831 129.691 164.641 130.214 164.713 131.233C164.987 130.937 165.241 130.466 165.508 130.043C166.369 128.978 166.469 128.464 170.73 126.107Z" fill="#F5F5F5"/>
<path d="M165.698 135.679C167.099 135.299 168.478 134.966 169.942 135.219C171.824 135.144 173.185 134.861 173.855 134.562C174.544 134.296 176.631 132.477 176.738 132.037C176.926 131.256 177.512 130.959 178.009 130.51C178.164 130.37 178.21 130.106 178.306 129.898C178.234 129.859 178.163 129.819 178.091 129.778C177.615 130.226 177.149 130.687 176.658 131.119C175.577 132.07 174.58 133.485 172.962 133.623C171.736 133.845 169.315 134.151 169.144 134.105C169.011 134.069 165.968 134.586 165.421 134.623C164.874 134.66 165.841 134.112 165.902 134.089C167.926 133.301 170.866 132.467 171.557 131.911L178.85 126.288C180.052 125.291 179.682 124.791 180.466 124.322C180.666 124.202 180.742 123.878 180.875 123.647C180.78 123.58 180.685 123.515 180.59 123.448C180.051 123.906 179.557 124.435 178.965 124.812C176.494 126.388 174.008 127.942 171.499 129.457C169.649 130.574 167.739 131.592 165.887 132.705C164.834 133.338 163.279 134.193 162.698 134.711C162.118 135.231 164.694 135.951 165.698 135.679Z" fill="#F5F5F5"/>
<path d="M142.116 141.845C141.462 141.845 136.815 145.074 136.371 145.371C136.01 145.611 135.805 145.928 135.738 146.24C135.741 146.504 135.83 146.756 136.06 146.927C136.287 146.685 139.679 143.798 142.1 143.526C142.348 143.487 142.66 143.467 142.992 143.453C143.84 143.359 144.819 143.325 145.63 143.294C145.954 143.281 146.291 143.272 146.611 143.261C147.219 143.143 147.715 142.988 148.02 142.874C147.326 142.548 145.617 142.151 145.111 142.007C144.539 141.845 142.353 141.697 142.116 141.845Z" fill="#F5F5F5"/>
<path d="M138.923 155.674C140.388 155.152 142.12 154.472 143.785 153.642C148.129 150.085 149.864 148.145 149.437 147.594C148.544 148.484 147.652 149.195 146.581 150.262C145.034 151.33 143.681 153.732 137.835 155.065C137.94 155.667 138.337 155.882 138.923 155.674Z" fill="#F5F5F5"/>
<path d="M159.41 144.721C159.457 144.565 159.51 144.411 159.564 144.256C159.77 143.678 159.899 143.056 160.202 142.535C160.642 141.78 160.114 141.293 159.829 140.751C159.398 139.93 158.857 139.654 157.92 139.867C157.095 140.056 156.317 140.443 155.498 140.675C154.472 140.966 154.243 141.966 153.661 142.646C153.588 142.732 153.689 143.052 153.801 143.193C154.914 144.604 156.26 145.629 158.17 145.653C158.796 145.642 159.225 145.343 159.41 144.721Z" fill="#F5F5F5"/>
<path d="M162.18 147.44C162.227 147.787 162.445 148.307 162.704 148.391C163.211 148.554 163.862 148.58 164.115 147.883C164.307 147.351 164.432 146.793 164.596 146.214C164.269 146.14 164.08 146.134 163.931 146.057C162.944 145.548 162.048 146.471 162.18 147.44Z" fill="#F5F5F5"/>
<path d="M158.417 146.465C157.702 146.421 156.509 147.266 155.969 148.406C156.299 148.396 156.588 148.356 156.851 148.302C157.502 148.112 158.336 147.771 158.874 147.628C158.7 147.185 158.567 146.848 158.417 146.465Z" fill="#F5F5F5"/>
<path d="M160.673 147.886C160.489 147.805 160.122 147.916 159.951 148.071C159.538 148.444 159.163 148.868 158.837 149.318C158.718 149.481 158.68 149.884 158.788 149.989C158.98 150.173 159.327 150.325 159.581 150.29C160.352 150.183 160.965 149.378 160.966 148.384C160.929 148.312 160.859 147.967 160.673 147.886Z" fill="#F5F5F5"/>
<path d="M162.415 144.38C162.423 144.38 162.432 144.38 162.441 144.379C162.441 144.101 162.349 143.22 162.25 143.178C162.146 143.131 161.95 143.195 161.84 143.274C161.433 143.57 160.96 144.982 161.153 145.417C161.253 145.642 161.577 145.997 161.656 145.963C161.926 145.844 162.172 145.593 162.338 145.363C162.463 145.079 162.398 144.712 162.415 144.38Z" fill="#F5F5F5"/>
<path d="M187.766 149.079C187.283 147.208 186.506 145.483 185.32 143.953C184.651 143.092 183.942 142.262 183.259 141.413C182.592 140.58 182.285 138.4 182.305 138.33C182.454 137.784 182.915 136.083 183.005 135.874C183.588 134.522 183.995 133.145 184.059 131.675C184.11 130.489 184.042 129.287 184.213 128.12C184.393 126.895 184.797 125.701 185.101 124.493C185.205 124.078 185.084 123.835 184.714 123.535C183.822 122.811 182.752 122.192 182.727 120.778C182.722 120.505 182.21 120.118 181.858 120.003C181.396 119.849 180.85 119.964 180.358 119.871C178.605 119.728 176.705 119.163 175.301 118.692C174.66 118.499 174.025 118.288 173.398 118.043C173.024 117.939 172.524 117.865 172.033 117.813C171.536 117.779 171.039 117.744 170.542 117.723C170.365 117.725 169.375 117.606 169.128 117.582C168.568 117.544 167.922 117.559 167.229 117.78C166.368 118.139 165.418 118.284 164.514 118.541C164.483 118.55 163.992 118.684 163.753 118.819C162.617 119.462 160.466 122.031 160.445 122.071C159.761 123.302 159.534 123.911 159.544 123.896C159.557 123.878 159.525 123.931 159.514 123.952C158.736 123.158 158.052 122.459 157.422 121.817C157.313 121.706 157.192 121.582 157.088 121.476C157.239 121.07 157.972 119.996 158.076 119.954C158.086 119.95 158.096 119.949 158.104 119.946C158.413 119.826 158.73 119.731 159.048 119.647C160.022 119.39 161.025 119.22 161.923 118.688C161.931 118.684 161.94 118.679 161.947 118.674C163.492 117.76 165.151 117.026 166.638 116.03C167.913 115.176 169.077 114.127 170.165 113.038C170.916 112.286 171.441 111.311 172.091 110.453C172.677 109.68 172.361 108.729 171.453 108.337C170.939 108.115 170.51 107.7 170.032 107.389C169.806 107.241 169.568 107.025 169.332 106.921C169.258 106.898 169.188 106.874 169.082 106.861C167.507 106.877 166.025 106.602 164.539 106.041C163.378 105.604 162.582 104.928 162.018 103.875C161.12 102.198 159.914 100.968 157.943 100.436C156.576 100.067 155.3 99.7342 153.91 100.148C153.512 100.266 153.245 100.124 153.314 99.6374C153.384 99.1337 153.384 98.6114 153.519 98.1247C154.223 95.5988 153.525 93.2422 152.675 90.9069C152.131 89.4113 151.123 88.0836 151.264 86.346C151.327 85.5819 150.528 84.8347 149.924 84.9614C149.201 85.1137 149.028 84.6953 148.847 84.1958C148.764 83.9681 148.673 83.7447 148.558 83.4473C147.727 83.8528 146.976 84.2243 146.221 84.5871C145.621 84.876 144.599 85.367 143.632 85.8224C142.78 86.2237 141.976 86.5936 141.543 86.7701C141.4 86.8285 141.293 86.8683 141.245 86.8783C140.835 86.9594 140.452 87.0761 140.091 87.2269C138.995 87.6823 138.113 88.4465 137.395 89.4569C137.272 89.6305 137.146 89.7301 137.008 89.7813C136.831 89.8468 136.631 89.8226 136.365 89.6902C134.982 88.9986 133.594 88.2942 132.153 87.7364C129.869 86.8526 127.592 87.0078 125.369 88.0494C124.016 88.6827 122.624 88.9175 121.262 88.0864C120.311 87.5058 119.38 86.8854 118.48 86.2293C118.105 85.9561 117.86 85.8295 117.673 85.865C117.482 85.902 117.351 86.1169 117.211 86.5325C117.205 86.5481 117.201 86.5538 117.195 86.5695C116.738 86.4585 116.467 86.43 116.301 86.5211C116.1 86.6335 116.06 86.9295 116.075 87.5215C116.08 87.6994 116.051 87.8773 116.034 88.0551C115.927 89.1552 115.683 90.2623 115.737 91.3552C115.856 93.7716 116.035 96.1922 116.355 98.5886C116.592 100.365 117.055 102.115 117.491 103.858C117.602 104.306 117.553 104.534 117.299 104.649C117.195 104.696 117.066 104.729 116.886 104.742C116.231 104.79 115.631 104.971 115.064 105.231C114.489 105.496 113.948 105.842 113.417 106.221C112.737 106.704 112.163 107.326 111.435 107.75C111.198 107.888 110.942 108.002 110.662 108.088C110.646 108.092 110.635 108.102 110.621 108.106C109.971 108.292 109.824 110.502 110.461 110.807C111.258 111.187 111.259 111.908 111.367 112.496C111.68 114.191 112.685 115.418 113.935 116.434C114.686 117.044 115.674 117.356 116.524 117.855C118.423 118.973 120.531 119.519 122.615 120.132C123.028 120.253 123.428 120.292 123.784 120.054C123.898 119.979 124.203 119.668 124.276 119.65C124.492 119.6 124.842 119.641 125.083 119.683C125.737 119.792 126.387 120.115 127.022 120.08C127.763 120.038 128.5 119.742 129.217 119.496C130.081 119.199 130.905 118.772 131.783 118.536C132.113 118.447 132.567 118.694 132.915 118.88C133.008 118.93 133.017 119.435 132.9 119.532C131.529 120.663 130.126 121.76 128.73 122.859C127.985 123.445 127.168 123.959 126.509 124.628C126.177 124.965 125.654 125.581 126.172 126.085C126.781 126.678 127.622 127.016 128.477 126.572C128.589 126.513 128.7 126.446 128.811 126.361C129.333 125.961 129.884 125.6 130.391 125.183C131.336 124.406 132.306 123.65 133.177 122.796C133.476 122.502 133.753 122.184 134.033 121.87C134.675 121.185 135.403 120.371 135.807 119.939C135.867 119.893 135.915 119.842 135.98 119.809C136.078 119.758 138.877 120.753 140.356 121.332C139.502 125.655 140.215 129.94 140.658 134.259C140.659 134.273 140.66 134.286 140.662 134.3C139.518 134.063 138.486 133.826 137.558 134.225C137.42 134.283 136.097 134.948 135.451 134.689C135.351 134.649 135.254 134.626 135.151 134.564C135.139 134.487 133.075 131.033 131.751 128.999C130.889 128 130.034 127.34 129.381 127.579C128.162 128.284 126.694 128.086 125.75 127.225C125.74 127.216 125.731 127.206 125.721 127.198C125.511 127.001 125.32 126.782 125.174 126.522C124.993 126.197 124.873 125.688 125 125.373C125.334 124.547 124.917 124.241 124.266 124.022C124.18 123.993 124.022 123.931 123.832 123.852C123.067 123.539 121.6 122.896 120.444 122.367C119.929 122.132 114.66 119.68 114.475 119.612C113.532 119.266 112.243 118.795 111.616 118.577C111.592 118.564 110.422 118.046 109.325 117.521C108.627 117.194 107.985 116.874 107.646 116.646C107.571 116.597 107.508 116.553 107.469 116.519C106.445 115.586 105.303 115.18 103.956 115.172C103.715 115.17 103.388 115.103 103.25 114.94C102.863 114.481 102.533 113.975 102.186 113.482C102.143 113.421 101.576 112.577 101.269 112.284C100.666 111.708 98.9328 110.234 98.7015 110.037C98.0875 109.513 97.4692 108.995 96.8752 108.449C96.2369 107.861 96.1712 106.61 96.7809 106.245C96.7981 106.235 96.818 106.229 96.8352 106.219C97.4192 105.879 98.0818 105.66 98.9129 105.298C97.8719 106.124 96.958 107.609 97.7148 108.147C97.8704 108.258 98.8015 109.104 99.4112 109.393C99.4426 109.314 99.484 109.215 99.5183 109.132C100.058 107.809 100.822 105.956 101.33 104.705C101.348 104.708 101.359 104.708 101.373 104.711C101.47 104.723 101.727 104.746 101.926 104.766C101.886 104.759 101.836 104.752 101.8 104.745C101.886 104.753 101.989 104.766 102.134 104.79C102.133 104.793 102.131 104.796 102.131 104.799C101.557 106.333 100.813 108.382 100.261 109.859C100.548 110.255 101.105 110.761 101.622 111.171C104.629 113.556 106.4 108.712 106.471 107.804C106.51 107.302 106.491 106.78 106.355 106.199C105.963 104.514 104.725 103.41 103.405 102.459C102.994 102.162 102.237 102.182 101.679 102.28C101.613 102.291 101.505 102.31 101.417 102.326C100.451 102.492 98.2917 102.861 96.9137 103.317C96.481 103.461 96.1526 103.613 95.9427 103.77C95.9127 103.793 95.8599 103.814 95.8356 103.837C94.9903 104.635 93.8008 105.24 94.0721 106.72C94.0735 106.726 94.0721 106.73 94.0735 106.736C94.0792 106.766 93.648 106.76 93.4995 106.684C92.567 106.213 89.971 105.12 89.6312 105.041C88.5573 104.792 87.5749 103.991 86.3697 104.447C86.3554 104.453 86.3369 104.437 86.3183 104.425C86.2469 104.373 86.1398 104.227 85.9756 104.174C85.947 104.166 85.9228 104.149 85.8913 104.147C85.9399 104.05 85.9542 103.952 85.9785 103.854C86.0656 103.5 85.9171 102.346 85.9042 102.132C85.8828 101.761 84.4391 99.6132 83.7794 98.9771C82.4828 97.7248 81.0649 97.4872 79.5641 98.166C79.3556 98.2599 79.1457 98.3738 78.9329 98.5033C78.9229 98.5089 78.9129 98.5132 78.9015 98.5203C78.6973 98.647 78.4503 98.7067 78.3161 98.7608C78.0533 98.4478 77.8891 98.2001 77.6778 98.0066C77.1052 97.4829 76.3112 97.0859 75.9728 96.4469C75.5001 95.5504 74.7447 95.0452 73.9708 94.6354C72.9427 94.0903 72.4557 93.1326 71.8717 92.2845C71.5461 91.812 71.7289 91.0094 71.6204 90.3662C71.3948 89.0299 71.1277 87.7008 70.8436 86.1838C70.865 86.1781 70.8807 86.1653 70.9007 86.1582C70.9364 86.1468 70.9621 86.1226 70.9964 86.1084C70.9892 86.0728 70.9835 86.0415 70.9764 86.0059C70.9978 86.0002 71.0135 85.9874 71.0335 85.9803C71.0306 85.9803 71.0378 86.0287 71.0463 86.0828C71.3733 85.9462 71.6447 85.737 71.8489 85.4652C71.8888 85.4125 71.9117 85.3485 71.9474 85.293C72.1473 84.9045 72.5 83.9766 72.3801 82.9606C71.9688 81.8278 71.5261 80.6951 70.9578 79.6349C70.7265 79.3275 70.4537 79.0287 70.1724 78.7469C69.6541 78.2502 69.0272 77.7109 68.6174 77.3253C68.4203 77.1445 68.2775 76.9994 68.2219 76.8998C67.8834 76.2935 67.5393 75.9776 66.8853 76.2267C66.8753 76.2309 66.8682 76.2281 66.8582 76.2323C66.297 76.4572 65.88 77.4548 66.0756 78.0126C66.4241 79.0045 66.8096 79.9835 67.1423 80.9811C67.4036 81.7638 67.7035 82.5536 67.8149 83.3633C67.9248 84.1659 68.7859 85.7398 68.7973 85.7612C68.913 85.9689 69.0629 86.2108 69.2486 86.504C69.2614 86.5253 69.2714 86.541 69.2857 86.5623C69.0286 86.4656 68.873 86.457 68.8159 86.3788C68.2804 85.6302 67.3337 85.2489 67.1966 84.1133C67.0709 83.0744 66.5626 82.0825 66.2227 81.0693C65.8914 80.0846 65.5801 79.0913 65.2103 78.1207C65.1318 77.9144 64.8447 77.6896 64.6306 77.6639C64.6034 77.6611 64.5706 77.6768 64.5363 77.6924C64.3892 77.7593 64.2007 77.9713 64.1465 78.1336C63.7181 79.4342 63.364 80.7249 63.4082 82.1452C63.4853 84.6768 65.5801 85.7854 67.545 85.6772C67.5993 85.7711 68.1376 86.4556 68.1676 86.494C69.1029 87.6994 69.2571 88.7012 68.8616 89.9848C68.7673 90.2922 68.6502 90.611 68.4932 90.9582C68.279 91.4335 68.5389 91.7722 69.1129 91.8519C69.8226 91.9501 70.0953 92.1621 70.3552 93.0757C70.261 93.0714 70.1082 93.0985 69.9368 93.1383C69.1215 93.3247 67.6321 93.9167 67.1495 94.1643C67.1438 94.1672 66.4997 94.5429 66.177 94.7521C66.1299 94.7876 66.0614 94.8261 66.0185 94.8602C64.7077 95.9161 65.96 96.7401 65.9771 96.8112C67.0995 96.538 68.5017 96.1979 69.5998 95.8507C70.5894 95.5376 71.3776 95.6771 72.093 96.437C72.3244 96.6817 73.9979 97.6295 74.4863 97.9796C74.8661 98.2514 75.6401 99.5051 75.8243 99.7356C76.454 100.52 75.9828 101.103 75.5787 101.722C75.4387 101.937 75.3031 102.149 75.1931 102.321C75.1846 102.336 75.1717 102.354 75.1631 102.368C74.6362 102.03 74.1664 101.62 73.6181 101.399C72.62 100.998 71.479 100.793 70.5723 101.375C70.558 101.385 70.5409 101.385 70.5251 101.395C69.8069 101.882 69.1572 102.72 68.873 103.539C68.0776 105.829 67.0081 107.965 65.7643 110.03C65.2232 110.929 65.2546 111.553 65.8443 112.056C66.1156 112.288 66.4512 112.452 66.6939 112.708C67.168 113.211 67.6907 113.141 68.1333 112.923C68.259 112.862 68.3789 112.791 68.4889 112.715C70.0639 111.632 71.6404 110.528 73.0683 109.266C74.4292 108.063 75.9999 106.892 75.8657 104.655C75.8843 104.672 75.9014 104.686 75.92 104.704C76.2998 105.044 76.6482 105.354 77.0066 105.674L77.0095 105.677C76.8952 105.735 76.7896 105.774 76.6939 105.812C76.574 105.862 76.474 105.91 76.4226 105.989C76.0256 106.595 75.6586 107.219 75.3074 107.853C74.5663 109.19 73.6367 110.316 72.2758 111.112C71.2748 111.696 70.3552 112.441 69.4742 113.199C69.1986 113.437 68.963 114.046 69.0843 114.321C69.2029 114.592 69.7883 114.686 70.1853 114.802C70.3295 114.843 70.5394 114.752 70.6908 114.669C70.6994 114.665 70.7079 114.659 70.7165 114.654C71.3619 114.295 71.9917 113.909 72.6371 113.552C73.9337 112.835 75.2445 112.142 76.5354 111.416C77.732 110.743 78.3018 109.558 78.6673 108.355C79.1514 106.758 78.456 105.483 77.1409 104.504C76.3369 103.905 76.3226 103.816 76.9024 102.965C77.0252 102.785 77.3051 102.56 77.4893 102.492C77.5464 102.471 77.5964 102.462 77.6249 102.478C77.8891 102.617 78.1904 102.983 78.1961 103.262C78.2347 105.17 80.0867 106.144 81.7003 105.822C81.7303 105.816 81.9473 105.866 82.2044 105.929C82.173 105.91 82.1444 105.892 82.1087 105.875C82.3743 105.936 82.6842 106.027 82.9112 106.098C82.8926 106.097 82.8655 106.094 82.8455 106.092C83.0169 106.137 83.1454 106.172 83.1597 106.175C83.1597 106.175 83.2339 106.193 83.3339 106.219L83.331 106.218C83.6452 106.292 84.3506 106.455 85.1545 106.653C85.0531 106.633 84.9489 106.622 84.8461 106.602C86.8838 107.12 90.0938 107.954 90.5393 108.176C90.9534 108.384 94.5762 110.628 94.6704 110.686C95.6871 111.308 98.83 114.154 99.1999 114.644C99.7197 115.331 100.102 115.904 100.586 116.622C100.729 116.834 101.23 117.801 101.173 117.978C100.928 118.743 100.758 119.535 100.595 120.323C100.181 122.325 100.799 124.197 101.423 126.047C101.686 126.826 101.727 127.259 100.842 127.955C100.157 128.494 99.8282 129.747 100.375 130.497C100.733 130.987 101.342 131.124 101.862 130.911C102.016 130.848 102.164 130.763 102.293 130.636C102.825 130.115 103.357 129.59 103.925 129.109C104.746 128.413 104.826 128.083 104.359 127.131C103.924 126.244 103.252 125.443 103.351 124.356C103.442 123.36 103.177 122.331 103.805 121.392C104.022 121.067 104.225 120.778 104.493 120.595C104.73 120.433 105.017 120.35 105.429 120.427C106.033 120.538 109.328 120.684 110.252 121.03C112.503 121.876 114.692 122.883 116.915 123.804C118.846 124.604 120.876 125.173 122.578 126.466C123.748 127.356 124.893 128.314 126.175 129.011C128.61 130.336 130.278 132.368 131.751 134.596C132.747 136.101 132.778 137.185 131.791 138.204C130.942 139.08 130.468 140.156 130.129 141.3C128.966 145.222 128.11 149.2 127.917 153.304C127.879 154.112 128.049 154.602 128.878 154.94C130.483 155.595 130.649 155.813 130.355 157.007C130.129 157.922 130.698 158.162 131.26 158.477C131.479 158.599 131.741 158.649 131.987 158.713C133.414 159.089 138.806 160.732 142.551 161.595C143.014 161.701 143.439 161.791 143.841 161.869C144.509 162 145.09 162.093 145.513 162.12C145.708 162.131 146.03 162.39 146.052 162.565C146.365 164.915 147.329 167.032 148.39 169.106C149.021 170.339 149.861 171.005 151.18 171.427C152.364 171.805 153.384 171.624 154.423 171.132C154.436 171.126 154.449 171.118 154.462 171.111C154.83 170.93 155.174 170.692 155.58 170.452L155.584 170.456C157.523 171.563 158.566 175.011 158.666 175.632C158.767 176.251 159.091 179.421 159.308 181.35C159.392 182.091 160.225 182.655 160.849 182.235C160.852 182.233 160.853 182.23 160.856 182.229C161.247 181.964 161.587 181.626 161.918 181.273L162.725 180.369C162.731 180.319 162.71 180.244 162.717 180.184C162.751 179.89 162.605 177.758 162.452 176.994C162.213 176.283 161.736 175.222 161.564 174.906C161.559 174.896 161.536 174.838 161.506 174.759C161.216 174.027 159.824 170.512 159.08 169.101C159.028 169.007 158.974 168.906 158.924 168.821C158.377 167.903 158.516 167.095 159.224 166.314C160.363 165.057 161.33 163.678 161.717 161.987C161.786 161.687 161.92 161.474 162.108 161.346C162.263 161.24 162.452 161.188 162.69 161.215C163.532 161.31 164.413 161.358 165.196 161.644C166.089 161.972 167.015 161.912 167.76 161.492C168.2 161.245 169.188 159.703 169.377 159.378C170.388 157.626 172.26 156.497 172.888 154.469C172.895 154.471 172.922 154.471 172.932 154.472C172.982 154.477 173.068 154.481 173.194 154.484C173.638 154.495 174.487 154.498 175.383 154.492C176.261 154.486 177.17 154.474 177.753 154.452C180.105 154.367 182.492 154.462 184.676 153.358C184.684 153.354 184.691 153.348 184.7 153.344C185.28 153.043 185.772 152.554 186.371 152.309C187.787 151.731 188.143 150.542 187.766 149.079ZM102.26 104.614C102.216 104.607 102.139 104.598 102.051 104.59C102.012 104.583 101.962 104.575 101.926 104.568C102.013 104.577 102.116 104.59 102.26 104.614ZM82.9826 105.915C82.7941 105.865 82.5557 105.804 82.34 105.751C82.3086 105.732 82.2786 105.714 82.2444 105.697C82.51 105.758 82.8198 105.849 83.0469 105.92C83.0297 105.919 83.0026 105.916 82.9826 105.915ZM83.2853 103.438C83.2425 103.559 83.2025 103.652 83.1768 103.649C83.164 103.648 83.1483 103.646 83.1354 103.643C83.1283 103.652 83.1168 103.682 83.1111 103.682C82.4214 103.591 81.5775 103.549 81.1134 103.14C80.4194 102.528 79.9782 101.638 79.467 100.846L79.5798 99.8267C79.5998 99.8125 79.6112 99.794 79.6326 99.7812C79.744 99.7043 79.8825 99.6431 80.0525 99.6047C81.676 99.2361 83.6709 99.7513 83.5724 102.54C83.4824 102.798 83.3724 103.197 83.2853 103.438ZM84.9846 106.423C84.2835 106.245 83.7337 106.107 83.4724 106.041L83.471 106.04C83.7837 106.114 84.4905 106.277 85.293 106.474C85.1902 106.454 85.0874 106.443 84.9846 106.423ZM178.518 121.511C178.895 121.642 179.374 121.45 179.798 121.491C179.374 121.45 179.052 121.682 178.518 121.511C178.386 121.469 178.109 121.365 177.737 121.23C177.997 121.325 178.256 121.42 178.518 121.511ZM143.741 119.518C143.711 118.924 144.106 118.642 144.842 118.628C146.259 118.601 146.975 118.463 147.746 118.869C149.558 119.822 151.509 120.5 153.371 121.338C155.411 122.256 157.32 123.576 158.783 125.344C159.581 126.308 160.049 127.467 160.275 128.738C160.688 131.057 160.343 133.185 159.085 135.2C158.833 135.605 158.566 135.874 158.24 136.034C157.923 136.206 157.549 136.268 157.065 136.233C156.862 136.217 156.658 136.214 156.455 136.209C155.248 136.194 153.708 136.424 152.455 137.552C151.911 138.043 151.68 138.826 151.257 139.442C151.132 139.625 150.782 139.997 150.583 140.094C150.559 140.108 150.104 140.125 149.458 140.106C148.264 140.18 147.088 140.057 145.992 139.637C145.728 139.554 145.486 139.459 145.277 139.348C143.829 138.57 142.884 137.24 142.494 135.527C141.801 132.482 141.58 129.384 141.31 126.293C141.293 126.099 141.289 125.864 141.29 125.617C141.29 125.54 141.29 125.462 141.293 125.385C141.306 124.941 141.346 124.45 141.406 123.966C141.437 123.666 141.556 122.997 141.556 123M124.3 119.535C124.28 119.562 124.258 119.58 124.236 119.604C124.121 119.705 123.985 119.834 123.916 119.879C124.031 119.804 124.14 119.703 124.243 119.565C124.276 119.52 124.335 119.493 124.409 119.476C124.368 119.491 124.322 119.505 124.3 119.535ZM133.758 114.208C133.629 114.272 133.456 114.339 133.219 114.424C131.33 115.11 129.705 114.813 128.387 113.231C128.276 113.097 128.11 113.011 127.969 112.902C127.892 112.912 127.815 112.922 127.739 112.93C127.752 113.169 127.686 113.474 127.809 113.623C128.54 114.518 129.318 115.376 130.082 116.246C130.202 116.383 130.334 116.509 130.421 116.6C130.398 116.605 130.375 116.61 130.352 116.616C130.355 116.62 130.362 116.626 130.365 116.629C128.526 117.006 126.762 117.512 124.966 117.697C123.014 117.898 121.14 117.195 119.278 116.677C117.896 116.293 116.632 115.724 115.517 114.927C114.776 114.397 114.103 113.761 113.509 113.007C113.428 112.903 113.341 112.806 113.262 112.698C112.441 111.566 112.678 109.291 113.836 108.539C114.825 107.895 115.898 107.38 116.935 106.813C116.938 106.811 116.941 106.811 116.944 106.81C116.959 106.801 116.976 106.793 116.992 106.784C117.079 106.736 117.194 106.739 117.281 106.69C118.507 106.008 119.213 106.223 119.938 107.424C120.097 107.688 120.458 107.829 120.726 108.028C121.163 108.352 121.604 108.671 122.036 109.004C122.38 109.269 122.693 109.578 123.051 109.819C123.886 110.382 124.697 110.236 125.458 109.829C125.567 109.77 125.676 109.704 125.783 109.634C126.976 108.856 128.099 107.964 129.31 107.215C129.325 107.205 129.341 107.202 129.357 107.194C129.36 107.192 129.364 107.19 129.367 107.187C130.602 106.423 131.953 106.36 133.287 106.958C133.436 107.025 133.525 107.436 133.488 107.665C133.409 108.162 133.152 108.637 133.112 109.134C132.995 110.549 132.99 111.941 133.781 113.243C134.149 113.859 134.169 114.02 133.758 114.208ZM133.752 106.201C133.578 106.29 133.367 106.303 133.072 106.215C131.167 105.644 129.395 105.698 127.799 106.563C127.268 106.858 126.757 107.244 126.267 107.728C125.825 108.163 125.27 108.507 124.717 108.799C124.707 108.805 124.696 108.808 124.686 108.813C124.677 108.818 124.67 108.823 124.662 108.828C124.159 109.094 123.661 109.203 123.065 108.789C121.69 107.831 120.559 106.707 119.844 105.173C119.544 104.53 119.116 103.945 118.767 103.323C117.952 101.869 117.736 100.251 117.505 98.6384C117.248 96.844 116.959 95.0523 116.734 93.2536C116.664 92.6915 116.747 92.108 116.768 91.5345C116.805 90.574 116.862 89.6148 116.886 88.6542C116.892 88.4166 116.898 88.2601 117.004 88.2003C117.066 88.1163 117.199 88.1078 117.501 88.2088C119.547 88.899 121.616 89.5237 123.696 90.1058C124.566 90.3491 125.407 90.0745 126.21 89.666C126.695 89.4184 127.223 89.1879 127.758 89.111C128.664 88.9787 129.627 88.7894 130.499 88.9602C131.683 89.1922 132.79 89.7813 133.953 90.1399C135.299 90.5555 136.191 91.5388 137.046 92.5349C137.34 92.8765 137.345 93.4656 137.48 93.9423C137.263 95.7411 136.312 97.2054 135.66 98.7736C135.633 98.8391 135.563 98.9302 135.508 98.933C135.501 98.933 135.497 98.9359 135.49 98.9359C135.477 98.9444 135.464 98.9601 135.451 98.9615C135.314 98.9714 135.2 98.9928 135.104 99.0255C134.493 99.2817 134.713 100.002 134.769 100.446C134.886 101.362 135.284 102.239 135.511 103.147C135.57 103.379 135.488 103.696 135.366 103.912C135.006 104.546 134.585 105.145 134.202 105.767C134.068 105.987 133.929 106.131 133.752 106.201ZM136.241 110.382C136.228 110.293 136.21 110.204 136.181 110.037C135.481 110.508 135.698 111.234 135.503 111.802C135.311 112.358 135.049 112.889 134.732 113.397C134.726 113.38 134.723 113.364 134.717 113.349C134.702 113.374 134.69 113.401 134.675 113.425C134.048 111.637 134.512 110.036 135.53 108.618C136.151 107.753 136.958 106.985 137.799 106.322C137.949 106.203 138.116 106.104 138.289 106.014C138.768 105.757 139.324 105.594 139.842 105.405C140.346 105.2 140.298 104.96 139.872 104.726C139.405 104.47 139.367 104.154 139.517 103.7C139.762 102.96 139.969 102.206 140.202 101.429L137.056 102.513C137.035 102.523 137.022 102.532 136.999 102.542C136.999 102.119 136.926 101.746 137.012 101.418C137.359 100.099 137.73 98.7836 138.139 97.4815C138.69 95.7254 139.111 94.0163 138.234 92.1991C137.665 91.0179 137.76 90.86 138.881 89.9905C139.648 89.3957 140.616 89.0413 141.33 88.3967C141.674 88.085 142.044 87.8488 142.431 87.6595L146.052 86.6065C146.775 86.4015 147.56 86.3745 148.317 86.3631C148.647 86.3574 149.104 86.5012 149.287 86.7416C149.747 87.3436 150.385 87.7876 150.58 88.6414C150.8 89.5963 151.353 90.4701 151.703 91.4022C152.043 92.3044 152.444 93.2166 152.572 94.1586C152.685 94.9897 152.498 95.872 152.373 96.7202C152.25 97.5484 152.128 98.3965 151.841 99.1749C151.53 100.019 151.043 100.801 150.598 101.591C150.375 101.988 150.074 102.341 149.787 102.743C149.844 102.818 149.906 102.893 149.962 102.973C150.478 103.714 150.983 103.985 151.466 103.796C151.744 103.665 152.014 103.386 152.274 102.945C152.525 102.518 152.718 101.948 153.102 101.728C153.118 101.718 153.137 101.714 153.152 101.705C153.155 101.704 153.157 101.701 153.159 101.699C153.938 101.253 154.817 101.125 155.748 101.393C156.878 101.719 158.079 101.869 158.965 102.735C159.334 103.095 159.695 103.505 159.918 103.962C160.626 105.419 161.733 106.393 163.236 106.965C164.142 107.309 165.027 107.709 165.931 108.058C166.261 108.186 166.618 108.315 166.962 108.315C168.19 108.317 169.254 108.682 170.145 109.627C169.594 111.735 167.942 112.935 166.251 114.19C165.264 114.923 164.219 115.52 163.141 116.051C162.061 116.585 160.95 117.051 159.831 117.512C158.286 118.15 156.728 117.867 155.153 117.623C153.274 117.333 151.913 116.178 150.509 115.062C149.934 114.605 149.347 114.153 148.721 113.768C148.154 113.42 148.06 113.127 148.493 112.565C149.174 111.678 149.862 110.77 150.362 109.78C150.543 109.421 150.705 109.05 150.83 108.671C151.276 106.588 149.445 105.563 148.975 105.381C148.907 105.382 148.686 105.337 148.417 105.337C147.97 105.337 146.501 106.299 145.101 107.096C145.084 107.107 145.06 107.12 145.043 107.131C144.55 107.454 144.583 107.873 144.652 108.341C144.823 109.502 144.971 110.658 144.589 111.816C144.268 112.785 143.659 113.529 142.882 113.985C142.13 114.444 141.209 114.624 140.229 114.453C137.907 114.052 136.584 112.7 136.241 110.382ZM140.029 118.479C139.942 118.42 139.872 118.351 139.802 118.281C139.591 118.07 139.455 117.818 139.445 117.521C139.441 117.383 139.461 117.239 139.511 117.086C139.597 116.825 139.749 116.629 139.927 116.464C140.025 116.371 140.124 116.276 140.241 116.22C140.561 116.047 140.946 116.015 141.334 116.193C142.647 116.794 143.901 116.525 145.073 115.96C145.741 115.627 146.311 115.035 146.824 114.469C146.958 114.321 147.078 114.222 147.192 114.155C147.503 113.939 147.766 114.006 148.106 114.427C148.7 115.164 149.244 115.993 149.986 116.548C151.126 117.402 152.397 118.093 153.649 118.783C154.446 119.222 155.326 119.51 156.144 119.913C156.551 120.114 156.886 120.408 156.689 120.915C156.669 120.968 156.672 121.009 156.639 121.066C156.624 121.066 156.609 121.063 156.594 121.063C156.588 121.074 156.591 121.083 156.584 121.094C154.703 121.12 153.424 119.769 151.847 119.099C151.603 118.995 151.36 118.89 151.117 118.785C149.939 118.272 148.763 117.749 147.543 117.357C146.185 116.921 144.799 117.339 143.488 117.734C143.335 117.78 143.185 117.844 143.038 117.91C143.015 117.921 142.989 117.927 142.967 117.938C142.458 118.186 141.977 118.524 141.503 118.836C141.42 118.89 141.343 118.928 141.269 118.954C140.726 119.187 140.398 118.728 140.029 118.479ZM185.571 150.17C185.371 150.75 184.77 151.351 184.193 151.612C181.511 152.826 178.704 153.45 175.724 153.071C175.024 152.981 174.3 153.072 173.588 153.1C173.068 153.12 172.914 152.951 172.881 152.385C172.834 151.561 172.664 150.714 172.37 149.943C172.097 149.23 171.384 148.894 170.63 148.853C169.224 148.776 167.869 148.833 166.646 149.775C165.77 150.451 164.904 150.264 164.049 149.594C163.895 149.473 163.522 149.472 163.341 149.574C162.353 150.133 161.393 150.744 160.413 151.343C161.063 152.934 160.969 153.179 159.397 154.172C159.077 154.374 158.794 154.649 158.537 154.93C157.894 155.635 157.18 156.302 156.675 157.096C156.169 157.892 156.438 158.662 156.998 159.474C157.727 160.536 158.778 160.741 160.016 161.004C159.542 161.74 159.167 162.439 158.681 163.05C157.632 164.371 156.595 165.713 155.418 166.917C154.577 167.778 153.578 168.525 152.545 169.151C151.292 169.911 151.016 169.73 150.265 168.599C149.317 167.17 148.601 165.582 147.843 164.035C147.679 163.701 147.705 163.24 147.756 162.853C147.775 162.713 149.19 162.208 149.487 161.923C149.635 161.781 149.775 161.627 149.921 161.481C149.821 161.57 151.494 160.072 151.858 159.012C151.86 159.009 151.861 159.005 151.863 159.002C151.947 158.757 152.017 158.502 152.111 158.265C152.433 157.466 152.655 156.604 153.114 155.892C153.144 155.845 153.188 155.806 153.222 155.76C153.231 155.746 153.238 155.729 153.248 155.715C153.241 155.725 153.235 155.743 153.229 155.753C153.575 155.315 154.112 154.983 154.604 154.68C155.311 154.246 156.095 153.934 156.811 153.515C157.338 153.206 157.376 152.696 156.865 152.426C153.845 150.831 153.121 148.064 152.958 144.99C152.909 144.077 152.056 143.515 151.217 143.842C151.169 143.86 150.158 144.156 149.584 144.343C149.352 144.545 147.986 144.933 147.695 145.053C147.649 145.074 147.413 145.195 147.312 145.255C147.315 145.269 147.318 145.282 147.322 145.296C146.18 146.009 141.464 148.843 140.656 149.272C139.705 149.778 135.411 151.77 134.258 152.34C133.891 152.523 133.482 152.671 133.812 153.459C135.37 153.079 137.586 152.19 139.23 151.388C141.664 149.669 148.384 145.756 148.953 145.471C149.438 145.228 149.976 145.037 150.485 144.807C150.549 144.859 150.612 144.912 150.676 144.965C150.438 145.402 150.408 145.757 150.259 146.321C150.111 147.003 150.095 147.383 150.243 147.994C150.633 149.601 151.117 151.186 151.581 152.776C151.968 154.099 152.23 155.433 151.353 156.651C150.872 157.321 150.241 157.885 149.692 158.508C148.974 159.325 148.062 159.762 147.022 160.056C145.541 160.475 144.165 160.133 142.775 159.692C140.91 159.099 139.024 158.574 137.181 157.923C136.328 157.621 135.467 157.684 134.616 157.55C133.921 157.441 133.218 157.273 132.568 157.01C132.263 156.886 131.887 156.49 131.861 156.191C131.73 154.63 131.25 153.404 129.308 153.241C129.651 151.535 129.887 149.94 130.308 148.394C130.746 146.782 131.31 145.197 131.916 143.637C132.794 141.372 134.447 139.765 136.439 138.409C137.833 137.46 139.264 137.354 140.803 137.741C141.076 137.81 141.402 138.013 141.532 138.248C142.898 140.698 145.304 141.063 147.742 141.382C149.118 141.562 150.493 141.73 151.741 142.425C151.888 142.506 152.283 142.39 152.401 142.24C152.887 141.629 153.288 140.952 153.761 140.33C154.642 139.171 155.768 138.599 157.272 138.904C157.782 139.006 158.319 138.977 158.935 139.012C158.96 138.78 159.054 138.244 159.051 138.228C159.048 138.182 158.945 137.487 159.491 136.278C160.658 133.696 162.27 131.53 161.617 128.607C161.431 127.776 161.104 126.976 160.902 126.148C160.792 125.698 160.615 125.124 160.795 124.77C161.349 123.672 161.881 122.465 162.748 121.642C164.046 120.411 165.821 119.969 167.596 119.772C169.432 119.569 171.23 119.979 173.048 120.157C173.358 120.186 173.698 120.249 174.045 120.323C174.389 120.396 174.741 120.488 175.094 120.586C175.433 120.68 175.77 120.778 176.102 120.889C176.394 120.983 176.678 121.079 176.936 121.17C176.958 121.177 176.978 121.184 176.998 121.191C177.188 121.261 177.379 121.328 177.57 121.397C177.583 121.402 177.597 121.407 177.61 121.412C177.87 121.507 178.129 121.602 178.391 121.693C178.768 121.824 179.247 121.632 179.671 121.674C180.228 121.728 180.776 121.866 181.43 121.985C181.356 123.151 182.02 123.901 182.926 124.507C183.302 124.757 183.383 125.07 183.271 125.561C182.871 127.296 182.634 129.035 182.875 130.849C182.999 131.789 182.772 132.822 182.5 133.752C182.035 135.336 181.429 136.882 180.837 138.427C180.696 138.796 180.443 139.18 180.133 139.415C178.887 140.364 177.557 141.261 176.012 141.554C174.943 141.757 173.802 141.534 172.942 140.68C172.448 140.189 171.964 139.688 171.476 139.19C170.373 138.066 169.015 138.128 167.622 138.366C167.396 138.404 167.178 138.488 166.955 138.545C166.079 138.772 165.314 138.903 164.504 138.133C163.812 137.474 162.854 137.024 161.796 137.065C161.276 137.085 160.85 138.884 160.813 139.282C162.013 140.438 163.388 141.426 164.299 142.732C165.273 144.129 165.867 145.816 165.473 147.636C165.42 147.878 165.384 148.123 165.334 148.401C165.604 148.401 165.831 148.465 165.997 148.392C167.106 147.895 168.209 147.381 169.297 146.84C169.448 146.765 169.581 146.519 169.599 146.339C169.704 145.305 169.782 144.302 169.084 143.358C168.316 142.319 167.862 141.054 166.781 140.232C166.644 140.128 166.625 139.87 166.554 139.687C167.345 139.268 167.959 139.365 168.648 139.964C169.532 140.73 170.38 141.555 171.341 142.211C172.033 142.684 172.855 143.079 173.67 143.233C175.707 143.616 177.613 143.091 179.391 142.067C179.658 141.914 179.959 141.803 180.189 141.608C180.632 141.232 180.963 141.394 181.326 141.726C182.231 142.553 183.084 143.401 183.582 144.563C184.12 145.819 184.804 147.013 185.317 148.276C185.548 148.858 185.76 149.627 185.571 150.17Z" fill="#F5F5F5"/>
<path d="M139.533 109.895C139.417 109.751 138.977 109.354 138.883 109.394C138.783 109.435 138.088 110.491 138.966 111.235C139.103 111.352 139.539 111.268 139.584 111.201C139.744 110.972 139.637 110.093 139.513 109.912C139.52 109.905 139.526 109.899 139.533 109.895Z" fill="#F5F5F5"/>
<path d="M143.127 111.867C142.954 111.426 142.821 111.088 142.671 110.706C141.918 111.076 141.413 110.422 140.938 111.697C141.919 112.025 142.26 112.1 143.127 111.867Z" fill="#F5F5F5"/>
<path d="M141.926 101.269C142.997 100.735 145.491 101.872 146.21 102.202C147.37 102.736 147.906 103.314 147.816 104.381C147.727 105.448 146.075 106.072 145.496 106.249C144.916 106.427 143.622 106.739 142.774 106.471C141.926 106.204 141.167 105.226 140.989 103.847C140.789 102.308 140.855 101.802 141.926 101.269Z" fill="#F5F5F5"/>
<path d="M94.6598 234.576C94.5898 234.576 94.5392 234.549 94.5081 234.494C94.477 234.44 94.4615 234.382 94.4615 234.319C94.4692 234.187 94.5004 234.113 94.5548 234.098C94.6092 234.082 94.6753 234.074 94.7531 234.074C95.0019 234.074 95.1769 234.032 95.278 233.946C95.3791 233.853 95.4413 233.74 95.4646 233.608C95.4957 233.468 95.5113 233.324 95.5113 233.176V228.545C95.5113 228.398 95.4957 228.258 95.4646 228.126C95.4413 227.986 95.3791 227.873 95.278 227.787C95.1769 227.694 95.0019 227.647 94.7531 227.647C94.6753 227.647 94.6092 227.64 94.5548 227.624C94.5004 227.608 94.4692 227.535 94.4615 227.402C94.4615 227.34 94.477 227.282 94.5081 227.227C94.5392 227.173 94.5898 227.146 94.6598 227.146C94.9164 227.154 95.1536 227.161 95.3713 227.169C95.589 227.177 95.8145 227.181 96.0478 227.181H97.8675C98.614 227.181 99.2905 227.329 99.8971 227.624C100.504 227.92 100.986 228.343 101.343 228.895C101.701 229.448 101.88 230.116 101.88 230.902C101.88 231.524 101.76 232.064 101.518 232.523C101.277 232.982 100.955 233.363 100.55 233.666C100.146 233.962 99.691 234.183 99.1856 234.331C98.6879 234.471 98.1785 234.541 97.6575 234.541H96.0478C95.8145 234.541 95.589 234.541 95.3713 234.541C95.1536 234.549 94.9164 234.56 94.6598 234.576ZM97.8325 234.109C98.4624 234.109 98.9717 233.977 99.3605 233.713C99.7493 233.441 100.029 233.064 100.2 232.581C100.379 232.099 100.469 231.539 100.469 230.902C100.469 230.264 100.356 229.696 100.13 229.199C99.9049 228.701 99.5744 228.312 99.1389 228.032C98.7112 227.745 98.1902 227.601 97.5759 227.601C97.4515 227.601 97.2882 227.605 97.086 227.612C96.8838 227.612 96.7438 227.612 96.666 227.612V233.316C96.666 233.627 96.7594 233.837 96.946 233.946C97.1404 234.055 97.4359 234.109 97.8325 234.109ZM105.654 234.681C105.055 234.681 104.55 234.553 104.138 234.296C103.733 234.039 103.43 233.697 103.228 233.27C103.026 232.842 102.924 232.375 102.924 231.87C102.924 231.528 102.983 231.197 103.099 230.878C103.224 230.552 103.399 230.256 103.624 229.992C103.85 229.72 104.122 229.506 104.441 229.35C104.76 229.195 105.121 229.117 105.526 229.117C106.241 229.117 106.778 229.304 107.135 229.677C107.501 230.042 107.711 230.509 107.765 231.077C107.765 231.349 107.687 231.528 107.532 231.613C107.384 231.699 107.19 231.742 106.949 231.742H104.114C104.114 232.193 104.176 232.597 104.301 232.955C104.425 233.305 104.62 233.585 104.884 233.794C105.156 233.997 105.514 234.098 105.957 234.098C106.284 234.098 106.564 234.028 106.797 233.888C107.03 233.748 107.256 233.503 107.474 233.153C107.536 233.075 107.621 233.071 107.73 233.141C107.792 233.172 107.831 233.223 107.847 233.293C107.862 233.355 107.855 233.41 107.824 233.456C107.582 233.837 107.279 234.137 106.914 234.354C106.548 234.572 106.128 234.681 105.654 234.681ZM104.114 231.298H106.016C106.202 231.298 106.35 231.263 106.459 231.193C106.575 231.116 106.638 230.987 106.645 230.808C106.645 230.474 106.552 230.179 106.365 229.922C106.187 229.658 105.907 229.525 105.526 229.525C105.137 229.525 104.81 229.681 104.546 229.992C104.289 230.303 104.145 230.738 104.114 231.298ZM110.844 234.681C110.245 234.681 109.744 234.576 109.339 234.366C108.943 234.148 108.744 233.837 108.744 233.433C108.744 233.207 108.811 233.025 108.943 232.885C109.083 232.745 109.262 232.675 109.479 232.675C109.619 232.675 109.732 232.714 109.818 232.791C109.911 232.861 109.958 232.912 109.958 232.943C109.958 232.966 109.911 233.021 109.818 233.106C109.732 233.184 109.689 233.312 109.689 233.491C109.689 233.709 109.79 233.892 109.993 234.039C110.203 234.179 110.517 234.249 110.937 234.249C111.303 234.249 111.587 234.172 111.789 234.016C111.999 233.853 112.104 233.627 112.104 233.34C112.104 233.106 112.026 232.927 111.871 232.803C111.723 232.671 111.528 232.566 111.287 232.488C111.054 232.41 110.801 232.333 110.529 232.255C110.265 232.177 110.012 232.08 109.771 231.963C109.53 231.847 109.332 231.687 109.176 231.485C109.028 231.275 108.954 230.999 108.954 230.657C108.954 230.307 109.059 230.019 109.269 229.794C109.479 229.568 109.748 229.401 110.074 229.292C110.401 229.175 110.731 229.117 111.066 229.117C111.353 229.117 111.626 229.16 111.882 229.245C112.139 229.323 112.349 229.444 112.512 229.607C112.683 229.77 112.769 229.976 112.769 230.225C112.769 230.42 112.706 230.595 112.582 230.75C112.458 230.906 112.287 230.983 112.069 230.983C111.929 230.983 111.812 230.948 111.719 230.878C111.633 230.801 111.591 230.746 111.591 230.715C111.591 230.7 111.618 230.672 111.672 230.633C111.734 230.587 111.793 230.528 111.847 230.458C111.902 230.381 111.929 230.283 111.929 230.167C111.913 229.941 111.804 229.774 111.602 229.665C111.4 229.556 111.175 229.502 110.926 229.502C110.654 229.502 110.401 229.568 110.168 229.7C109.934 229.832 109.818 230.023 109.818 230.272C109.818 230.497 109.864 230.672 109.958 230.797C110.059 230.921 110.214 231.03 110.424 231.123C110.642 231.209 110.922 231.306 111.264 231.415C111.606 231.524 111.906 231.637 112.162 231.753C112.427 231.87 112.629 232.025 112.769 232.22C112.916 232.406 112.99 232.663 112.99 232.99C112.99 233.316 112.897 233.608 112.71 233.864C112.524 234.121 112.267 234.323 111.941 234.471C111.622 234.611 111.256 234.681 110.844 234.681ZM116.401 234.681C115.965 234.681 115.561 234.564 115.187 234.331C114.814 234.098 114.515 233.771 114.289 233.351C114.064 232.931 113.951 232.445 113.951 231.893C113.951 231.411 114.064 230.96 114.289 230.54C114.523 230.112 114.841 229.77 115.246 229.514C115.658 229.249 116.124 229.117 116.645 229.117C116.894 229.117 117.139 229.148 117.38 229.21C117.621 229.265 117.827 229.343 117.999 229.444H118.034V227.659C118.034 227.519 118.026 227.391 118.01 227.274C118.002 227.15 117.96 227.052 117.882 226.982C117.804 226.905 117.656 226.866 117.439 226.866C117.369 226.866 117.303 226.858 117.24 226.842C117.186 226.819 117.159 226.749 117.159 226.633C117.159 226.516 117.221 226.446 117.345 226.423C117.703 226.368 117.975 226.314 118.162 226.259C118.356 226.205 118.504 226.158 118.605 226.119C118.706 226.08 118.796 226.057 118.873 226.049C118.936 226.042 118.986 226.053 119.025 226.084C119.072 226.115 119.095 226.178 119.095 226.271V233.468C119.095 233.927 119.398 234.156 120.005 234.156C120.09 234.156 120.145 234.179 120.168 234.226C120.191 234.265 120.203 234.304 120.203 234.343C120.203 234.452 120.137 234.518 120.005 234.541L118.15 234.669C118.096 234.669 118.065 234.646 118.057 234.599C118.049 234.553 118.045 234.498 118.045 234.436V233.969H118.01C117.816 234.172 117.571 234.343 117.275 234.483C116.988 234.615 116.696 234.681 116.401 234.681ZM116.797 234.098C117.093 234.098 117.338 234.039 117.532 233.923C117.726 233.798 117.894 233.662 118.034 233.515V230.435C117.995 230.303 117.921 230.171 117.812 230.039C117.711 229.899 117.571 229.782 117.392 229.689C117.221 229.588 117.011 229.537 116.762 229.537C116.311 229.537 115.93 229.751 115.619 230.179C115.308 230.598 115.152 231.189 115.152 231.952C115.152 232.317 115.211 232.667 115.327 233.001C115.452 233.328 115.635 233.592 115.876 233.794C116.117 233.997 116.424 234.098 116.797 234.098ZM123.447 234.681C122.848 234.681 122.343 234.553 121.93 234.296C121.526 234.039 121.223 233.697 121.021 233.27C120.818 232.842 120.717 232.375 120.717 231.87C120.717 231.528 120.776 231.197 120.892 230.878C121.017 230.552 121.192 230.256 121.417 229.992C121.643 229.72 121.915 229.506 122.234 229.35C122.552 229.195 122.914 229.117 123.318 229.117C124.034 229.117 124.57 229.304 124.928 229.677C125.294 230.042 125.504 230.509 125.558 231.077C125.558 231.349 125.48 231.528 125.325 231.613C125.177 231.699 124.983 231.742 124.742 231.742H121.907C121.907 232.193 121.969 232.597 122.094 232.955C122.218 233.305 122.413 233.585 122.677 233.794C122.949 233.997 123.307 234.098 123.75 234.098C124.077 234.098 124.357 234.028 124.59 233.888C124.823 233.748 125.049 233.503 125.266 233.153C125.329 233.075 125.414 233.071 125.523 233.141C125.585 233.172 125.624 233.223 125.64 233.293C125.655 233.355 125.647 233.41 125.616 233.456C125.375 233.837 125.072 234.137 124.707 234.354C124.341 234.572 123.921 234.681 123.447 234.681ZM121.907 231.298H123.808C123.995 231.298 124.143 231.263 124.252 231.193C124.368 231.116 124.43 230.987 124.438 230.808C124.438 230.474 124.345 230.179 124.158 229.922C123.979 229.658 123.7 229.525 123.318 229.525C122.93 229.525 122.603 229.681 122.339 229.992C122.082 230.303 121.938 230.738 121.907 231.298ZM129.636 234.541C129.488 234.541 129.383 234.502 129.321 234.424C129.259 234.347 129.228 234.246 129.228 234.121C129.243 233.942 129.294 233.802 129.379 233.701C129.465 233.6 129.593 233.495 129.764 233.386C130.052 233.192 130.355 232.982 130.674 232.756C130.993 232.531 131.292 232.282 131.572 232.01C131.852 231.73 132.078 231.423 132.249 231.088C132.428 230.754 132.517 230.377 132.517 229.957C132.517 229.584 132.416 229.296 132.214 229.094C132.019 228.884 131.743 228.779 131.386 228.779C131.09 228.779 130.841 228.853 130.639 229C130.437 229.148 130.336 229.358 130.336 229.63C130.336 229.762 130.367 229.875 130.429 229.969C130.491 230.054 130.554 230.124 130.616 230.179C130.686 230.225 130.721 230.256 130.721 230.272C130.721 230.311 130.674 230.373 130.581 230.458C130.488 230.544 130.355 230.587 130.184 230.587C129.935 230.587 129.741 230.509 129.601 230.353C129.461 230.198 129.391 230.007 129.391 229.782C129.391 229.448 129.5 229.175 129.718 228.965C129.943 228.755 130.215 228.604 130.534 228.511C130.861 228.409 131.18 228.359 131.491 228.359C131.833 228.359 132.167 228.417 132.494 228.534C132.828 228.643 133.1 228.825 133.31 229.082C133.528 229.339 133.637 229.681 133.637 230.109C133.637 230.466 133.555 230.793 133.392 231.088C133.236 231.376 133.03 231.64 132.774 231.882C132.517 232.123 132.237 232.344 131.934 232.546C131.638 232.749 131.343 232.939 131.047 233.118C130.752 233.297 130.491 233.476 130.266 233.655V233.713H133.392C133.548 233.713 133.68 233.732 133.789 233.771C133.897 233.802 133.952 233.919 133.952 234.121C133.952 234.401 133.816 234.541 133.544 234.541H129.636ZM137.839 234.774C137.209 234.774 136.688 234.623 136.276 234.319C135.863 234.008 135.556 233.608 135.354 233.118C135.16 232.628 135.062 232.107 135.062 231.555C135.062 230.995 135.16 230.474 135.354 229.992C135.556 229.502 135.863 229.109 136.276 228.814C136.688 228.511 137.209 228.359 137.839 228.359C138.445 228.359 138.954 228.511 139.367 228.814C139.779 229.117 140.09 229.514 140.3 230.004C140.51 230.486 140.615 231.003 140.615 231.555C140.615 231.959 140.553 232.356 140.428 232.745C140.311 233.126 140.136 233.472 139.903 233.783C139.67 234.086 139.378 234.327 139.028 234.506C138.686 234.685 138.29 234.774 137.839 234.774ZM137.85 234.343C138.371 234.343 138.776 234.106 139.063 233.631C139.351 233.149 139.495 232.457 139.495 231.555C139.495 230.653 139.351 229.969 139.063 229.502C138.776 229.028 138.371 228.79 137.85 228.79C137.314 228.79 136.902 229.028 136.614 229.502C136.326 229.969 136.182 230.653 136.182 231.555C136.182 232.457 136.326 233.149 136.614 233.631C136.902 234.106 137.314 234.343 137.85 234.343ZM142.189 234.541C142.041 234.541 141.936 234.502 141.874 234.424C141.812 234.347 141.781 234.246 141.781 234.121C141.796 233.942 141.847 233.802 141.932 233.701C142.018 233.6 142.146 233.495 142.317 233.386C142.605 233.192 142.908 232.982 143.227 232.756C143.546 232.531 143.845 232.282 144.125 232.01C144.405 231.73 144.631 231.423 144.802 231.088C144.981 230.754 145.07 230.377 145.07 229.957C145.07 229.584 144.969 229.296 144.767 229.094C144.572 228.884 144.296 228.779 143.939 228.779C143.643 228.779 143.394 228.853 143.192 229C142.99 229.148 142.889 229.358 142.889 229.63C142.889 229.762 142.92 229.875 142.982 229.969C143.044 230.054 143.107 230.124 143.169 230.179C143.239 230.225 143.274 230.256 143.274 230.272C143.274 230.311 143.227 230.373 143.134 230.458C143.04 230.544 142.908 230.587 142.737 230.587C142.488 230.587 142.294 230.509 142.154 230.353C142.014 230.198 141.944 230.007 141.944 229.782C141.944 229.448 142.053 229.175 142.271 228.965C142.496 228.755 142.768 228.604 143.087 228.511C143.414 228.409 143.733 228.359 144.044 228.359C144.386 228.359 144.72 228.417 145.047 228.534C145.381 228.643 145.653 228.825 145.863 229.082C146.081 229.339 146.19 229.681 146.19 230.109C146.19 230.466 146.108 230.793 145.945 231.088C145.789 231.376 145.583 231.64 145.327 231.882C145.07 232.123 144.79 232.344 144.487 232.546C144.191 232.749 143.896 232.939 143.6 233.118C143.305 233.297 143.044 233.476 142.819 233.655V233.713H145.945C146.1 233.713 146.233 233.732 146.342 233.771C146.45 233.802 146.505 233.919 146.505 234.121C146.505 234.401 146.369 234.541 146.097 234.541H142.189ZM149.598 234.774C149.256 234.774 148.93 234.728 148.619 234.634C148.307 234.541 148.055 234.401 147.86 234.214C147.666 234.02 147.569 233.771 147.569 233.468C147.569 233.266 147.635 233.079 147.767 232.908C147.899 232.729 148.098 232.64 148.362 232.64C148.533 232.64 148.665 232.682 148.759 232.768C148.852 232.854 148.898 232.916 148.898 232.955C148.898 232.97 148.863 232.997 148.793 233.036C148.731 233.075 148.669 233.137 148.607 233.223C148.545 233.308 148.514 233.425 148.514 233.573C148.514 233.822 148.619 234.012 148.828 234.144C149.046 234.277 149.315 234.343 149.633 234.343C150.038 234.343 150.345 234.23 150.555 234.004C150.773 233.779 150.881 233.429 150.881 232.955C150.881 232.589 150.784 232.29 150.59 232.056C150.395 231.815 150.088 231.683 149.668 231.66H149.237C149.182 231.66 149.14 231.637 149.108 231.59C149.077 231.535 149.062 231.481 149.062 231.427C149.062 231.364 149.077 231.306 149.108 231.252C149.14 231.197 149.182 231.166 149.237 231.158H149.668C149.979 231.127 150.224 230.991 150.403 230.75C150.582 230.501 150.671 230.21 150.671 229.875C150.671 229.479 150.559 229.187 150.333 229C150.115 228.814 149.878 228.72 149.622 228.72C149.373 228.72 149.147 228.794 148.945 228.942C148.751 229.09 148.654 229.3 148.654 229.572C148.654 229.743 148.685 229.86 148.747 229.922C148.809 229.984 148.871 230.019 148.933 230.027C149.003 230.027 149.038 230.035 149.038 230.05C149.038 230.089 148.992 230.151 148.898 230.237C148.805 230.322 148.673 230.365 148.502 230.365C148.245 230.365 148.047 230.287 147.907 230.132C147.775 229.969 147.709 229.77 147.709 229.537C147.709 229.14 147.891 228.841 148.257 228.639C148.63 228.437 149.089 228.336 149.633 228.336C150.014 228.336 150.364 228.394 150.683 228.511C151.002 228.619 151.255 228.787 151.441 229.012C151.636 229.238 151.733 229.525 151.733 229.875C151.733 230.179 151.624 230.474 151.406 230.762C151.196 231.049 150.862 231.256 150.403 231.38V231.427C150.629 231.45 150.866 231.508 151.115 231.602C151.364 231.695 151.574 231.847 151.745 232.056C151.923 232.266 152.013 232.558 152.013 232.931C152.013 233.382 151.896 233.744 151.663 234.016C151.437 234.281 151.142 234.471 150.776 234.588C150.411 234.712 150.018 234.774 149.598 234.774Z" fill="#F5F5F5"/>
</svg>
