<svg xmlns="http://www.w3.org/2000/svg" xmlns:xlink="http://www.w3.org/1999/xlink" version="1.1" x="0px" y="0px" viewBox="0 0 100 125" enable-background="new 0 0 100 100" xml:space="preserve"><g><g><path fill="none" d="M55.987,37.753c0.029-0.349,0.209-0.683,0.263-1.032c0.025-0.16-0.037-0.45-0.141-0.497    c-0.934-0.42-1.88-0.376-2.745,0.161c-0.002,0.001-0.005,0.003-0.007,0.005c-0.011,0.007-0.022,0.009-0.033,0.015    c-0.848,0.527-1.633,1.153-2.47,1.7c-0.075,0.049-0.151,0.095-0.227,0.137c-0.533,0.286-1.101,0.388-1.686-0.007    c-0.251-0.17-0.47-0.387-0.711-0.573c-0.302-0.234-0.611-0.458-0.917-0.686c-0.187-0.139-0.44-0.239-0.552-0.424    c-0.509-0.844-1.002-0.995-1.861-0.516c-0.061,0.034-0.141,0.033-0.202,0.066c-0.011,0.006-0.023,0.012-0.034,0.018    c-0.002,0.001-0.004,0.001-0.006,0.002c-0.727,0.399-1.478,0.761-2.17,1.213c-0.811,0.529-0.977,2.126-0.402,2.923    c0.055,0.076,0.116,0.144,0.173,0.217c0.416,0.531,0.887,0.977,1.406,1.349c0.781,0.56,1.666,0.96,2.634,1.23    c1.304,0.363,2.617,0.858,3.983,0.717c1.258-0.13,2.493-0.486,3.781-0.751c-0.002-0.002-0.006-0.007-0.009-0.009    c0.016-0.003,0.032-0.007,0.048-0.011c-0.061-0.064-0.153-0.153-0.237-0.249c-0.535-0.611-1.08-1.213-1.592-1.843    c-0.086-0.106-0.04-0.319-0.049-0.487c0.054-0.007,0.108-0.013,0.161-0.02c0.099,0.076,0.215,0.137,0.293,0.231    c0.924,1.112,2.062,1.321,3.384,0.839c0.166-0.061,0.287-0.107,0.377-0.152c0.289-0.132,0.275-0.245,0.013-0.678    C55.9,39.726,55.905,38.748,55.987,37.753z"/><path fill="none" d="M73.723,83.821c-0.038-0.139-0.079-0.282-0.121-0.421C73.614,83.54,73.675,83.681,73.723,83.821z"/><path fill="none" d="M57.67,33.549c-0.159-0.637-0.438-1.254-0.52-1.898c-0.04-0.313-0.193-0.818,0.235-0.998    c0.068-0.023,0.148-0.039,0.243-0.045c0.008,0,0.018-0.012,0.027-0.018c0.005,0,0.008-0.002,0.013-0.002    c0.039-0.003,0.087-0.067,0.106-0.112c0.457-1.103,1.123-2.131,1.275-3.395c-0.096-0.335-0.098-0.749-0.304-0.989    c-0.6-0.7-1.225-1.391-2.166-1.683c-0.815-0.253-1.591-0.667-2.419-0.829c-0.611-0.12-1.285,0.013-1.92,0.106    c-0.373,0.055-0.743,0.216-1.084,0.39c-0.563,0.287-1.152,0.48-1.76,0.309c-1.456-0.41-2.906-0.848-4.339-1.333    c-0.21-0.071-0.304-0.066-0.348-0.006c-0.074,0.043-0.078,0.152-0.082,0.319c-0.018,0.675-0.057,1.349-0.083,2.024    c-0.016,0.403-0.074,0.813-0.024,1.208c0.158,1.264,0.36,2.522,0.54,3.784c0.162,1.134,0.313,2.27,0.884,3.292    c0.244,0.438,0.544,0.848,0.754,1.3c0.501,1.078,1.293,1.867,2.256,2.541c0.417,0.291,0.766,0.214,1.118,0.027    c0.006-0.003,0.011-0.007,0.017-0.01c0.007-0.004,0.015-0.006,0.022-0.01c0.387-0.205,0.776-0.447,1.085-0.753    c0.343-0.34,0.701-0.611,1.073-0.818c1.118-0.608,2.359-0.646,3.693-0.245c0.206,0.062,0.354,0.053,0.476-0.01    c0.124-0.049,0.221-0.15,0.315-0.302c0.269-0.436,0.563-0.857,0.815-1.303C57.654,33.935,57.71,33.712,57.67,33.549z"/><path fill="none" d="M62.834,41.164c0.544-0.32,0.97-0.843,1.195-1.524c0.269-0.814,0.164-1.626,0.044-2.442    c-0.048-0.329-0.071-0.623,0.274-0.85c0.012-0.008,0.028-0.017,0.041-0.025c0.981-0.559,2.01-1.236,2.322-1.236    c0.188,0,0.342,0.032,0.391,0.031c0.328,0.128,1.61,0.847,1.299,2.312c-0.088,0.265-0.201,0.526-0.328,0.779    c-0.35,0.697-0.832,1.335-1.309,1.957c-0.302,0.395-0.237,0.601,0.16,0.846c0.438,0.27,0.849,0.587,1.252,0.909    c0.983,0.784,1.936,1.597,3.252,1.8c1.103,0.171,2.194,0.37,3.276-0.078c0.784-0.324,1.562-0.652,2.318-1.027    c0.755-0.373,1.487-0.793,2.178-1.308c1.183-0.882,2.34-1.725,2.727-3.206c-0.623-0.665-1.368-0.922-2.229-0.922    c-0.241,0-0.492-0.092-0.722-0.181c-0.633-0.246-1.253-0.526-1.887-0.768c-1.053-0.402-1.829-1.086-2.324-2.11    c-0.155-0.321-0.409-0.609-0.667-0.862c-0.621-0.609-1.461-0.714-2.253-0.943c-0.652-0.189-1.268-0.099-1.813,0.215    c-0.002,0.001-0.003,0.003-0.005,0.004c-0.011,0.006-0.024,0.01-0.035,0.016c-0.269,0.155-0.403,0.555-0.58,0.855    c-0.182,0.31-0.371,0.506-0.566,0.598c-0.338,0.133-0.692-0.057-1.053-0.578c-0.039-0.056-0.082-0.109-0.123-0.162    c0.201-0.282,0.411-0.53,0.568-0.809c0.312-0.555,0.652-1.105,0.871-1.698c0.201-0.547,0.286-1.143,0.372-1.725    c0.088-0.597,0.219-1.216,0.14-1.8c-0.09-0.661-0.37-1.302-0.609-1.937c-0.246-0.654-0.633-1.268-0.786-1.94    c-0.137-0.6-0.585-0.912-0.906-1.335c-0.128-0.169-0.449-0.27-0.679-0.266c-0.531,0.008-1.081,0.028-1.586,0.171l-2.536,0.74    c-0.27,0.133-0.529,0.299-0.771,0.518c-0.499,0.452-1.177,0.702-1.715,1.12c-0.786,0.611-0.853,0.722-0.453,1.552    c0.614,1.277,0.319,2.478-0.067,3.712c-0.286,0.915-0.546,1.838-0.789,2.766c-0.061,0.232-0.009,0.493-0.009,0.79    c0.015-0.008,0.025-0.013,0.04-0.02v0l2.203-0.762c-0.163,0.547-0.308,1.076-0.48,1.596c-0.105,0.318-0.078,0.541,0.249,0.721    c0.297,0.163,0.332,0.333-0.021,0.477c-0.363,0.132-0.752,0.247-1.088,0.428c-0.122,0.063-0.238,0.133-0.343,0.216    c-0.589,0.466-1.153,1.006-1.589,1.614c-0.713,0.996-1.038,2.121-0.599,3.378c0.011-0.018,0.019-0.036,0.03-0.054    c0.004,0.012,0.006,0.023,0.01,0.034c0.223-0.357,0.406-0.73,0.54-1.121c0.137-0.398-0.015-0.909,0.475-1.24    c0.021,0.117,0.033,0.18,0.042,0.242c0.241,1.629,1.168,2.578,2.795,2.862C61.662,41.613,62.306,41.487,62.834,41.164z     M62.684,38.859c0.105,0.269,0.198,0.506,0.319,0.816c-0.607,0.164-0.846,0.11-1.533-0.119    C61.803,38.661,62.157,39.119,62.684,38.859z M60.522,39.207c-0.033,0.047-0.337,0.105-0.433,0.024    c-0.614-0.523-0.128-1.265-0.058-1.294c0.067-0.028,0.374,0.251,0.455,0.352c-0.005,0.004-0.009,0.008-0.014,0.012    C60.559,38.428,60.635,39.046,60.522,39.207z"/><path fill="none" d="M61.868,47.068c0.014,0.013,0.039,0.035,0.059,0.054c-0.003-0.034-0.008-0.064-0.019-0.074    c0.034-0.023,0.071-0.039,0.107-0.057l0,0C61.964,47.015,61.914,47.037,61.868,47.068z"/><path fill="none" d="M61.909,47.184c0-0.002-0.14,0.558-0.141,0.576c-0.018,0.211,0.054,0.206,0.031,0.417    c-0.042,0.34-0.07,0.684-0.079,0.997c-0.002,0.055-0.001,0.109-0.002,0.163c-0.001,0.174,0.001,0.339,0.014,0.475    c0.189,2.172,0.344,4.349,0.829,6.489c0.273,1.204,0.934,2.138,1.949,2.685c0.145,0.078,0.316,0.145,0.501,0.203    c0.767,0.295,1.591,0.382,2.427,0.33c0.452,0.013,0.77,0.001,0.788-0.009c0.14-0.068,0.384-0.329,0.472-0.458    c0.296-0.433,0.458-0.983,0.839-1.328c0.877-0.793,1.956-0.953,2.801-0.944c0.142,0.004,0.284,0.006,0.427,0.017    c0.339,0.026,0.6-0.019,0.823-0.14c0.228-0.112,0.415-0.301,0.592-0.586c0.881-1.416,1.122-2.911,0.833-4.541    c-0.158-0.893-0.486-1.707-1.045-2.385c-1.024-1.242-2.361-2.17-3.79-2.815c-1.304-0.589-2.67-1.065-3.939-1.735    c-0.54-0.285-1.041-0.188-2.034-0.169c-0.514,0.01-0.792,0.208-0.771,0.625c0.021,0.416-1.365,1.802-1.365,1.802    c-0.004,0.012-0.008,0.026-0.011,0.039c0.023-0.011,0.045-0.024,0.067-0.035l0,0c-0.023,0.012-0.045,0.024-0.067,0.036    c-0.009,0.029-0.017,0.06-0.026,0.089L61.909,47.184z M61.826,49.687c0.194,2.172,0.344,4.349,0.829,6.489    C62.17,54.036,62.015,51.86,61.826,49.687z"/><path fill="none" d="M34.203,54.877c-0.263-0.084-0.393,0.09-0.509,0.222c-0.521,0.592-1.005,1.218-1.515,1.82    c-0.271,0.32-0.592,0.599-0.854,0.926c-0.411,0.512-0.793,1.048-1.185,1.576c-0.187,0.251-0.368,0.507-0.551,0.761    c-0.086,0.158,0.07,0.187,0.102,0.252c0.471-0.023,1.212-0.069,1.594-0.188c1.141-0.266,2.578-1.016,3.132-3.056    c0.164-0.579,0.305-1.176,0.347-1.772C34.774,55.243,34.529,54.982,34.203,54.877z"/><path fill="none" d="M28.971,54.339c-0.622,0.662-1.037,1.429-1.047,2.359c-0.004,0.397-0.063,0.938,0.156,1.5    c0.27-0.212,0.75-0.531,1-0.946c0.053-0.087,2.389-3.384,2.732-3.854C31.768,53.199,30.453,52.474,28.971,54.339z"/><path fill="none" d="M75.049,47.103c0-0.003,0.002-0.009,0.004-0.014c-0.017,0.033-0.034,0.067-0.05,0.1    C75.019,47.16,75.034,47.132,75.049,47.103z"/><path fill="none" d="M68.325,72.727c-0.002-0.006-0.001-0.011-0.003-0.017c-0.147,0.188-0.397,0.313-0.582,0.474    c-0.012,0.017-0.025,0.034-0.035,0.052C67.878,73.049,68.153,72.92,68.325,72.727z"/><path fill="none" d="M67.603,73.999c0.015-0.01,0.022-0.019,0.037-0.029c-0.142-0.303-0.106-0.503,0.004-0.66    c0.007-0.017,0.012-0.036,0.022-0.053C67.508,73.425,67.432,73.64,67.603,73.999z"/><path fill="none" d="M91.328,62.648c-0.349-0.817-0.946-1.413-1.58-1.994c-0.254-0.233-0.486-0.347-0.796-0.083    c-0.161,0.137-0.372,0.216-0.559,0.323c-1.245,0.718-2.581,1.088-4.006,0.819c-0.572-0.108-1.147-0.386-1.631-0.718    c-0.673-0.461-1.267-1.041-1.886-1.579c-0.484-0.42-0.914-0.489-1.467-0.195c0.05,0.129,0.063,0.31,0.159,0.383    c0.756,0.578,1.074,1.467,1.613,2.197c0.489,0.663,0.434,1.368,0.361,2.095c-0.013,0.126-0.106,0.3-0.212,0.352    c-0.762,0.38-1.534,0.742-2.311,1.09c-0.116,0.052-0.276,0.007-0.464,0.007c0.035-0.196,0.06-0.368,0.097-0.538    c0.276-1.279-0.14-2.464-0.822-3.446c-0.638-0.919-1.601-1.612-2.441-2.424c0.026-0.28,0.324-1.543,0.688-1.558    c0.741-0.029,1.412,0.287,1.897,0.75c0.567,0.541,1.104,0.448,1.716,0.29c0.156-0.04,0.309-0.099,0.467-0.126    c0.976-0.167,1.928-0.211,2.699,0.579c0.341,0.35,0.68,0.702,1.027,1.047c0.602,0.6,1.401,0.757,2.15,0.614    c1.082-0.206,2.014-0.836,2.886-1.503c0.217-0.166,0.395-0.435,0.493-0.694c0.414-1.085,0.839-2.171,1.164-3.285    c0.191-0.654,0.351-1.381,0.263-2.04c-0.169-1.275-0.003-2.496,0.277-3.716c0.079-0.345,0.022-0.565-0.241-0.741    c-0.635-0.426-1.099-0.953-1.048-1.772c-0.458-0.085-0.842-0.181-1.232-0.219c-0.297-0.029-0.632,0.106-0.896,0.014    c-0.184-0.064-0.365-0.132-0.547-0.198c-0.009-0.003-0.019-0.007-0.028-0.01c-0.133-0.049-0.268-0.096-0.401-0.145    c-0.014-0.005-0.029-0.01-0.043-0.015c-0.181-0.064-0.38-0.13-0.584-0.197c-0.232-0.078-0.468-0.147-0.706-0.213    c-0.246-0.069-0.494-0.134-0.735-0.185c-0.243-0.052-0.481-0.096-0.698-0.117c-1.273-0.125-2.532-0.412-3.818-0.27    c-1.242,0.138-2.485,0.448-3.395,1.314c-0.608,0.578-0.98,1.426-1.368,2.198c-0.125,0.249-0.002,0.652,0.075,0.968    c0.143,0.582,0.371,1.144,0.501,1.728c0.457,2.054-0.672,3.576-1.489,5.391c-0.382,0.849-0.31,1.338-0.308,1.37    c0.002,0.012-0.064,0.389-0.081,0.551c-0.432-0.025-0.808-0.004-1.165-0.076c-1.053-0.213-1.842,0.188-2.459,1.002    c-0.331,0.437-0.612,0.912-0.952,1.342c-0.084,0.106-0.359,0.188-0.462,0.13c-0.875-0.487-1.838-0.606-2.801-0.733    c-1.707-0.224-3.392-0.481-4.349-2.202c-0.092-0.165-0.319-0.308-0.51-0.356c-1.078-0.272-2.08-0.198-3.056,0.469    c-1.395,0.953-2.553,2.082-3.168,3.674c-0.424,1.096-0.819,2.21-1.126,3.343c-0.295,1.086-0.459,2.207-0.7,3.406    c1.359,0.114,1.695,0.976,1.788,2.073c0.018,0.21,0.28,0.488,0.495,0.575c0.455,0.185,0.947,0.303,1.434,0.38    c0.597,0.094,1.199,0.051,1.796,0.262c1.291,0.458,2.612,0.827,3.918,1.243c0.973,0.311,1.937,0.55,2.974,0.256    c0.728-0.207,1.367-0.514,1.87-1.088c0.384-0.438,0.826-0.834,1.163-1.305c0.614-0.857,0.43-1.793,0.16-2.723    c-0.325-1.117-0.664-2.23-0.937-3.36c-0.104-0.431-0.093-0.697,0.011-1.176c0.104-0.396,0.125-0.646,0.292-0.953    c-0.045-0.037-0.089-0.074-0.134-0.111c-0.356,0.162-0.733,0.296-1.073,0.467c-0.398,0.2-5.104,2.95-6.809,4.158    c-1.151,0.563-2.703,1.188-3.794,1.455c-0.231-0.554,0.055-0.658,0.312-0.786c0.808-0.402,3.816-1.801,4.481-2.156    c0.566-0.302,3.868-2.293,4.668-2.794c-0.002-0.01-0.004-0.019-0.007-0.029c0.071-0.042,0.236-0.127,0.268-0.142    c0.204-0.085,1.16-0.357,1.323-0.499c0.402-0.131,1.111-0.339,1.144-0.352c0.587-0.23,1.185,0.165,1.219,0.807    c0.114,2.159,0.621,4.104,2.736,5.225c0.358,0.19,0.331,0.547-0.038,0.765c-0.502,0.296-1.05,0.514-1.545,0.819    c-0.345,0.213-0.722,0.446-0.963,0.754c-0.262,0.427-0.501,1.342-0.863,2.157c0.059-0.172,0.108-0.351,0.174-0.518    c0.22-0.55,0.377-1.141,0.684-1.635c-0.024,0.032-0.055,0.06-0.076,0.093c-0.321,0.5-0.477,1.106-0.702,1.667    c-0.066,0.166-0.116,0.346-0.174,0.518c-0.001,0.002-0.002,0.005-0.003,0.007c-0.054,0.159-0.122,0.308-0.215,0.438    c0.025-0.032,0.053-0.06,0.078-0.092c-0.028,0.036-0.058,0.074-0.087,0.111c-0.003,0.004-0.004,0.01-0.007,0.014    c-0.019,0.024-0.041,0.047-0.06,0.071c-0.333,0.427-0.698,0.862-1.066,1.194c-0.102,0.103-0.2,0.211-0.304,0.311    c-0.208,0.2-1.199,0.555-1.212,0.653c-0.036,0.272-0.054,0.596,0.061,0.831c0.531,1.087,1.032,2.203,1.696,3.207    c0.526,0.795,0.718,0.922,1.597,0.388c0.724-0.44,1.424-0.964,2.012-1.57c0.823-0.846,1.55-1.789,2.285-2.717    c0.34-0.43,0.603-0.921,0.935-1.438c-0.866-0.185-1.602-0.329-2.114-1.075c-0.392-0.571-0.58-1.112-0.226-1.671    c0.354-0.559,0.854-1.027,1.304-1.522c0.18-0.197,0.378-0.391,0.602-0.533c1.101-0.699,1.167-0.87,0.712-1.988    c0.686-0.421,1.358-0.85,2.05-1.243c0.127-0.072,0.389-0.07,0.496,0.014c0.6,0.471,1.205,0.603,1.819,0.127    c0.856-0.662,1.805-0.702,2.79-0.648c0.528,0.029,1.028,0.265,1.218,0.766c0.206,0.541,0.326,1.137,0.358,1.716    c0.023,0.398,0.13,0.517,0.495,0.503c0.499-0.02,1.006-0.083,1.496-0.021c2.087,0.267,4.053-0.173,5.931-1.025    c0.404-0.183,0.825-0.606,0.965-1.013c0.132-0.382-0.017-0.922-0.184-1.335C92.184,64.368,91.705,63.529,91.328,62.648z     M78.725,51.572c0.151-0.217,0.75-0.797,1.094-1.047c0.625-0.422,3.625-2.359,4.641-1.672c-0.341,0-1.273,0.362-2.125,0.828    c-2.984,1.656-3.055,2.018-3.656,2.766c-0.188,0.297-0.365,0.628-0.557,0.836C78.071,52.568,78.204,52.199,78.725,51.572z     M76.709,55.728c0.406-0.364,1.495-0.965,2.233-1.41c1.297-0.782,2.635-1.498,3.93-2.282c1.757-1.065,3.498-2.157,5.229-3.264    c0.414-0.265,0.76-0.636,1.138-0.959c0.066,0.047,0.133,0.093,0.199,0.14c-0.093,0.162-0.146,0.39-0.286,0.474    c-0.549,0.33-0.291,0.681-1.132,1.382l-5.107,3.951c-0.484,0.391-2.543,0.977-3.96,1.531c-0.042,0.017-0.72,0.401-0.337,0.375    c0.383-0.026,2.514-0.388,2.607-0.364c0.12,0.032,1.815-0.183,2.674-0.339c1.133-0.098,1.832-1.091,2.588-1.759    c0.344-0.304,0.67-0.628,1.004-0.943c0.05,0.028,0.1,0.056,0.15,0.085c-0.067,0.146-0.098,0.332-0.208,0.43    c-0.349,0.314-0.759,0.524-0.89,1.073c-0.074,0.31-1.536,1.588-2.019,1.774c-0.469,0.211-1.422,0.41-2.74,0.462    c-1.024-0.179-1.99,0.055-2.972,0.323C78.107,56.599,76.303,56.093,76.709,55.728z M65.423,66.656c0.75-0.75,1.375-1.25,2-1.875    c0.298,0.387-0.917,1.75-3.958,4.25c-1.167,0.583-2.379,1.061-3.405,1.428c-0.41,0.147-0.688-0.005-0.761-0.428    C63.392,69.094,64.339,67.406,65.423,66.656z M61.365,65.835c0.523-0.279,3.796-2.317,4.662-2.823    c0.002,0.01,0.004,0.019,0.007,0.029C65.233,63.542,61.931,65.533,61.365,65.835z M65.443,61.736    c-0.225,0.008-0.46,0.014-0.687,0.023c-0.568,0.022-1.253,0.047-1.847,0.112c-0.302,0.033-0.588,0.074-0.809,0.138    c-1.695,0.19-3.89,2.281-4.049,2.452c-0.205-0.153-0.273-0.39-0.222-0.632c0.046-0.219,0.189-0.443,0.443-0.61    c0.311-0.209,3.564-2.478,4.023-2.478c0.167-0.104,1.697,0,2.099,0.115c0.354,0.101,1.551,0.38,2.037,0.609    c0.065,0.031,0.12,0.061,0.156,0.089C66.596,61.682,66.065,61.715,65.443,61.736z M68.665,62.068    c-0.028,0.001-0.055,0.003-0.083,0.004c0.099-0.029,0.173-0.051,0.179-0.053C68.728,62.032,68.697,62.067,68.665,62.068z     M70.477,61.689c-0.078-0.099-0.149-0.325-0.098-0.384c0.409-0.478,0.568-1.18,1.287-1.385c0.573-0.163,1.118-0.434,1.696-0.568    c0.656-0.151,1.035,0.043,1.337,0.621c0.199,0.38,0.569,0.723,0.261,1.254c-0.213,0.366-0.303,0.803-0.447,1.209    c-0.038,0.108-0.076,0.217-0.108,0.327c-0.13,0.436-0.43,0.647-0.869,0.656C72.199,63.401,71.257,62.681,70.477,61.689z     M72.614,65.279c-0.279,0.082-0.51,0.125-0.617,0.073c0.378-0.801,1.213-1.395,1.714-1.364c0.105,0.269,0.198,0.506,0.319,0.816    C73.653,64.906,73.07,65.145,72.614,65.279z M74.527,66.674c-0.178,0.025-0.422-0.081-0.555-0.211    c-0.076-0.073-0.049-0.357,0.034-0.472c0.228-0.316,0.491-0.615,0.78-0.876c0.12-0.108,0.377-0.187,0.506-0.13    c0.13,0.057,0.179,0.299,0.206,0.35C75.496,66.033,75.067,66.599,74.527,66.674z M75.98,63.633    c-0.055,0.024-0.282-0.224-0.352-0.383c-0.136-0.305,0.195-1.297,0.481-1.506c0.076-0.056,0.214-0.1,0.287-0.068    c0.069,0.031,0.403,1.062,0.061,1.536C76.341,63.373,76.169,63.55,75.98,63.633z M77.7,64.983    c-0.177,0.49-0.633,0.472-0.988,0.357c-0.18-0.058-0.334-0.424-0.367-0.668c-0.091-0.681,0.536-1.33,1.225-0.973    c0.105,0.055,0.237,0.058,0.466,0.11C77.922,64.217,77.835,64.609,77.7,64.983z"/><path fill="#000000" d="M28.599,41.697c-0.016-0.107-0.02-0.218,0.005-0.343C28.579,41.476,28.592,41.585,28.599,41.697z"/><path fill="#000000" d="M72.614,65.279c-0.184,0.038-0.386,0.066-0.617,0.073C72.103,65.404,72.335,65.361,72.614,65.279z"/><path fill="#000000" d="M76.731,87.837l0-0.001c-0.003,0.005-0.01,0.011-0.013,0.015C76.722,87.846,76.726,87.841,76.731,87.837z"/><path fill="#000000" d="M68.887,73.274c0.003-0.004,0.004-0.01,0.007-0.014c-0.022,0.028-0.045,0.057-0.067,0.086    C68.846,73.321,68.868,73.298,68.887,73.274z"/><path fill="#000000" d="M62.018,46.988c0.004-0.002,0.009-0.004,0.013-0.007c0.009-0.029,0.017-0.059,0.026-0.089    c-0.019,0.01-0.038,0.018-0.056,0.03C62.011,46.932,62.015,46.959,62.018,46.988z"/><g><path fill="#000000" d="M31.644,52.19c-0.183,0.058-0.396,0.109-0.577,0.072c-1.194-0.245-1.983,0.435-2.567,1.276     c-0.606,0.873-1.048,1.868-1.506,2.835c-0.295,0.623-0.539,1.044-0.691,1.838c-0.097,0.394,0.039,0.79,0.145,1.083     c0.101,0.278,0.278,0.63,0.516,0.735c0.342,0.151,0.779,0.07,1.044-0.267c0.799-1.017,1.584-2.046,2.368-3.075     c0.084-0.11,0.167-0.22,0.251-0.329c0.422-0.553,0.848-1.104,1.241-1.678c0.333-0.487,0.631-1,0.919-1.515     c0.068-0.122,0.099-0.39,0.033-0.439C32.472,52.466,32.2,52.014,31.644,52.19z M31.673,53.114c0.006,0.423-2.042,2.958-2.75,4     c-0.272,0.4-1.03,1.835-1.375,1.792c-0.345-0.043-0.228-0.915,0.25-2.292C28.276,55.237,29.763,52.079,31.673,53.114z"/><path fill="#000000" d="M34.155,53.385c-0.531-0.077-1.119,0.612-1.119,0.612l-2.753,3.97c0,0-1.039,1.357-1.525,2.06     c-0.335,0.485-0.248,0.905,0.171,1.145c0.984,0.562,1.995,0.378,2.967,0.014c0.562-0.211,1.095-0.542,1.579-0.903     c0.535-0.399,0.996-0.897,1.496-1.344c0.232-0.208,0.433-0.43,0.605-0.665c0.518-0.706,0.781-1.532,0.864-2.443     c0.052-0.707-0.246-1.279-0.694-1.693C35.3,53.722,34.702,53.464,34.155,53.385z M34.416,57.189     c-0.554,2.041-1.992,2.791-3.132,3.056c-0.382,0.118-1.122,0.164-1.594,0.188c-0.032-0.065-0.188-0.094-0.102-0.252     c0.184-0.254,0.365-0.509,0.551-0.761c0.392-0.528,0.774-1.063,1.185-1.576c0.262-0.327,0.583-0.606,0.854-0.926     c0.511-0.602,0.994-1.228,1.515-1.82c0.116-0.132,0.246-0.307,0.509-0.222c0.326,0.105,0.572,0.366,0.56,0.54     C34.721,56.013,34.58,56.61,34.416,57.189z"/></g><path fill="#000000" d="M23.07,33.919c-0.017,0.069-0.027,0.138-0.061,0.206c0.022,0.001,0.039,0.013,0.059,0.019    C23.049,34.138,23.053,33.988,23.07,33.919z"/><path fill="#000000" d="M12.474,21.5c0.005,0.025,0.009,0.047,0.014,0.072c0.194,1.034,0.376,1.95,0.531,2.866    c-0.142-0.845-0.446-2.545-0.495-2.884c-0.006-0.038-0.01-0.072-0.009-0.072C12.499,21.487,12.488,21.496,12.474,21.5z"/><path fill="#000000" d="M13.499,18.977c-0.123-0.653-0.406-1.282-0.78-1.834c-0.055-0.081-0.105-0.167-0.164-0.244    c0.398,0.745,0.707,1.541,0.996,2.337C13.541,19.149,13.515,19.064,13.499,18.977z"/><path fill="#000000" d="M10.917,15.276c0.286,0.271,0.725,0.65,1.089,0.999C11.61,15.877,11.189,15.527,10.917,15.276z"/><path fill="#000000" d="M76.013,83.846c0,0-0.017-0.042-0.041-0.103l0,0C75.994,83.799,76.009,83.839,76.013,83.846z"/><path fill="#000000" d="M20.435,35.377c0.151,0.037,0.318,0.08,0.45,0.115c0.013,0.001,0.033,0.003,0.046,0.004    c-0.159-0.05-0.375-0.114-0.562-0.157C20.392,35.351,20.412,35.364,20.435,35.377z"/><path fill="#000000" d="M21.227,35.581c0.183,0.046,0.568,0.143,1.059,0.268c0.072,0.014,0.144,0.022,0.216,0.036    c-0.563-0.138-1.057-0.254-1.277-0.306C21.225,35.58,21.226,35.58,21.227,35.581z"/><path fill="#000000" d="M49.55,45.304c0.048-0.032,0.144-0.122,0.224-0.193c0.015-0.017,0.03-0.029,0.045-0.049    c0.015-0.02,0.047-0.03,0.076-0.042c-0.052,0.012-0.093,0.032-0.116,0.062C49.707,45.18,49.63,45.251,49.55,45.304z"/><path fill="#000000" d="M57.884,45.297c0.051-0.056,0.128-0.119,0.206-0.166c-0.09,0.047-0.185,0.12-0.245,0.186    c-0.579,0.632-1.108,1.315-1.717,1.915c0.139-0.136,0.313-0.32,0.498-0.518c0.29-0.32,0.575-0.645,0.861-0.969    c-0.272,0.309-0.547,0.615-0.819,0.923c0.438-0.471,0.929-1.021,1.207-1.319c-0.038,0.029-0.081,0.053-0.11,0.083    C57.805,45.387,57.843,45.342,57.884,45.297z"/><path fill="#000000" d="M34.384,34.578c-0.102-0.017-0.174-0.026-0.234-0.032c0.025,0.004,0.06,0.01,0.088,0.015    C34.299,34.567,34.353,34.573,34.384,34.578z"/><path fill="#000000" d="M88.683,46.438c-0.297-0.029-0.632,0.106-0.896,0.014C88.162,46.572,88.387,46.409,88.683,46.438z"/><path fill="#000000" d="M87.241,46.254c0.259,0.095,0.454,0.169,0.547,0.198C87.604,46.388,87.423,46.321,87.241,46.254z"/><g><path d="M31.525,41.42c-0.613-0.555-1.234-1.102-1.875-1.624c-0.291-0.237-0.572-0.108-0.688,0.22     c-0.153,0.435-0.268,0.886-0.359,1.338c-0.025,0.125-0.021,0.237-0.005,0.343c0.031,0.554,0.388,0.984,0.788,1.289     c0.974,0.744,1.995,0.06,2.54-0.184c0.104-0.043,0.176-0.094,0.225-0.15c0.14-0.16,0.077-0.366-0.071-0.575     C31.916,41.844,31.737,41.611,31.525,41.42z"/><path d="M82.334,49.682c0.852-0.466,1.784-0.828,2.125-0.828c-1.016-0.688-4.016,1.25-4.641,1.672     c-0.344,0.25-0.943,0.83-1.094,1.047c-0.521,0.627-0.654,0.995-0.604,1.711c0.192-0.208,0.37-0.539,0.557-0.836     C79.28,51.699,79.35,51.338,82.334,49.682z"/><path d="M78.81,56.408c0.981-0.267,1.947-0.501,2.972-0.323c1.318-0.053,2.271-0.252,2.74-0.462     c0.483-0.187,1.944-1.465,2.019-1.774c0.132-0.549,0.542-0.758,0.89-1.073c0.109-0.099,0.141-0.284,0.208-0.43     c-0.05-0.028-0.1-0.056-0.15-0.085c-0.334,0.315-0.66,0.639-1.004,0.943c-0.757,0.668-1.455,1.662-2.588,1.759     c-0.859,0.156-2.554,0.371-2.674,0.339c-0.093-0.025-2.224,0.338-2.607,0.364c-0.383,0.026,0.294-0.359,0.337-0.375     c1.417-0.554,3.476-1.14,3.96-1.531l5.107-3.951c0.842-0.701,0.583-1.052,1.132-1.382c0.14-0.084,0.193-0.312,0.286-0.474     c-0.066-0.047-0.133-0.093-0.199-0.14c-0.378,0.322-0.724,0.694-1.138,0.959c-1.731,1.107-3.472,2.199-5.229,3.264     c-1.295,0.785-2.633,1.5-3.93,2.282c-0.737,0.445-1.826,1.046-2.233,1.41C76.303,56.093,78.107,56.599,78.81,56.408z"/><path d="M62.295,60.741c-0.458,0-3.712,2.269-4.023,2.478c-0.253,0.168-0.396,0.391-0.443,0.61     c0.002,0.186,0.064,0.363,0.225,0.483c0.159-0.17,2.535-2.199,4.23-2.39c0.174-0.027,0.392-0.041,0.625-0.051     c0.594-0.066,1.279-0.09,1.847-0.112c0.227-0.009,0.463-0.015,0.687-0.023c0.426-0.083,0.773-0.192,0.987-0.272     c-0.486-0.229-1.683-0.508-2.037-0.609C63.992,60.741,62.461,60.637,62.295,60.741z"/><path d="M60.059,70.459c1.026-0.367,2.239-0.845,3.405-1.428c3.042-2.5,4.257-3.863,3.958-4.25c-0.625,0.625-1.25,1.125-2,1.875     c-1.083,0.75-2.031,2.438-6.125,3.375C59.371,70.454,59.649,70.605,60.059,70.459z"/><path d="M74.406,62.762c0.033-0.11,0.07-0.218,0.108-0.327c0.144-0.406,0.235-0.843,0.447-1.209     c0.308-0.531-0.062-0.873-0.261-1.254c-0.302-0.577-0.681-0.771-1.337-0.621c-0.578,0.133-1.123,0.405-1.696,0.568     c-0.719,0.204-0.879,0.907-1.287,1.385c-0.051,0.06,0.02,0.285,0.098,0.384c0.78,0.992,1.722,1.712,3.06,1.729     C73.976,63.409,74.277,63.199,74.406,62.762z"/><path d="M76.346,64.673c0.033,0.244,0.186,0.609,0.367,0.668c0.355,0.115,0.811,0.133,0.988-0.357     c0.135-0.374,0.222-0.766,0.337-1.173c-0.229-0.052-0.361-0.056-0.466-0.11C76.881,63.343,76.254,63.992,76.346,64.673z"/><path d="M73.711,63.988c-0.501-0.031-1.336,0.563-1.714,1.364c0.231-0.007,0.433-0.035,0.617-0.073     c0.456-0.134,1.04-0.373,1.417-0.474C73.909,64.494,73.816,64.257,73.711,63.988z"/><path d="M75.291,64.986c-0.129-0.057-0.386,0.021-0.506,0.13c-0.289,0.262-0.552,0.56-0.78,0.876     c-0.083,0.115-0.11,0.398-0.034,0.472c0.134,0.129,0.377,0.236,0.555,0.211c0.54-0.075,0.969-0.641,0.97-1.339     C75.47,65.285,75.421,65.043,75.291,64.986z"/><path d="M76.51,62.522c0.006,0,0.012,0,0.018-0.001c0-0.195-0.064-0.814-0.133-0.844c-0.073-0.033-0.21,0.012-0.287,0.068     c-0.285,0.208-0.616,1.2-0.481,1.506c0.07,0.158,0.297,0.407,0.352,0.383c0.189-0.083,0.361-0.26,0.477-0.421     C76.544,63.013,76.498,62.755,76.51,62.522z"/><path d="M94.264,65.824c-0.338-1.315-0.882-2.527-1.713-3.602c-0.468-0.605-0.965-1.188-1.443-1.785     c-0.467-0.585-0.682-2.117-0.668-2.166c0.104-0.384,0.427-1.579,0.49-1.726c0.408-0.95,0.693-1.918,0.738-2.951     c0.036-0.833-0.012-1.678,0.108-2.498c0.126-0.861,0.409-1.7,0.622-2.549c0.073-0.291-0.012-0.462-0.271-0.673     c-0.625-0.509-1.374-0.944-1.392-1.937c-0.003-0.192-0.362-0.464-0.608-0.545c-0.324-0.108-0.706-0.027-1.051-0.093     c-1.227-0.1-2.558-0.497-3.541-0.828c-0.449-0.136-0.894-0.284-1.333-0.456c-0.262-0.073-0.612-0.125-0.956-0.162     c-0.348-0.024-0.696-0.048-1.044-0.063c-0.124,0.001-0.817-0.082-0.99-0.099c-0.392-0.027-0.845-0.016-1.33,0.139     c-0.603,0.252-1.268,0.354-1.901,0.535c-0.022,0.006-0.366,0.1-0.533,0.195c-0.796,0.452-2.302,2.257-2.317,2.285     c-0.479,0.865-0.638,1.293-0.631,1.283c0.009-0.013-0.013,0.024-0.021,0.039c-0.545-0.558-1.024-1.049-1.465-1.5     c-0.076-0.078-0.161-0.165-0.234-0.24c0.106-0.285,0.619-1.04,0.692-1.069c0.007-0.003,0.014-0.004,0.02-0.006     c0.216-0.084,0.438-0.151,0.661-0.21c0.682-0.181,1.384-0.3,2.013-0.674c0.006-0.003,0.012-0.006,0.017-0.01     c1.082-0.642,2.244-1.158,3.285-1.858c0.893-0.6,1.708-1.337,2.47-2.102c0.526-0.529,0.894-1.214,1.349-1.817     c0.41-0.543,0.189-1.211-0.447-1.487c-0.36-0.156-0.66-0.447-0.995-0.666c-0.158-0.104-0.325-0.256-0.49-0.329     c-0.052-0.016-0.101-0.033-0.175-0.042c-1.103,0.011-2.141-0.182-3.182-0.576c-0.813-0.307-1.37-0.782-1.765-1.522     c-0.629-1.179-1.474-2.043-2.854-2.417c-0.957-0.259-1.851-0.493-2.824-0.202c-0.279,0.083-0.466-0.017-0.418-0.359     c0.049-0.354,0.049-0.721,0.144-1.063c0.493-1.775,0.004-3.431-0.591-5.072c-0.381-1.051-1.087-1.984-0.988-3.205     c0.044-0.537-0.516-1.062-0.939-0.973c-0.506,0.107-0.627-0.187-0.754-0.538c-0.058-0.16-0.122-0.317-0.202-0.526     c-0.582,0.285-1.108,0.546-1.637,0.801c-0.42,0.203-1.136,0.548-1.813,0.868c-0.597,0.282-1.16,0.542-1.463,0.666     c-0.1,0.041-0.175,0.069-0.209,0.076c-0.287,0.057-0.555,0.139-0.808,0.245c-0.767,0.32-1.385,0.857-1.888,1.567     c-0.086,0.122-0.174,0.192-0.271,0.228c-0.124,0.046-0.264,0.029-0.45-0.064c-0.969-0.486-1.941-0.981-2.95-1.373     c-1.599-0.621-3.194-0.512-4.751,0.22c-0.947,0.445-1.922,0.61-2.876,0.026c-0.666-0.408-1.318-0.844-1.948-1.305     c-0.263-0.192-0.434-0.281-0.565-0.256c-0.134,0.026-0.226,0.177-0.324,0.469c-0.004,0.011-0.007,0.015-0.011,0.026     c-0.32-0.078-0.51-0.098-0.626-0.034c-0.141,0.079-0.169,0.287-0.158,0.703c0.003,0.125-0.017,0.25-0.029,0.375     c-0.075,0.773-0.246,1.551-0.208,2.319c0.083,1.698,0.209,3.399,0.433,5.083c0.166,1.248,0.49,2.478,0.795,3.703     c0.078,0.315,0.044,0.475-0.134,0.556c-0.073,0.033-0.163,0.056-0.289,0.065c-0.459,0.034-0.879,0.161-1.276,0.344     c-0.403,0.186-0.782,0.429-1.154,0.695c-0.476,0.34-0.878,0.777-1.388,1.075c-0.166,0.097-0.345,0.177-0.541,0.237     c-0.011,0.003-0.019,0.01-0.029,0.013c-0.455,0.131-0.558,1.684-0.112,1.898c0.558,0.267,0.559,0.774,0.635,1.187     c0.219,1.191,0.923,2.053,1.798,2.767c0.526,0.429,1.218,0.648,1.813,0.999c1.33,0.785,2.806,1.169,4.266,1.6     c0.289,0.085,0.569,0.112,0.818-0.055c0.08-0.053,0.294-0.271,0.345-0.284c0.151-0.035,0.396-0.006,0.565,0.023     c0.458,0.077,0.913,0.304,1.358,0.279c0.519-0.029,1.035-0.237,1.537-0.41c0.605-0.209,1.182-0.509,1.797-0.675     c0.231-0.062,0.549,0.111,0.793,0.242c0.065,0.035,0.071,0.39-0.011,0.458c-0.96,0.795-1.942,1.566-2.92,2.338     c-0.522,0.412-1.094,0.773-1.555,1.243c-0.233,0.237-0.599,0.67-0.236,1.024c0.426,0.417,1.015,0.654,1.614,0.342     c0.078-0.041,0.156-0.088,0.234-0.148c0.365-0.281,0.751-0.535,1.106-0.828c0.662-0.546,1.341-1.077,1.951-1.677     c0.21-0.207,0.404-0.43,0.6-0.651c0.449-0.481,0.959-1.053,1.242-1.357c0.042-0.032,0.076-0.068,0.121-0.091     c0.069-0.036,2.029,0.663,3.065,1.07c-0.598,3.038-0.099,6.049,0.211,9.084c0.001,0.01,0.002,0.019,0.003,0.029     c-0.801-0.167-1.524-0.333-2.174-0.053c-0.096,0.041-1.023,0.508-1.475,0.326c-0.07-0.028-0.138-0.044-0.21-0.088     c-0.009-0.054-1.454-2.481-2.381-3.91c-0.604-0.702-1.203-1.166-1.66-0.998c-0.854,0.495-1.882,0.356-2.543-0.249     c-0.007-0.006-0.013-0.013-0.02-0.019c-0.147-0.138-0.281-0.292-0.383-0.475c-0.127-0.228-0.211-0.586-0.122-0.807     c0.234-0.581-0.058-0.796-0.514-0.95c-0.06-0.02-0.171-0.064-0.304-0.119c-0.536-0.22-1.563-0.672-2.373-1.044     c-0.36-0.165-4.05-1.888-4.18-1.936c-0.66-0.243-1.563-0.574-2.002-0.727c-0.017-0.009-0.836-0.373-1.604-0.742     c-0.489-0.23-0.939-0.455-1.176-0.615c-0.053-0.034-0.097-0.065-0.124-0.089c-0.717-0.656-1.517-0.941-2.46-0.947     c-0.169-0.001-0.398-0.048-0.495-0.163c-0.271-0.322-0.502-0.678-0.745-1.024c-0.03-0.043-0.427-0.636-0.642-0.842     c-0.422-0.405-1.636-1.441-1.798-1.579c-0.43-0.368-0.863-0.732-1.279-1.116c-0.447-0.413-0.493-1.292-0.066-1.549     c0.012-0.007,0.026-0.011,0.038-0.018c0.409-0.239,0.873-0.393,1.455-0.647c-0.729,0.58-1.369,1.624-0.839,2.002     c0.109,0.078,0.761,0.672,1.188,0.875c0.022-0.055,0.051-0.125,0.075-0.183c0.378-0.93,0.913-2.232,1.269-3.111     c0.012,0.002,0.02,0.002,0.03,0.004c0.068,0.009,0.248,0.025,0.387,0.039c-0.028-0.005-0.063-0.01-0.088-0.015     c0.06,0.006,0.132,0.015,0.234,0.032c-0.001,0.002-0.002,0.004-0.002,0.006c-0.402,1.078-0.923,2.518-1.31,3.556     c0.201,0.278,0.591,0.634,0.953,0.922c2.106,1.676,3.346-1.728,3.396-2.366c0.027-0.353,0.014-0.72-0.081-1.128     c-0.275-1.184-1.142-1.96-2.066-2.628c-0.288-0.209-0.818-0.195-1.209-0.126c-0.046,0.008-0.122,0.021-0.183,0.032     c-0.677,0.117-2.189,0.376-3.154,0.697c-0.303,0.101-0.533,0.208-0.68,0.318c-0.021,0.016-0.058,0.031-0.075,0.047     c-0.592,0.561-1.425,0.986-1.235,2.026c0.001,0.004,0,0.007,0.001,0.011c0.004,0.021-0.298,0.017-0.402-0.036     c-0.653-0.331-2.471-1.099-2.709-1.155c-0.752-0.175-1.44-0.738-2.284-0.417c-0.01,0.004-0.023-0.007-0.036-0.016     c-0.05-0.036-0.125-0.139-0.24-0.176c-0.02-0.006-0.037-0.018-0.059-0.019c0.034-0.068,0.044-0.137,0.061-0.206     c0.061-0.249-0.043-1.06-0.052-1.21c-0.015-0.261-1.026-1.77-1.488-2.217c-0.908-0.88-1.901-1.047-2.952-0.57     c-0.146,0.066-0.293,0.146-0.442,0.237c-0.007,0.004-0.014,0.007-0.022,0.012c-0.143,0.089-0.316,0.131-0.41,0.169     c-0.184-0.22-0.299-0.394-0.447-0.53c-0.401-0.368-0.957-0.647-1.194-1.096c-0.331-0.63-0.86-0.985-1.402-1.273     c-0.72-0.383-1.061-1.056-1.47-1.652c-0.228-0.332-0.1-0.896-0.176-1.348c-0.158-0.939-0.345-1.873-0.544-2.939     c0.015-0.004,0.026-0.013,0.04-0.018c0.025-0.008,0.043-0.025,0.067-0.035c-0.005-0.025-0.009-0.047-0.014-0.072     c0.015-0.004,0.026-0.013,0.04-0.018c-0.002,0,0.003,0.034,0.009,0.072c0.229-0.096,0.419-0.243,0.562-0.434     c0.028-0.037,0.044-0.082,0.069-0.121c0.14-0.273,0.387-0.925,0.303-1.639c-0.288-0.796-0.598-1.592-0.996-2.337     c-0.162-0.216-0.353-0.426-0.55-0.624c-0.363-0.349-0.802-0.728-1.089-0.999c-0.138-0.127-0.238-0.229-0.277-0.299     c-0.237-0.426-0.478-0.648-0.936-0.473c-0.007,0.003-0.012,0.001-0.019,0.004c-0.393,0.158-0.685,0.859-0.548,1.251     c0.244,0.697,0.514,1.385,0.747,2.086c0.183,0.55,0.393,1.105,0.471,1.674c0.077,0.564,0.68,1.67,0.688,1.685     c0.081,0.146,0.186,0.316,0.316,0.522c0.009,0.015,0.016,0.026,0.026,0.041c-0.18-0.068-0.289-0.074-0.329-0.129     c-0.375-0.526-1.038-0.794-1.134-1.592c-0.088-0.73-0.444-1.427-0.682-2.139c-0.232-0.692-0.45-1.39-0.709-2.072     c-0.055-0.145-0.256-0.303-0.406-0.321c-0.019-0.002-0.042,0.009-0.066,0.02c-0.103,0.047-0.235,0.196-0.273,0.31     c-0.3,0.914-0.548,1.821-0.517,2.819c0.054,1.779,1.521,2.558,2.897,2.482c0.038,0.066,0.415,0.547,0.436,0.574     c0.655,0.847,0.763,1.551,0.486,2.453c-0.066,0.216-0.148,0.44-0.258,0.684c-0.15,0.334,0.032,0.572,0.434,0.628     c0.497,0.069,0.688,0.218,0.87,0.86c-0.066-0.003-0.173,0.016-0.293,0.044c-0.571,0.131-1.614,0.547-1.952,0.721     c-0.004,0.002-0.455,0.266-0.681,0.413c-0.033,0.025-0.081,0.052-0.111,0.076c-0.918,0.742-0.041,1.321-0.029,1.371     c0.786-0.192,1.768-0.431,2.537-0.675c0.693-0.22,1.245-0.122,1.746,0.412c0.162,0.172,1.334,0.838,1.676,1.084     c0.266,0.191,0.808,1.072,0.937,1.234c0.441,0.551,0.111,0.961-0.172,1.396c-0.098,0.151-0.193,0.3-0.27,0.421     c-0.006,0.01-0.015,0.023-0.021,0.033c-0.369-0.238-0.698-0.526-1.082-0.681c-0.699-0.282-1.498-0.426-2.133-0.017     c-0.01,0.007-0.022,0.007-0.033,0.014c-0.503,0.342-0.958,0.931-1.157,1.507c-0.557,1.609-1.306,3.11-2.177,4.561     c-0.379,0.632-0.357,1.07,0.056,1.424c0.19,0.163,0.425,0.278,0.595,0.458c0.332,0.353,0.698,0.304,1.008,0.151     c0.088-0.043,0.172-0.093,0.249-0.146c1.103-0.761,2.207-1.537,3.207-2.424c0.953-0.845,2.053-1.668,1.959-3.24     c0.013,0.012,0.025,0.022,0.038,0.034c0.266,0.239,0.51,0.457,0.761,0.682c0.001,0.001,0.002,0.001,0.002,0.002     c-0.08,0.041-0.154,0.068-0.221,0.095c-0.084,0.035-0.154,0.069-0.19,0.124c-0.278,0.426-0.535,0.865-0.781,1.31     c-0.519,0.94-1.17,1.731-2.123,2.29c-0.701,0.411-1.345,0.934-1.962,1.467c-0.193,0.167-0.358,0.595-0.273,0.788     c0.083,0.191,0.493,0.257,0.771,0.338c0.101,0.029,0.248-0.035,0.354-0.093c0.006-0.003,0.012-0.007,0.018-0.011     c0.452-0.252,0.893-0.523,1.345-0.774c0.908-0.504,1.826-0.991,2.73-1.501c0.838-0.473,1.237-1.306,1.493-2.151     c0.339-1.122-0.148-2.018-1.069-2.706c-0.563-0.421-0.573-0.484-0.167-1.082c0.086-0.126,0.282-0.284,0.411-0.332     c0.04-0.015,0.075-0.021,0.095-0.01c0.185,0.098,0.396,0.355,0.4,0.551c0.027,1.341,1.324,2.025,2.454,1.799     c0.021-0.004,0.173,0.031,0.353,0.075c-0.022-0.013-0.042-0.026-0.067-0.038c0.186,0.043,0.403,0.107,0.562,0.157     c-0.013-0.001-0.032-0.003-0.046-0.004c0.12,0.031,0.21,0.056,0.22,0.058c0.001,0,0.052,0.013,0.122,0.031     c-0.001,0-0.001-0.001-0.002-0.001c0.22,0.052,0.714,0.167,1.277,0.306c-0.071-0.014-0.144-0.022-0.216-0.036     c1.427,0.364,3.675,0.95,3.987,1.106c0.29,0.146,2.827,1.723,2.893,1.764c0.712,0.437,2.913,2.437,3.172,2.781     c0.364,0.483,0.632,0.886,0.971,1.39c0.1,0.149,0.451,0.829,0.411,0.953c-0.172,0.538-0.291,1.094-0.405,1.648     c-0.29,1.407,0.143,2.722,0.58,4.022c0.184,0.548,0.213,0.852-0.407,1.341c-0.48,0.379-0.71,1.259-0.327,1.786     c0.251,0.345,0.677,0.441,1.041,0.291c0.108-0.044,0.212-0.104,0.302-0.193c0.373-0.366,0.745-0.735,1.143-1.073     c0.575-0.489,0.631-0.721,0.304-1.39c-0.305-0.623-0.775-1.186-0.706-1.95c0.064-0.7-0.122-1.423,0.318-2.083     c0.152-0.228,0.294-0.431,0.482-0.56c0.166-0.114,0.367-0.172,0.655-0.118c0.423,0.078,2.731,0.181,3.378,0.424     c1.576,0.594,3.109,1.302,4.666,1.949c1.352,0.562,2.774,0.962,3.966,1.871c0.819,0.625,1.621,1.298,2.519,1.788     c1.705,0.931,2.873,2.359,3.905,3.925c0.697,1.057,0.719,1.819,0.028,2.535c-0.595,0.616-0.927,1.372-1.164,2.176     c-0.815,2.756-1.414,5.551-1.549,8.435c-0.027,0.568,0.092,0.912,0.673,1.15c1.124,0.46,1.24,0.613,1.034,1.452     c-0.158,0.643,0.24,0.812,0.634,1.033c0.153,0.086,0.337,0.121,0.509,0.166c0.999,0.264,4.775,1.419,7.398,2.025     c0.324,0.075,0.622,0.138,0.903,0.193c0.468,0.092,0.875,0.157,1.171,0.176c0.137,0.008,0.362,0.19,0.378,0.313     c0.219,1.651,0.894,3.139,1.637,4.596c0.442,0.867,1.03,1.335,1.954,1.631c0.829,0.266,1.543,0.139,2.271-0.207     c0.009-0.004,0.018-0.01,0.027-0.015c0.258-0.127,0.499-0.294,0.783-0.463c0.001,0.001,0.002,0.002,0.003,0.003     c1.358,0.778,2.088,3.201,2.158,3.637c0.071,0.435,0.298,2.663,0.45,4.018c0.059,0.521,0.642,0.917,1.079,0.622     c0.002-0.001,0.003-0.003,0.005-0.004c0.274-0.186,0.512-0.424,0.744-0.672l0.565-0.635c0.004-0.035-0.011-0.088-0.006-0.13     c0.024-0.207-0.078-1.705-0.185-2.242c-0.168-0.499-0.502-1.245-0.622-1.467c-0.004-0.007-0.02-0.048-0.041-0.103l0,0     c-0.203-0.515-1.178-2.985-1.699-3.976c-0.036-0.066-0.074-0.137-0.109-0.197c-0.383-0.645-0.286-1.213,0.21-1.762     c0.798-0.883,1.475-1.852,1.746-3.04c0.048-0.211,0.142-0.361,0.274-0.451c0.108-0.074,0.241-0.111,0.407-0.092     c0.59,0.067,1.207,0.101,1.755,0.302c0.626,0.23,1.274,0.188,1.796-0.107c0.308-0.174,1-1.257,1.132-1.486     c0.708-1.231,2.019-2.024,2.459-3.449c0.005,0.001,0.024,0.001,0.031,0.002c0.035,0.003,0.095,0.006,0.183,0.008     c0.311,0.008,0.906,0.01,1.533,0.006c0.615-0.004,1.252-0.013,1.66-0.028c1.647-0.06,3.319,0.007,4.848-0.769     c0.006-0.003,0.011-0.007,0.017-0.01c0.406-0.211,0.751-0.555,1.17-0.727C94.279,67.688,94.528,66.852,94.264,65.824z      M34.384,34.578c-0.031-0.005-0.085-0.011-0.146-0.017c-0.028-0.005-0.063-0.01-0.088-0.015     C34.211,34.552,34.283,34.561,34.384,34.578z M20.884,35.492c-0.132-0.035-0.299-0.078-0.45-0.115     c-0.022-0.013-0.043-0.026-0.067-0.038c0.186,0.043,0.403,0.107,0.562,0.157C20.917,35.495,20.898,35.493,20.884,35.492z      M21.096,33.752c-0.03,0.085-0.058,0.15-0.076,0.148c-0.009-0.001-0.02-0.002-0.029-0.004c-0.005,0.006-0.013,0.027-0.017,0.027     c-0.483-0.064-1.074-0.093-1.399-0.381c-0.486-0.43-0.795-1.055-1.153-1.612l0.079-0.716c0.014-0.01,0.022-0.023,0.037-0.032     c0.078-0.054,0.175-0.097,0.294-0.124c1.137-0.259,2.534,0.103,2.465,2.063C21.234,33.302,21.157,33.582,21.096,33.752z      M22.286,35.849c-0.491-0.125-0.876-0.222-1.059-0.268c-0.001,0-0.001-0.001-0.001-0.001c0.219,0.052,0.714,0.167,1.276,0.305     C22.43,35.871,22.358,35.863,22.286,35.849z M87.788,46.452c0.264,0.092,0.599-0.043,0.896-0.014     C88.387,46.409,88.162,46.572,87.788,46.452c-0.093-0.03-0.287-0.103-0.547-0.198C87.423,46.321,87.604,46.388,87.788,46.452z      M63.433,45.051c-0.021-0.417,0.256-0.615,0.771-0.625c0.993-0.019,1.494-0.116,2.034,0.169c1.269,0.67,2.635,1.146,3.939,1.735     c1.429,0.645,2.766,1.573,3.79,2.815c0.559,0.678,0.887,1.492,1.045,2.385c0.289,1.63,0.048,3.125-0.833,4.541     c-0.177,0.285-0.364,0.474-0.592,0.586c-0.222,0.121-0.484,0.165-0.823,0.14c-0.142-0.011-0.285-0.013-0.427-0.017     c-0.845-0.01-1.924,0.151-2.801,0.944c-0.381,0.345-0.543,0.895-0.839,1.328c-0.088,0.129-0.333,0.39-0.472,0.458     c-0.017,0.01-0.336,0.022-0.788,0.009c-0.836,0.052-1.66-0.035-2.427-0.33c-0.185-0.058-0.355-0.125-0.501-0.203     c-1.014-0.547-1.676-1.481-1.949-2.685c-0.485-2.14-0.64-4.317-0.829-6.489c-0.012-0.136-0.015-0.301-0.014-0.475     c0-0.054,0-0.109,0.002-0.163c0.009-0.312,0.037-0.657,0.079-0.997c0.022-0.211,0.105-0.681,0.105-0.679 M49.819,45.063     c-0.014,0.019-0.03,0.032-0.045,0.049c-0.081,0.071-0.176,0.161-0.224,0.193c0.08-0.053,0.157-0.124,0.229-0.221     c0.023-0.031,0.064-0.05,0.116-0.062C49.866,45.032,49.834,45.042,49.819,45.063z M56.442,41.32     c-0.09,0.045-0.211,0.092-0.377,0.152c-1.323,0.482-2.461,0.273-3.384-0.839c-0.078-0.094-0.194-0.154-0.293-0.231     c-0.054,0.007-0.108,0.014-0.161,0.02c0.009,0.168-0.037,0.382,0.049,0.487c0.512,0.629,1.057,1.232,1.592,1.843     c0.084,0.096,0.176,0.185,0.237,0.249c-0.016,0.003-0.032,0.007-0.048,0.011c0.002,0.003,0.007,0.007,0.009,0.009     c-1.288,0.265-2.523,0.621-3.781,0.751c-1.367,0.141-2.679-0.353-3.983-0.717c-0.968-0.27-1.853-0.67-2.634-1.23     c-0.519-0.372-0.99-0.819-1.406-1.349c-0.057-0.073-0.118-0.141-0.173-0.217c-0.575-0.796-0.409-2.394,0.402-2.923     c0.692-0.452,1.444-0.814,2.17-1.213c0.002-0.001,0.004-0.001,0.006-0.002c0.011-0.006,0.023-0.012,0.034-0.018     c0.061-0.034,0.141-0.032,0.202-0.066c0.859-0.479,1.353-0.328,1.861,0.516c0.111,0.185,0.364,0.284,0.552,0.424     c0.306,0.228,0.615,0.452,0.917,0.686c0.241,0.186,0.46,0.403,0.711,0.573c0.585,0.395,1.153,0.293,1.686,0.007     c0.076-0.042,0.152-0.088,0.227-0.137c0.836-0.547,1.622-1.174,2.47-1.7c0.011-0.007,0.022-0.009,0.033-0.015     c0.002-0.001,0.005-0.003,0.007-0.005c0.865-0.537,1.811-0.581,2.745-0.161c0.105,0.047,0.167,0.336,0.141,0.497     c-0.055,0.349-0.235,0.683-0.263,1.032c-0.082,0.995-0.086,1.973,0.468,2.888C56.716,41.075,56.73,41.188,56.442,41.32z      M56.438,35.693c-0.122,0.063-0.27,0.072-0.476,0.01c-1.334-0.401-2.575-0.363-3.693,0.245c-0.372,0.207-0.73,0.478-1.073,0.818     c-0.309,0.306-0.698,0.548-1.085,0.753c-0.007,0.004-0.015,0.006-0.022,0.01c-0.006,0.003-0.011,0.007-0.017,0.01     c-0.352,0.187-0.701,0.264-1.118-0.027c-0.963-0.673-1.755-1.463-2.256-2.541c-0.21-0.452-0.51-0.863-0.754-1.3     c-0.571-1.022-0.722-2.159-0.884-3.292c-0.18-1.261-0.382-2.52-0.54-3.784c-0.049-0.395,0.009-0.805,0.024-1.208     c0.026-0.675,0.066-1.349,0.083-2.024c0.004-0.167,0.008-0.277,0.082-0.319c0.044-0.059,0.137-0.065,0.348,0.006     c1.433,0.485,2.882,0.924,4.339,1.333c0.609,0.171,1.198-0.022,1.76-0.309c0.34-0.174,0.71-0.336,1.084-0.39     c0.635-0.093,1.309-0.226,1.92-0.106c0.829,0.163,1.604,0.577,2.419,0.829c0.942,0.292,1.567,0.983,2.166,1.683     c0.206,0.24,0.209,0.654,0.304,0.989c-0.152,1.264-0.818,2.293-1.275,3.395c-0.019,0.046-0.068,0.11-0.106,0.112     c-0.005,0-0.008,0.002-0.013,0.002c-0.009,0.006-0.018,0.017-0.027,0.018c-0.096,0.007-0.176,0.022-0.243,0.045     c-0.428,0.18-0.274,0.686-0.235,0.998c0.082,0.644,0.361,1.26,0.52,1.898c0.041,0.163-0.016,0.386-0.102,0.538     c-0.252,0.445-0.547,0.866-0.815,1.303C56.659,35.543,56.562,35.644,56.438,35.693z M58.181,38.631     c-0.009-0.062-0.022-0.125-0.042-0.242c-0.49,0.331-0.338,0.841-0.475,1.24c-0.134,0.391-0.318,0.764-0.54,1.121     c-0.004-0.012-0.006-0.023-0.01-0.034c-0.011,0.018-0.019,0.037-0.03,0.054c-0.439-1.257-0.114-2.382,0.599-3.378     c0.435-0.608,1-1.148,1.589-1.614c0.105-0.083,0.222-0.153,0.343-0.216c0.336-0.181,0.725-0.295,1.088-0.428     c0.353-0.144,0.319-0.313,0.021-0.477c-0.327-0.18-0.354-0.402-0.249-0.721c0.172-0.52,0.317-1.05,0.48-1.596l-2.203,0.762v0     c-0.015,0.007-0.024,0.013-0.04,0.02c0-0.297-0.051-0.559,0.009-0.79c0.243-0.927,0.503-1.851,0.789-2.766     c0.386-1.234,0.681-2.435,0.067-3.712c-0.399-0.83-0.332-0.941,0.453-1.552c0.537-0.418,1.215-0.667,1.715-1.12     c0.241-0.219,0.5-0.385,0.771-0.518l2.536-0.74c0.506-0.144,1.056-0.163,1.586-0.171c0.231-0.004,0.551,0.097,0.679,0.266     c0.322,0.423,0.769,0.735,0.906,1.335c0.154,0.671,0.541,1.285,0.786,1.94c0.238,0.634,0.519,1.275,0.609,1.937     c0.079,0.584-0.052,1.204-0.14,1.8c-0.086,0.582-0.171,1.178-0.372,1.725c-0.218,0.593-0.559,1.143-0.871,1.698     c-0.156,0.279-0.367,0.527-0.568,0.809c0.04,0.053,0.084,0.106,0.123,0.162c0.361,0.521,0.715,0.711,1.053,0.578     c0.195-0.092,0.384-0.288,0.566-0.598c0.176-0.3,0.311-0.7,0.58-0.855c0.011-0.007,0.024-0.01,0.035-0.016     c0.002-0.001,0.003-0.003,0.005-0.004c0.545-0.314,1.161-0.404,1.813-0.215c0.791,0.229,1.632,0.334,2.253,0.943     c0.258,0.253,0.511,0.541,0.667,0.862c0.496,1.024,1.271,1.708,2.324,2.11c0.634,0.242,1.254,0.523,1.887,0.768     c0.231,0.09,0.481,0.181,0.722,0.181c0.86,0.001,1.605,0.258,2.229,0.922c-0.386,1.481-1.543,2.324-2.727,3.206     c-0.691,0.515-1.423,0.935-2.178,1.308c-0.756,0.375-1.534,0.703-2.318,1.027c-1.082,0.448-2.173,0.249-3.276,0.078     c-1.316-0.204-2.269-1.016-3.252-1.8c-0.403-0.321-0.814-0.639-1.252-0.909c-0.397-0.245-0.463-0.451-0.16-0.846     c0.477-0.623,0.959-1.261,1.309-1.957c0.127-0.252,0.24-0.513,0.328-0.779c0.312-1.464-0.97-2.184-1.299-2.312     c-0.048,0.001-0.203-0.031-0.391-0.031c-0.313,0-1.342,0.676-2.322,1.236c-0.012,0.008-0.029,0.017-0.041,0.025     c-0.345,0.227-0.322,0.521-0.274,0.85c0.12,0.816,0.224,1.628-0.044,2.442c-0.225,0.681-0.651,1.204-1.195,1.524     c-0.527,0.323-1.172,0.449-1.858,0.329C59.348,41.21,58.421,40.26,58.181,38.631z M60.834,44.321     c-0.061-0.041-0.11-0.09-0.159-0.139c-0.148-0.148-0.243-0.325-0.25-0.534c-0.003-0.097,0.011-0.198,0.046-0.306     c0.06-0.183,0.167-0.321,0.291-0.437c0.069-0.065,0.138-0.132,0.22-0.171c0.224-0.122,0.494-0.144,0.766-0.019     c0.919,0.422,1.797,0.233,2.618-0.164c0.468-0.234,0.867-0.65,1.226-1.048c0.094-0.104,0.178-0.173,0.258-0.22     c0.218-0.152,0.402-0.105,0.64,0.191c0.416,0.518,0.797,1.1,1.317,1.49c0.798,0.6,1.688,1.086,2.565,1.571     c0.558,0.308,1.174,0.511,1.747,0.794c0.285,0.141,0.52,0.348,0.382,0.704c-0.014,0.037-0.012,0.066-0.035,0.106     c-0.011,0-0.021-0.002-0.032-0.002c-0.004,0.008-0.002,0.014-0.007,0.022c-1.317,0.018-2.213-0.931-3.317-1.402     c-0.171-0.073-0.341-0.147-0.511-0.221c-0.825-0.36-1.649-0.728-2.503-1.003c-0.951-0.307-1.922-0.013-2.84,0.265     c-0.107,0.032-0.212,0.077-0.315,0.123c-0.016,0.008-0.034,0.012-0.05,0.02c-0.356,0.174-0.693,0.412-1.025,0.631     c-0.058,0.038-0.112,0.065-0.164,0.083C61.322,44.819,61.092,44.496,60.834,44.321z M92.727,66.591     c-0.14,0.407-0.561,0.83-0.965,1.013c-1.878,0.853-3.844,1.292-5.931,1.025c-0.49-0.063-0.997,0.001-1.496,0.021     c-0.364,0.014-0.472-0.105-0.495-0.503c-0.033-0.579-0.152-1.174-0.358-1.716c-0.191-0.501-0.69-0.737-1.218-0.766     c-0.985-0.054-1.934-0.014-2.79,0.648c-0.614,0.475-1.22,0.344-1.819-0.127c-0.108-0.085-0.369-0.086-0.496-0.014     c-0.692,0.393-1.364,0.822-2.05,1.243c0.455,1.118,0.389,1.29-0.712,1.988c-0.224,0.142-0.422,0.335-0.602,0.533     c-0.45,0.495-0.95,0.964-1.304,1.522c-0.354,0.559-0.166,1.1,0.226,1.671c0.511,0.746,1.247,0.89,2.114,1.075     c-0.332,0.517-0.595,1.008-0.935,1.438c-0.735,0.928-1.461,1.871-2.285,2.717c-0.589,0.605-1.289,1.13-2.012,1.57     c-0.878,0.534-1.071,0.407-1.597-0.388c-0.664-1.004-1.165-2.12-1.696-3.207c-0.115-0.235-0.097-0.559-0.061-0.831     c0.013-0.098,1.004-0.453,1.212-0.653c0.104-0.1,0.202-0.208,0.304-0.311c-0.07,0.063,1.102-0.99,1.357-1.735     c0.001-0.002,0.002-0.005,0.003-0.007c0.059-0.172,0.108-0.351,0.174-0.518c0.225-0.561,0.381-1.167,0.702-1.667     c0.021-0.033,0.052-0.061,0.076-0.093c0.006-0.01,0.011-0.022,0.018-0.032c-0.005,0.007-0.009,0.02-0.013,0.027     c0.242-0.308,0.618-0.541,0.963-0.754c0.495-0.305,1.044-0.524,1.545-0.819c0.369-0.217,0.396-0.575,0.038-0.765     c-2.115-1.121-2.622-3.065-2.736-5.225c-0.034-0.642-0.632-1.037-1.219-0.807c-0.034,0.013-0.742,0.221-1.144,0.352     c-0.162,0.142-1.119,0.415-1.323,0.499c-0.032,0.015-0.197,0.1-0.268,0.142c0.002,0.01,0.004,0.019,0.007,0.029     c-0.8,0.501-4.102,2.492-4.668,2.794c-0.666,0.355-3.673,1.755-4.481,2.156c-0.257,0.128-0.543,0.232-0.312,0.786     c1.091-0.267,2.643-0.892,3.794-1.455c1.705-1.208,6.411-3.958,6.809-4.158c0.34-0.171,0.717-0.305,1.073-0.467     c0.045,0.037,0.089,0.074,0.134,0.111c-0.167,0.307-0.188,0.557-0.292,0.953c-0.104,0.479-0.115,0.746-0.011,1.176     c0.273,1.129,0.612,2.243,0.937,3.36c0.271,0.93,0.454,1.867-0.16,2.723c-0.337,0.471-0.779,0.867-1.163,1.305     c-0.503,0.574-1.142,0.881-1.87,1.088c-1.037,0.294-2.001,0.054-2.974-0.256c-1.306-0.417-2.627-0.786-3.918-1.243     c-0.597-0.212-1.2-0.168-1.796-0.262c-0.487-0.077-0.979-0.195-1.434-0.38c-0.214-0.087-0.477-0.365-0.495-0.575     c-0.092-1.097-0.428-1.959-1.788-2.073c0.24-1.199,0.405-2.32,0.7-3.406c0.307-1.133,0.702-2.247,1.126-3.343     c0.615-1.592,1.773-2.721,3.168-3.674c0.976-0.667,1.978-0.741,3.056-0.469c0.191,0.048,0.419,0.191,0.51,0.356     c0.957,1.722,2.642,1.978,4.349,2.202c0.964,0.127,1.927,0.245,2.801,0.733c0.103,0.057,0.379-0.024,0.462-0.13     c0.34-0.429,0.621-0.905,0.952-1.342c0.617-0.814,1.406-1.216,2.459-1.002c0.357,0.072,0.733,0.051,1.165,0.076     c0.017-0.163,0.083-0.54,0.081-0.551c-0.002-0.032-0.074-0.521,0.308-1.37c0.817-1.815,1.946-3.337,1.489-5.391     c-0.13-0.584-0.359-1.146-0.501-1.728c-0.077-0.316-0.201-0.719-0.075-0.968c0.388-0.772,0.761-1.62,1.368-2.198     c0.909-0.865,2.152-1.176,3.395-1.314c1.286-0.143,2.545,0.145,3.818,0.27c0.217,0.021,0.455,0.065,0.698,0.117     c0.241,0.051,0.488,0.116,0.735,0.185c0.237,0.066,0.473,0.135,0.706,0.213c0.204,0.066,0.403,0.133,0.584,0.197     c0.015,0.005,0.029,0.01,0.043,0.015c0.133,0.049,0.267,0.096,0.401,0.145c0.009,0.003,0.019,0.007,0.028,0.01     c0.182,0.067,0.363,0.134,0.547,0.198c0.264,0.092,0.599-0.043,0.896-0.014c0.39,0.038,0.774,0.135,1.232,0.219     c-0.052,0.819,0.413,1.346,1.048,1.772c0.263,0.176,0.32,0.396,0.241,0.741c-0.28,1.219-0.446,2.441-0.277,3.716     c0.087,0.66-0.072,1.386-0.263,2.04c-0.325,1.113-0.75,2.199-1.164,3.285c-0.099,0.259-0.276,0.529-0.493,0.694     c-0.873,0.667-1.804,1.297-2.886,1.503c-0.749,0.143-1.548-0.014-2.15-0.614c-0.346-0.345-0.685-0.697-1.027-1.047     c-0.772-0.79-1.723-0.746-2.699-0.579c-0.158,0.027-0.311,0.086-0.467,0.126c-0.613,0.159-1.149,0.251-1.716-0.29     c-0.485-0.463-1.156-0.779-1.897-0.75c-0.364,0.014-0.662,1.278-0.688,1.558c0.84,0.812,1.803,1.506,2.441,2.424     c0.682,0.982,1.098,2.167,0.822,3.446c-0.037,0.17-0.062,0.342-0.097,0.538c0.189,0,0.348,0.045,0.464-0.007     c0.777-0.349,1.549-0.71,2.311-1.09c0.106-0.053,0.199-0.226,0.212-0.352c0.073-0.727,0.128-1.432-0.361-2.095     c-0.538-0.73-0.856-1.619-1.613-2.197c-0.096-0.073-0.109-0.254-0.159-0.383c0.554-0.294,0.984-0.226,1.467,0.195     c0.619,0.538,1.213,1.118,1.886,1.579c0.484,0.332,1.06,0.61,1.631,0.718c1.426,0.269,2.761-0.1,4.006-0.819     c0.187-0.108,0.398-0.186,0.559-0.323c0.31-0.264,0.542-0.15,0.796,0.083c0.634,0.581,1.231,1.177,1.58,1.994     c0.377,0.882,0.856,1.721,1.215,2.609C92.711,65.669,92.859,66.209,92.727,66.591z"/><path d="M60.486,38.289c-0.081-0.101-0.389-0.38-0.455-0.352c-0.07,0.029-0.556,0.771,0.058,1.294     c0.096,0.082,0.401,0.023,0.433-0.024c0.112-0.161,0.037-0.779-0.05-0.906C60.477,38.296,60.481,38.292,60.486,38.289z"/><path d="M63.003,39.675c-0.121-0.31-0.214-0.547-0.319-0.816c-0.527,0.26-0.881-0.199-1.214,0.697     C62.157,39.786,62.396,39.839,63.003,39.675z"/></g></g><path d="M62.162,32.228c0.75-0.375,2.497,0.424,3,0.656c0.813,0.375,1.188,0.781,1.125,1.531c-0.062,0.75-1.219,1.188-1.625,1.313   c-0.406,0.125-1.312,0.344-1.906,0.156c-0.594-0.188-1.125-0.875-1.25-1.844C61.366,32.958,61.412,32.603,62.162,32.228z"/></g><text x="0" y="115" fill="#000000" font-size="5px" font-weight="bold" font-family="'Helvetica Neue', Helvetica, Arial-Unicode, Arial, Sans-serif">Created by Julia Kitaeva</text><text x="0" y="120" fill="#000000" font-size="5px" font-weight="bold" font-family="'Helvetica Neue', Helvetica, Arial-Unicode, Arial, Sans-serif">from the Noun Project</text></svg>