<svg width="345" height="80" viewBox="0 0 345 80" fill="none" xmlns="http://www.w3.org/2000/svg">
<path d="M76.968 60.28V62.128H67.392V60.28H76.968ZM105.369 58.168C105.369 59.56 104.889 60.72 103.929 61.648C102.985 62.56 101.537 63.016 99.5852 63.016H96.3692V70H94.1852V53.272H99.5852C101.473 53.272 102.905 53.728 103.881 54.64C104.873 55.552 105.369 56.728 105.369 58.168ZM99.5852 61.216C100.801 61.216 101.697 60.952 102.273 60.424C102.849 59.896 103.137 59.144 103.137 58.168C103.137 56.104 101.953 55.072 99.5852 55.072H96.3692V61.216H99.5852ZM116.748 70.168C115.644 70.168 114.652 69.976 113.772 69.592C112.908 69.192 112.228 68.648 111.732 67.96C111.236 67.256 110.98 66.448 110.964 65.536H113.292C113.372 66.32 113.692 66.984 114.252 67.528C114.828 68.056 115.66 68.32 116.748 68.32C117.788 68.32 118.604 68.064 119.196 67.552C119.804 67.024 120.108 66.352 120.108 65.536C120.108 64.896 119.932 64.376 119.58 63.976C119.228 63.576 118.788 63.272 118.26 63.064C117.732 62.856 117.02 62.632 116.124 62.392C115.02 62.104 114.132 61.816 113.46 61.528C112.804 61.24 112.236 60.792 111.756 60.184C111.292 59.56 111.06 58.728 111.06 57.688C111.06 56.776 111.292 55.968 111.756 55.264C112.22 54.56 112.868 54.016 113.7 53.632C114.548 53.248 115.516 53.056 116.604 53.056C118.172 53.056 119.452 53.448 120.444 54.232C121.452 55.016 122.02 56.056 122.148 57.352H119.748C119.668 56.712 119.332 56.152 118.74 55.672C118.148 55.176 117.364 54.928 116.388 54.928C115.476 54.928 114.732 55.168 114.156 55.648C113.58 56.112 113.292 56.768 113.292 57.616C113.292 58.224 113.46 58.72 113.796 59.104C114.148 59.488 114.572 59.784 115.068 59.992C115.58 60.184 116.292 60.408 117.204 60.664C118.308 60.968 119.196 61.272 119.868 61.576C120.54 61.864 121.116 62.32 121.596 62.944C122.076 63.552 122.316 64.384 122.316 65.44C122.316 66.256 122.1 67.024 121.668 67.744C121.236 68.464 120.596 69.048 119.748 69.496C118.9 69.944 117.9 70.168 116.748 70.168ZM131.074 53.272V70H128.89V53.272H131.074ZM137.34 61.624C137.34 59.992 137.708 58.528 138.444 57.232C139.18 55.92 140.18 54.896 141.444 54.16C142.724 53.424 144.14 53.056 145.692 53.056C147.516 53.056 149.108 53.496 150.468 54.376C151.828 55.256 152.82 56.504 153.444 58.12H150.828C150.364 57.112 149.692 56.336 148.812 55.792C147.948 55.248 146.908 54.976 145.692 54.976C144.524 54.976 143.476 55.248 142.548 55.792C141.62 56.336 140.892 57.112 140.364 58.12C139.836 59.112 139.572 60.28 139.572 61.624C139.572 62.952 139.836 64.12 140.364 65.128C140.892 66.12 141.62 66.888 142.548 67.432C143.476 67.976 144.524 68.248 145.692 68.248C146.908 68.248 147.948 67.984 148.812 67.456C149.692 66.912 150.364 66.136 150.828 65.128H153.444C152.82 66.728 151.828 67.968 150.468 68.848C149.108 69.712 147.516 70.144 145.692 70.144C144.14 70.144 142.724 69.784 141.444 69.064C140.18 68.328 139.18 67.312 138.444 66.016C137.708 64.72 137.34 63.256 137.34 61.624ZM167.639 70.168C166.087 70.168 164.671 69.808 163.391 69.088C162.111 68.352 161.095 67.336 160.343 66.04C159.607 64.728 159.239 63.256 159.239 61.624C159.239 59.992 159.607 58.528 160.343 57.232C161.095 55.92 162.111 54.904 163.391 54.184C164.671 53.448 166.087 53.08 167.639 53.08C169.207 53.08 170.631 53.448 171.911 54.184C173.191 54.904 174.199 55.912 174.935 57.208C175.671 58.504 176.039 59.976 176.039 61.624C176.039 63.272 175.671 64.744 174.935 66.04C174.199 67.336 173.191 68.352 171.911 69.088C170.631 69.808 169.207 70.168 167.639 70.168ZM167.639 68.272C168.807 68.272 169.855 68 170.783 67.456C171.727 66.912 172.463 66.136 172.991 65.128C173.535 64.12 173.807 62.952 173.807 61.624C173.807 60.28 173.535 59.112 172.991 58.12C172.463 57.112 171.735 56.336 170.807 55.792C169.879 55.248 168.823 54.976 167.639 54.976C166.455 54.976 165.399 55.248 164.471 55.792C163.543 56.336 162.807 57.112 162.263 58.12C161.735 59.112 161.471 60.28 161.471 61.624C161.471 62.952 161.735 64.12 162.263 65.128C162.807 66.136 163.543 66.912 164.471 67.456C165.415 68 166.471 68.272 167.639 68.272ZM170.039 49.648L164.927 52.384V50.752L170.039 47.752V49.648ZM184.466 68.224H190.322V70H182.282V53.272H184.466V68.224ZM203.585 70.168C202.033 70.168 200.617 69.808 199.337 69.088C198.057 68.352 197.041 67.336 196.289 66.04C195.553 64.728 195.185 63.256 195.185 61.624C195.185 59.992 195.553 58.528 196.289 57.232C197.041 55.92 198.057 54.904 199.337 54.184C200.617 53.448 202.033 53.08 203.585 53.08C205.153 53.08 206.577 53.448 207.857 54.184C209.137 54.904 210.145 55.912 210.881 57.208C211.617 58.504 211.985 59.976 211.985 61.624C211.985 63.272 211.617 64.744 210.881 66.04C210.145 67.336 209.137 68.352 207.857 69.088C206.577 69.808 205.153 70.168 203.585 70.168ZM203.585 68.272C204.753 68.272 205.801 68 206.729 67.456C207.673 66.912 208.409 66.136 208.937 65.128C209.481 64.12 209.753 62.952 209.753 61.624C209.753 60.28 209.481 59.112 208.937 58.12C208.409 57.112 207.681 56.336 206.753 55.792C205.825 55.248 204.769 54.976 203.585 54.976C202.401 54.976 201.345 55.248 200.417 55.792C199.489 56.336 198.753 57.112 198.209 58.12C197.681 59.112 197.417 60.28 197.417 61.624C197.417 62.952 197.681 64.12 198.209 65.128C198.753 66.136 199.489 66.912 200.417 67.456C201.361 68 202.417 68.272 203.585 68.272ZM230.901 58.12C230.437 57.144 229.765 56.392 228.885 55.864C228.005 55.32 226.981 55.048 225.813 55.048C224.645 55.048 223.589 55.32 222.645 55.864C221.717 56.392 220.981 57.16 220.437 58.168C219.909 59.16 219.645 60.312 219.645 61.624C219.645 62.936 219.909 64.088 220.437 65.08C220.981 66.072 221.717 66.84 222.645 67.384C223.589 67.912 224.645 68.176 225.813 68.176C227.445 68.176 228.789 67.688 229.845 66.712C230.901 65.736 231.517 64.416 231.693 62.752H225.021V60.976H234.021V62.656C233.893 64.032 233.461 65.296 232.725 66.448C231.989 67.584 231.021 68.488 229.821 69.16C228.621 69.816 227.285 70.144 225.813 70.144C224.261 70.144 222.845 69.784 221.565 69.064C220.285 68.328 219.269 67.312 218.517 66.016C217.781 64.72 217.413 63.256 217.413 61.624C217.413 59.992 217.781 58.528 218.517 57.232C219.269 55.92 220.285 54.904 221.565 54.184C222.845 53.448 224.261 53.08 225.813 53.08C227.589 53.08 229.157 53.52 230.517 54.4C231.893 55.28 232.893 56.52 233.517 58.12H230.901ZM250.156 66.28H242.86L241.516 70H239.212L245.26 53.368H247.78L253.804 70H251.5L250.156 66.28ZM249.532 64.504L246.508 56.056L243.484 64.504H249.532ZM278.679 60.28V62.128H269.103V60.28H278.679Z" fill="white"/>
<path d="M0.856 36.072C0.76 35.616 0.76 35.172 0.856 34.74H2.908C3.46 33.66 3.94 32.616 4.348 31.608C4.78 30.576 5.2 29.52 5.608 28.44L9.928 17.316C10.168 16.692 10.444 15.984 10.756 15.192C11.068 14.376 11.368 13.524 11.656 12.636C11.944 11.748 12.148 10.896 12.268 10.08C12.508 10.032 12.748 10.008 12.988 10.008C13.228 9.984 13.468 9.984 13.708 10.008C13.948 10.008 14.188 10.032 14.428 10.08L12.052 16.2L7.3 28.44C6.892 29.52 6.568 30.576 6.328 31.608C6.088 32.616 5.92 33.66 5.824 34.74H8.74C8.836 35.172 8.836 35.616 8.74 36.072C7.756 36.024 6.868 36 6.076 36C5.308 36 4.72 36 4.312 36C3.88 36 3.4 36 2.872 36C2.368 36 1.696 36.024 0.856 36.072ZM23.428 34.74H25.372C25.468 35.172 25.468 35.616 25.372 36.072C24.82 36.048 24.304 36.024 23.824 36C23.368 36 22.912 36 22.456 36C22 36 21.496 36 20.944 36C20.128 36 19.276 36 18.388 36C17.524 36 16.684 36.024 15.868 36.072C15.772 35.616 15.772 35.172 15.868 34.74H18.352C18.16 33.66 17.92 32.616 17.632 31.608C17.344 30.576 16.996 29.52 16.588 28.44L12.052 16.2L14.428 10.08C14.62 11.304 14.92 12.504 15.328 13.68C15.76 14.832 16.288 16.272 16.912 18L20.764 28.44C21.172 29.52 21.592 30.576 22.024 31.608C22.456 32.616 22.924 33.66 23.428 34.74ZM16.768 27.54H7.408V26.1H16.768V27.54ZM41.4879 36.36C41.3439 35.496 41.1279 34.572 40.8399 33.588C40.5759 32.58 40.2039 31.512 39.7239 30.384L32.9919 13.896C32.9679 14.232 32.9319 14.832 32.8839 15.696C32.8599 16.56 32.8479 17.448 32.8479 18.36V28.44C32.8479 29.52 32.8839 30.576 32.9559 31.608C33.0519 32.616 33.1959 33.66 33.3879 34.74H36.1599C36.2559 35.172 36.2559 35.616 36.1599 36.072C35.3439 36.024 34.5519 36 33.7839 36C33.0399 36 32.4399 36 31.9839 36C31.5519 36 31.0239 36 30.3999 36C29.7759 36 29.0439 36.024 28.2039 36.072C28.1079 35.616 28.1079 35.172 28.2039 34.74H30.6159C30.8079 33.66 30.9399 32.616 31.0119 31.608C31.1079 30.576 31.1559 29.52 31.1559 28.44V18.36C31.1559 17.448 31.1079 16.488 31.0119 15.48C30.9399 14.448 30.8079 13.308 30.6159 12.06H28.2039C28.1079 11.604 28.1079 11.16 28.2039 10.728C29.0439 10.752 29.7759 10.776 30.3999 10.8C31.0239 10.8 31.5519 10.8 31.9839 10.8H36.5199C36.7119 11.664 36.9399 12.528 37.2039 13.392C37.4679 14.256 37.7559 15.072 38.0679 15.84L43.8279 29.88L49.1559 16.488C49.5879 15.384 49.9359 14.376 50.1999 13.464C50.4879 12.552 50.7159 11.664 50.8839 10.8H54.3039C55.1439 10.8 55.9719 10.8 56.7879 10.8C57.6039 10.776 58.4199 10.752 59.2359 10.728C59.3319 11.16 59.3319 11.604 59.2359 12.06H56.6439C56.5239 13.14 56.4279 14.196 56.3559 15.228C56.3079 16.236 56.2839 17.28 56.2839 18.36V28.44C56.2839 29.52 56.3079 30.576 56.3559 31.608C56.4279 32.616 56.5239 33.66 56.6439 34.74H59.2359C59.3319 35.172 59.3319 35.616 59.2359 36.072C58.4199 36.024 57.6039 36 56.7879 36C55.9719 36 55.1439 36 54.3039 36C53.4879 36 52.6719 36 51.8559 36C51.0399 36 50.2119 36.024 49.3719 36.072C49.2759 35.616 49.2759 35.172 49.3719 34.74H51.9639C52.0839 33.66 52.1679 32.616 52.2159 31.608C52.2879 30.576 52.3239 29.52 52.3239 28.44V18.36C52.3239 17.448 52.2879 16.56 52.2159 15.696C52.1679 14.832 52.1199 14.232 52.0719 13.896L44.9799 31.32C44.7159 31.992 44.4639 32.784 44.2239 33.696C43.9839 34.608 43.7919 35.496 43.6479 36.36C42.9279 36.48 42.2079 36.48 41.4879 36.36ZM61.7972 36.072C61.7012 35.616 61.7012 35.172 61.7972 34.74H63.8492C64.4013 33.66 64.8812 32.616 65.2892 31.608C65.7213 30.576 66.1413 29.52 66.5493 28.44L70.8693 17.316C71.1093 16.692 71.3853 15.984 71.6973 15.192C72.0093 14.376 72.3093 13.524 72.5972 12.636C72.8853 11.748 73.0893 10.896 73.2093 10.08C73.4493 10.032 73.6893 10.008 73.9293 10.008C74.1693 9.984 74.4093 9.984 74.6493 10.008C74.8893 10.008 75.1293 10.032 75.3693 10.08L72.9933 16.2L68.2413 28.44C67.8333 29.52 67.5093 30.576 67.2692 31.608C67.0293 32.616 66.8613 33.66 66.7652 34.74H69.6812C69.7773 35.172 69.7773 35.616 69.6812 36.072C68.6973 36.024 67.8093 36 67.0172 36C66.2492 36 65.6613 36 65.2533 36C64.8212 36 64.3412 36 63.8132 36C63.3092 36 62.6372 36.024 61.7972 36.072ZM84.3693 34.74H86.3133C86.4093 35.172 86.4093 35.616 86.3133 36.072C85.7613 36.048 85.2453 36.024 84.7652 36C84.3093 36 83.8533 36 83.3973 36C82.9413 36 82.4373 36 81.8853 36C81.0693 36 80.2173 36 79.3293 36C78.4653 36 77.6253 36.024 76.8093 36.072C76.7133 35.616 76.7133 35.172 76.8093 34.74H79.2933C79.1013 33.66 78.8613 32.616 78.5733 31.608C78.2853 30.576 77.9373 29.52 77.5293 28.44L72.9933 16.2L75.3693 10.08C75.5613 11.304 75.8613 12.504 76.2693 13.68C76.7013 14.832 77.2293 16.272 77.8533 18L81.7053 28.44C82.1133 29.52 82.5333 30.576 82.9653 31.608C83.3973 32.616 83.8653 33.66 84.3693 34.74ZM77.7093 27.54H68.3492V26.1H77.7093V27.54ZM109.377 36C109.113 35.352 108.825 34.74 108.513 34.164C108.201 33.588 107.865 33.036 107.505 32.508C107.169 31.956 106.809 31.416 106.425 30.888L94.0412 13.32L92.9252 10.8C93.4532 10.8 93.9932 10.8 94.5452 10.8C95.0972 10.8 95.6252 10.8 96.1292 10.8C96.6572 10.776 97.1372 10.752 97.5692 10.728C97.8332 11.328 98.1452 11.928 98.5052 12.528C98.8652 13.128 99.3452 13.86 99.9452 14.724L109.845 28.8L111.537 36C111.105 36.048 110.745 36.072 110.457 36.072C110.169 36.072 109.809 36.048 109.377 36ZM89.1452 36.072C89.0492 35.616 89.0492 35.172 89.1452 34.74H91.5572C91.7492 33.66 91.8812 32.616 91.9532 31.608C92.0492 30.576 92.0972 29.52 92.0972 28.44V18.36C92.0972 17.448 92.0492 16.488 91.9532 15.48C91.8812 14.448 91.7492 13.308 91.5572 12.06H89.1452C89.0492 11.604 89.0492 11.16 89.1452 10.728C89.9852 10.752 90.7172 10.776 91.3412 10.8C91.9652 10.8 92.4932 10.8 92.9252 10.8L94.0412 13.32C93.9692 14.04 93.9092 14.832 93.8612 15.696C93.8132 16.56 93.7892 17.448 93.7892 18.36V28.44C93.7892 29.52 93.8252 30.576 93.8972 31.608C93.9932 32.616 94.1372 33.66 94.3292 34.74H97.1012C97.1972 35.172 97.1972 35.616 97.1012 36.072C96.2852 36.024 95.4932 36 94.7252 36C93.9812 36 93.3812 36 92.9252 36C92.4932 36 91.9652 36 91.3412 36C90.7172 36 89.9852 36.024 89.1452 36.072ZM111.537 36L109.845 28.8V18.36C109.845 17.28 109.797 16.272 109.701 15.336C109.629 14.4 109.497 13.308 109.305 12.06H106.533C106.437 11.604 106.437 11.16 106.533 10.728C107.373 10.752 108.165 10.776 108.909 10.8C109.677 10.8 110.289 10.8 110.745 10.8C111.153 10.8 111.669 10.8 112.293 10.8C112.941 10.776 113.673 10.752 114.489 10.728C114.585 11.16 114.585 11.604 114.489 12.06H112.077C111.885 13.308 111.741 14.4 111.645 15.336C111.573 16.272 111.537 17.28 111.537 18.36V36ZM123.528 10.8H130.548C133.14 10.8 135.384 11.268 137.28 12.204C139.2 13.116 140.688 14.472 141.744 16.272C142.8 18.048 143.328 20.244 143.328 22.86C143.328 25.476 142.788 27.768 141.708 29.736C140.628 31.704 139.128 33.24 137.208 34.344C135.288 35.448 133.068 36 130.548 36H123.528C122.712 36 121.896 36 121.08 36C120.264 36 119.436 36.024 118.596 36.072C118.5 35.616 118.5 35.172 118.596 34.74H121.188C121.308 33.66 121.392 32.616 121.44 31.608C121.512 30.576 121.548 29.52 121.548 28.44V18.36C121.548 17.28 121.512 16.236 121.44 15.228C121.392 14.196 121.308 13.14 121.188 12.06H118.596C118.5 11.604 118.5 11.16 118.596 10.728C119.436 10.752 120.264 10.776 121.08 10.8C121.896 10.8 122.712 10.8 123.528 10.8ZM125.868 34.56H130.908C132.708 34.56 134.196 34.08 135.372 33.12C136.548 32.136 137.424 30.804 138 29.124C138.576 27.444 138.864 25.536 138.864 23.4C138.864 21.792 138.708 20.316 138.396 18.972C138.084 17.604 137.58 16.416 136.884 15.408C136.212 14.4 135.324 13.62 134.22 13.068C133.116 12.516 131.772 12.24 130.188 12.24H125.868C125.748 13.32 125.652 14.34 125.58 15.3C125.532 16.26 125.508 17.28 125.508 18.36V28.44C125.508 29.52 125.532 30.54 125.58 31.5C125.652 32.46 125.748 33.48 125.868 34.56ZM144.947 36.072C144.851 35.616 144.851 35.172 144.947 34.74H146.999C147.551 33.66 148.031 32.616 148.439 31.608C148.871 30.576 149.291 29.52 149.699 28.44L154.019 17.316C154.259 16.692 154.535 15.984 154.847 15.192C155.159 14.376 155.459 13.524 155.747 12.636C156.035 11.748 156.239 10.896 156.359 10.08C156.599 10.032 156.839 10.008 157.079 10.008C157.319 9.984 157.559 9.984 157.799 10.008C158.039 10.008 158.279 10.032 158.519 10.08L156.143 16.2L151.391 28.44C150.983 29.52 150.659 30.576 150.419 31.608C150.179 32.616 150.011 33.66 149.915 34.74H152.831C152.927 35.172 152.927 35.616 152.831 36.072C151.847 36.024 150.959 36 150.167 36C149.399 36 148.811 36 148.403 36C147.971 36 147.491 36 146.963 36C146.459 36 145.787 36.024 144.947 36.072ZM167.519 34.74H169.463C169.559 35.172 169.559 35.616 169.463 36.072C168.911 36.048 168.395 36.024 167.915 36C167.459 36 167.003 36 166.547 36C166.091 36 165.587 36 165.035 36C164.219 36 163.367 36 162.479 36C161.615 36 160.775 36.024 159.959 36.072C159.863 35.616 159.863 35.172 159.959 34.74H162.443C162.251 33.66 162.011 32.616 161.723 31.608C161.435 30.576 161.087 29.52 160.679 28.44L156.143 16.2L158.519 10.08C158.711 11.304 159.011 12.504 159.419 13.68C159.851 14.832 160.379 16.272 161.003 18L164.855 28.44C165.263 29.52 165.683 30.576 166.115 31.608C166.547 32.616 167.015 33.66 167.519 34.74ZM160.859 27.54H151.499V26.1H160.859V27.54ZM193.162 22.68C194.074 22.776 194.974 22.944 195.862 23.184C196.774 23.424 197.614 23.784 198.382 24.264C199.15 24.72 199.762 25.32 200.218 26.064C200.674 26.808 200.902 27.72 200.902 28.8C200.902 30.336 200.458 31.644 199.57 32.724C198.706 33.78 197.53 34.596 196.042 35.172C194.554 35.724 192.874 36 191.002 36H184.882C184.066 36 183.25 36 182.434 36C181.618 36 180.79 36.024 179.95 36.072C179.854 35.616 179.854 35.172 179.95 34.74H182.542C182.662 33.66 182.746 32.616 182.794 31.608C182.866 30.576 182.902 29.52 182.902 28.44V18.36C182.902 17.28 182.866 16.236 182.794 15.228C182.746 14.196 182.662 13.14 182.542 12.06H179.95C179.854 11.604 179.854 11.16 179.95 10.728C180.79 10.752 181.618 10.776 182.434 10.8C183.25 10.8 184.066 10.8 184.882 10.8H190.282C191.914 10.8 193.402 11.016 194.746 11.448C196.114 11.856 197.206 12.492 198.022 13.356C198.862 14.22 199.282 15.348 199.282 16.74C199.282 17.964 198.97 18.996 198.346 19.836C197.722 20.676 196.942 21.336 196.006 21.816C195.07 22.272 194.122 22.56 193.162 22.68ZM187.222 34.56H191.362C192.994 34.56 194.242 34.032 195.106 32.976C195.97 31.896 196.402 30.588 196.402 29.052C196.402 28.02 196.21 27.096 195.826 26.28C195.442 25.464 194.83 24.816 193.99 24.336C193.15 23.832 192.034 23.58 190.642 23.58H184.882V22.14H190.642C191.914 22.14 192.946 21.684 193.738 20.772C194.554 19.836 194.962 18.636 194.962 17.172C194.962 15.732 194.542 14.556 193.702 13.644C192.886 12.708 191.626 12.24 189.922 12.24H187.222C187.102 13.32 187.006 14.316 186.934 15.228C186.886 16.116 186.862 17.1 186.862 18.18V28.44C186.862 29.52 186.886 30.54 186.934 31.5C187.006 32.46 187.102 33.48 187.222 34.56ZM202.855 36.072C202.759 35.616 202.759 35.172 202.855 34.74H204.907C205.459 33.66 205.939 32.616 206.347 31.608C206.779 30.576 207.199 29.52 207.607 28.44L211.927 17.316C212.167 16.692 212.443 15.984 212.755 15.192C213.067 14.376 213.367 13.524 213.655 12.636C213.943 11.748 214.147 10.896 214.267 10.08C214.507 10.032 214.747 10.008 214.987 10.008C215.227 9.984 215.467 9.984 215.707 10.008C215.947 10.008 216.187 10.032 216.427 10.08L214.051 16.2L209.299 28.44C208.891 29.52 208.567 30.576 208.327 31.608C208.087 32.616 207.919 33.66 207.823 34.74H210.739C210.835 35.172 210.835 35.616 210.739 36.072C209.755 36.024 208.867 36 208.075 36C207.307 36 206.719 36 206.311 36C205.879 36 205.399 36 204.871 36C204.367 36 203.695 36.024 202.855 36.072ZM225.427 34.74H227.371C227.467 35.172 227.467 35.616 227.371 36.072C226.819 36.048 226.303 36.024 225.823 36C225.367 36 224.911 36 224.455 36C223.999 36 223.495 36 222.943 36C222.127 36 221.275 36 220.387 36C219.523 36 218.683 36.024 217.867 36.072C217.771 35.616 217.771 35.172 217.867 34.74H220.351C220.159 33.66 219.919 32.616 219.631 31.608C219.343 30.576 218.995 29.52 218.587 28.44L214.051 16.2L216.427 10.08C216.619 11.304 216.919 12.504 217.327 13.68C217.759 14.832 218.287 16.272 218.911 18L222.763 28.44C223.171 29.52 223.591 30.576 224.023 31.608C224.455 32.616 224.923 33.66 225.427 34.74ZM218.767 27.54H209.407V26.1H218.767V27.54ZM230.203 36.072C230.107 35.616 230.107 35.172 230.203 34.74H232.795C232.915 33.66 232.999 32.616 233.047 31.608C233.119 30.576 233.155 29.52 233.155 28.44V18.36C233.155 17.28 233.119 16.236 233.047 15.228C232.999 14.196 232.915 13.14 232.795 12.06H230.203C230.107 11.604 230.107 11.16 230.203 10.728C231.043 10.752 231.871 10.776 232.687 10.8C233.503 10.8 234.319 10.8 235.135 10.8C235.975 10.8 236.803 10.8 237.619 10.8C238.435 10.776 239.251 10.752 240.067 10.728C240.163 11.16 240.163 11.604 240.067 12.06H237.475C237.355 13.14 237.259 14.196 237.187 15.228C237.139 16.236 237.115 17.28 237.115 18.36V28.44C237.115 29.52 237.139 30.576 237.187 31.608C237.259 32.616 237.355 33.66 237.475 34.74H242.263C244.135 34.74 245.419 34.236 246.115 33.228C246.811 32.22 247.207 30.684 247.303 28.62C247.687 28.548 248.071 28.548 248.455 28.62V36H235.135C234.319 36 233.503 36 232.687 36C231.871 36 231.043 36.024 230.203 36.072ZM252.236 36.072C252.14 35.616 252.14 35.172 252.236 34.74H254.828C254.948 33.66 255.032 32.616 255.08 31.608C255.152 30.576 255.188 29.52 255.188 28.44V18.36C255.188 17.28 255.152 16.236 255.08 15.228C255.032 14.196 254.948 13.14 254.828 12.06H252.236C252.14 11.604 252.14 11.16 252.236 10.728C253.076 10.752 253.904 10.776 254.72 10.8C255.536 10.8 256.352 10.8 257.168 10.8C258.008 10.8 258.836 10.8 259.652 10.8C260.468 10.776 261.284 10.752 262.1 10.728C262.196 11.16 262.196 11.604 262.1 12.06H259.508C259.388 13.14 259.292 14.196 259.22 15.228C259.172 16.236 259.148 17.28 259.148 18.36V28.44C259.148 29.52 259.172 30.576 259.22 31.608C259.292 32.616 259.388 33.66 259.508 34.74H262.1C262.196 35.172 262.196 35.616 262.1 36.072C261.284 36.024 260.468 36 259.652 36C258.836 36 258.008 36 257.168 36C256.352 36 255.536 36 254.72 36C253.904 36 253.076 36.024 252.236 36.072ZM264.666 36.072C264.57 35.616 264.57 35.172 264.666 34.74H266.718C267.27 33.66 267.75 32.616 268.158 31.608C268.59 30.576 269.01 29.52 269.418 28.44L273.738 17.316C273.978 16.692 274.254 15.984 274.566 15.192C274.878 14.376 275.178 13.524 275.466 12.636C275.754 11.748 275.958 10.896 276.078 10.08C276.318 10.032 276.558 10.008 276.798 10.008C277.038 9.984 277.278 9.984 277.518 10.008C277.758 10.008 277.998 10.032 278.238 10.08L275.862 16.2L271.11 28.44C270.702 29.52 270.378 30.576 270.138 31.608C269.898 32.616 269.73 33.66 269.634 34.74H272.55C272.646 35.172 272.646 35.616 272.55 36.072C271.566 36.024 270.678 36 269.886 36C269.118 36 268.53 36 268.122 36C267.69 36 267.21 36 266.682 36C266.178 36 265.506 36.024 264.666 36.072ZM287.238 34.74H289.182C289.278 35.172 289.278 35.616 289.182 36.072C288.63 36.048 288.114 36.024 287.634 36C287.178 36 286.722 36 286.266 36C285.81 36 285.306 36 284.754 36C283.938 36 283.086 36 282.198 36C281.334 36 280.494 36.024 279.678 36.072C279.582 35.616 279.582 35.172 279.678 34.74H282.162C281.97 33.66 281.73 32.616 281.442 31.608C281.154 30.576 280.806 29.52 280.398 28.44L275.862 16.2L278.238 10.08C278.43 11.304 278.73 12.504 279.138 13.68C279.57 14.832 280.098 16.272 280.722 18L284.574 28.44C284.982 29.52 285.402 30.576 285.834 31.608C286.266 32.616 286.734 33.66 287.238 34.74ZM280.578 27.54H271.218V26.1H280.578V27.54ZM312.246 36C311.982 35.352 311.694 34.74 311.382 34.164C311.07 33.588 310.734 33.036 310.374 32.508C310.038 31.956 309.678 31.416 309.294 30.888L296.91 13.32L295.794 10.8C296.322 10.8 296.862 10.8 297.414 10.8C297.966 10.8 298.494 10.8 298.998 10.8C299.526 10.776 300.006 10.752 300.438 10.728C300.702 11.328 301.014 11.928 301.374 12.528C301.734 13.128 302.214 13.86 302.814 14.724L312.714 28.8L314.406 36C313.974 36.048 313.614 36.072 313.326 36.072C313.038 36.072 312.678 36.048 312.246 36ZM292.014 36.072C291.918 35.616 291.918 35.172 292.014 34.74H294.426C294.618 33.66 294.75 32.616 294.822 31.608C294.918 30.576 294.966 29.52 294.966 28.44V18.36C294.966 17.448 294.918 16.488 294.822 15.48C294.75 14.448 294.618 13.308 294.426 12.06H292.014C291.918 11.604 291.918 11.16 292.014 10.728C292.854 10.752 293.586 10.776 294.21 10.8C294.834 10.8 295.362 10.8 295.794 10.8L296.91 13.32C296.838 14.04 296.778 14.832 296.73 15.696C296.682 16.56 296.658 17.448 296.658 18.36V28.44C296.658 29.52 296.694 30.576 296.766 31.608C296.862 32.616 297.006 33.66 297.198 34.74H299.97C300.066 35.172 300.066 35.616 299.97 36.072C299.154 36.024 298.362 36 297.594 36C296.85 36 296.25 36 295.794 36C295.362 36 294.834 36 294.21 36C293.586 36 292.854 36.024 292.014 36.072ZM314.406 36L312.714 28.8V18.36C312.714 17.28 312.666 16.272 312.57 15.336C312.498 14.4 312.366 13.308 312.174 12.06H309.402C309.306 11.604 309.306 11.16 309.402 10.728C310.242 10.752 311.034 10.776 311.778 10.8C312.546 10.8 313.158 10.8 313.614 10.8C314.022 10.8 314.538 10.8 315.162 10.8C315.81 10.776 316.542 10.752 317.358 10.728C317.454 11.16 317.454 11.604 317.358 12.06H314.946C314.754 13.308 314.61 14.4 314.514 15.336C314.442 16.272 314.406 17.28 314.406 18.36V36ZM319.384 36.072C319.288 35.616 319.288 35.172 319.384 34.74H321.436C321.988 33.66 322.468 32.616 322.876 31.608C323.308 30.576 323.728 29.52 324.136 28.44L328.456 17.316C328.696 16.692 328.972 15.984 329.284 15.192C329.596 14.376 329.896 13.524 330.184 12.636C330.472 11.748 330.676 10.896 330.796 10.08C331.036 10.032 331.276 10.008 331.516 10.008C331.756 9.984 331.996 9.984 332.236 10.008C332.476 10.008 332.716 10.032 332.956 10.08L330.58 16.2L325.828 28.44C325.42 29.52 325.096 30.576 324.856 31.608C324.616 32.616 324.448 33.66 324.352 34.74H327.268C327.364 35.172 327.364 35.616 327.268 36.072C326.284 36.024 325.396 36 324.604 36C323.836 36 323.248 36 322.84 36C322.408 36 321.928 36 321.4 36C320.896 36 320.224 36.024 319.384 36.072ZM341.956 34.74H343.9C343.996 35.172 343.996 35.616 343.9 36.072C343.348 36.048 342.832 36.024 342.352 36C341.896 36 341.44 36 340.984 36C340.528 36 340.024 36 339.472 36C338.656 36 337.804 36 336.916 36C336.052 36 335.212 36.024 334.396 36.072C334.3 35.616 334.3 35.172 334.396 34.74H336.88C336.688 33.66 336.448 32.616 336.16 31.608C335.872 30.576 335.524 29.52 335.116 28.44L330.58 16.2L332.956 10.08C333.148 11.304 333.448 12.504 333.856 13.68C334.288 14.832 334.816 16.272 335.44 18L339.292 28.44C339.7 29.52 340.12 30.576 340.552 31.608C340.984 32.616 341.452 33.66 341.956 34.74ZM335.296 27.54H325.936V26.1H335.296V27.54Z" fill="white"/>
</svg>
